<ttFont>
<head>
    <!-- Most of this table will be recalculated by the compiler -->
    <tableVersion value="1.0"/>
    <fontRevision value="1.0"/>
    <checkSumAdjustment value="0xdd4a63a3"/>
    <magicNumber value="0x5f0f3cf5"/>
    <flags value="00000000 00011111"/>
    <unitsPerEm value="1000"/>
    <created value="Tue Jan 17 04:00:36 2017"/>
    <modified value="Tue Jan 17 04:00:36 2017"/>
    <xMin value="-282"/>
    <yMin value="-250"/>
    <xMax value="1124"/>
    <yMax value="750"/>
    <macStyle value="00000000 00000010"/>
    <lowestRecPPEM value="8"/>
    <fontDirectionHint value="2"/>
    <indexToLocFormat value="0"/>
    <glyphDataFormat value="0"/>
  </head>
    <TTGlyph name=".notdef" xMin="50" yMin="0" xMax="200" yMax="533">
      <contour>
        <pt x="50" y="0" on="1"/>
        <pt x="50" y="533" on="1"/>
        <pt x="200" y="533" on="1"/>
        <pt x="200" y="0" on="1"/>
      </contour>
      <contour>
        <pt x="100" y="50" on="1"/>
        <pt x="150" y="50" on="1"/>
        <pt x="150" y="483" on="1"/>
        <pt x="100" y="483" on="1"/>
      </contour>
    </TTGlyph>
    <TTGlyph name="A" xMin="58" yMin="0" xMax="696" yMax="716">
      <contour>
        <pt x="182" y="2" on="0"/>
        <pt x="136" y="2" on="0"/>
        <pt x="81" y="0" on="0"/>
        <pt x="71" y="0" on="1"/>
        <pt x="58" y="0" on="0"/>
        <pt x="58" y="10" on="1"/>
        <pt x="58" y="13" on="0"/>
        <pt x="65" y="39" on="0"/>
        <pt x="66" y="40" on="1"/>
        <pt x="68" y="46" on="0"/>
        <pt x="85" y="46" on="1"/>
        <pt x="148" y="50" on="0"/>
        <pt x="178" y="93" on="1"/>
        <pt x="184" y="103" on="0"/>
        <pt x="185" y="104" on="1"/>
        <pt x="185" y="106" on="0"/>
        <pt x="522" y="708" on="0"/>
        <pt x="524" y="709" on="1"/>
        <pt x="526" y="712" on="0"/>
        <pt x="531" y="714" on="1"/>
        <pt x="534" y="716" on="0"/>
        <pt x="568" y="716" on="0"/>
        <pt x="574" y="710" on="1"/>
        <pt x="576" y="708" on="0"/>
        <pt x="594" y="384" on="1"/>
        <pt x="613" y="54" on="0"/>
        <pt x="617" y="52" on="1"/>
        <pt x="618" y="52" on="1"/>
        <pt x="626" y="46" on="0"/>
        <pt x="672" y="46" on="1"/>
        <pt x="689" y="46" on="1"/>
        <pt x="696" y="39" on="0"/>
        <pt x="696" y="36" on="1"/>
        <pt x="696" y="28" on="0"/>
        <pt x="686" y="3" on="0"/>
        <pt x="683" y="0" on="1"/>
        <pt x="670" y="0" on="1"/>
        <pt x="639" y="2" on="0"/>
        <pt x="557" y="2" on="1"/>
        <pt x="537" y="2" on="0"/>
        <pt x="459" y="1" on="0"/>
        <pt x="441" y="1" on="1"/>
        <pt x="425" y="1" on="0"/>
        <pt x="425" y="9" on="1"/>
        <pt x="425" y="12" on="0"/>
        <pt x="427" y="24" on="1"/>
        <pt x="428" y="27" on="0"/>
        <pt x="430" y="36" on="0"/>
        <pt x="431" y="39" on="0"/>
        <pt x="434" y="44" on="0"/>
        <pt x="438" y="45" on="0"/>
        <pt x="445" y="46" on="0"/>
        <pt x="450" y="46" on="1"/>
        <pt x="514" y="46" on="0"/>
        <pt x="514" y="69" on="1"/>
        <pt x="514" y="74" on="0"/>
        <pt x="511" y="136" on="1"/>
        <pt x="506" y="209" on="1"/>
        <pt x="292" y="209" on="1"/>
        <pt x="260" y="152" on="1"/>
        <pt x="226" y="91" on="0"/>
        <pt x="226" y="89" on="1"/>
        <pt x="222" y="82" on="0"/>
        <pt x="222" y="74" on="1"/>
        <pt x="222" y="48" on="0"/>
        <pt x="264" y="46" on="1"/>
        <pt x="276" y="46" on="0"/>
        <pt x="279" y="40" on="1"/>
        <pt x="281" y="37" on="0"/>
        <pt x="278" y="21" on="1"/>
        <pt x="275" y="7" on="0"/>
        <pt x="269" y="0" on="0"/>
        <pt x="259" y="0" on="1"/>
        <pt x="246" y="0" on="0"/>
      </contour>
      <contour>
        <pt x="504" y="260" on="1"/>
        <pt x="503" y="263" on="0"/>
        <pt x="488" y="551" on="0"/>
        <pt x="486" y="553" on="1"/>
        <pt x="466" y="520" on="1"/>
        <pt x="446" y="486" on="0"/>
        <pt x="402" y="406" on="1"/>
        <pt x="318" y="256" on="1"/>
        <pt x="318" y="255" on="0"/>
        <pt x="411" y="255" on="1"/>
        <pt x="504" y="255" on="1"/>
      </contour>
    </TTGlyph>
    <TTGlyph name="AE" xMin="58" yMin="0" xMax="949" yMax="683">
      <contour>
        <pt x="259" y="0" on="1"/>
        <pt x="246" y="0" on="0"/>
        <pt x="183" y="2" on="0"/>
        <pt x="160" y="2" on="1"/>
        <pt x="99" y="2" on="0"/>
        <pt x="86" y="1" on="1"/>
        <pt x="69" y="0" on="0"/>
        <pt x="62" y="2" on="0"/>
        <pt x="59" y="7" on="1"/>
        <pt x="59" y="8" on="0"/>
        <pt x="58" y="10" on="1"/>
        <pt x="58" y="11" on="0"/>
        <pt x="61" y="23" on="1"/>
        <pt x="63" y="34" on="0"/>
        <pt x="68" y="44" on="0"/>
        <pt x="74" y="46" on="0"/>
        <pt x="85" y="46" on="1"/>
        <pt x="147" y="50" on="0"/>
        <pt x="180" y="95" on="1"/>
        <pt x="198" y="125" on="0"/>
        <pt x="338" y="370" on="1"/>
        <pt x="490" y="637" on="1"/>
        <pt x="461" y="637" on="1"/>
        <pt x="433" y="638" on="1"/>
        <pt x="425" y="646" on="0"/>
        <pt x="430" y="662" on="1"/>
        <pt x="434" y="680" on="0"/>
        <pt x="440" y="683" on="1"/>
        <pt x="942" y="683" on="1"/>
        <pt x="945" y="680" on="0"/>
        <pt x="949" y="674" on="1"/>
        <pt x="949" y="668" on="0"/>
        <pt x="919" y="450" on="0"/>
        <pt x="918" y="448" on="1"/>
        <pt x="914" y="443" on="0"/>
        <pt x="896" y="443" on="1"/>
        <pt x="886" y="443" on="0"/>
        <pt x="879" y="444" on="0"/>
        <pt x="874" y="450" on="0"/>
        <pt x="874" y="456" on="1"/>
        <pt x="874" y="459" on="0"/>
        <pt x="876" y="479" on="1"/>
        <pt x="882" y="523" on="0"/>
        <pt x="882" y="556" on="1"/>
        <pt x="881" y="598" on="0"/>
        <pt x="865" y="612" on="1"/>
        <pt x="847" y="628" on="0"/>
        <pt x="800" y="637" on="0"/>
        <pt x="756" y="637" on="1"/>
        <pt x="720" y="637" on="1"/>
        <pt x="714" y="637" on="0"/>
        <pt x="693" y="638" on="0"/>
        <pt x="689" y="638" on="1"/>
        <pt x="664" y="638" on="0"/>
        <pt x="660" y="628" on="1"/>
        <pt x="657" y="622" on="0"/>
        <pt x="623" y="488" on="1"/>
        <pt x="589" y="351" on="1"/>
        <pt x="626" y="351" on="1"/>
        <pt x="687" y="351" on="0"/>
        <pt x="707" y="360" on="1"/>
        <pt x="726" y="367" on="0"/>
        <pt x="748" y="405" on="0"/>
        <pt x="759" y="446" on="1"/>
        <pt x="760" y="449" on="0"/>
        <pt x="762" y="459" on="0"/>
        <pt x="763" y="462" on="0"/>
        <pt x="765" y="467" on="0"/>
        <pt x="771" y="467" on="0"/>
        <pt x="779" y="468" on="0"/>
        <pt x="786" y="468" on="1"/>
        <pt x="801" y="468" on="1"/>
        <pt x="808" y="463" on="0"/>
        <pt x="808" y="458" on="1"/>
        <pt x="808" y="455" on="0"/>
        <pt x="745" y="199" on="0"/>
        <pt x="743" y="195" on="1"/>
        <pt x="741" y="188" on="0"/>
        <pt x="720" y="188" on="1"/>
        <pt x="705" y="188" on="1"/>
        <pt x="699" y="193" on="0"/>
        <pt x="698" y="200" on="0"/>
        <pt x="702" y="216" on="1"/>
        <pt x="709" y="247" on="0"/>
        <pt x="709" y="268" on="1"/>
        <pt x="709" y="290" on="0"/>
        <pt x="694" y="297" on="1"/>
        <pt x="680" y="305" on="0"/>
        <pt x="616" y="305" on="1"/>
        <pt x="578" y="305" on="1"/>
        <pt x="546" y="180" on="1"/>
        <pt x="515" y="54" on="0"/>
        <pt x="515" y="52" on="1"/>
        <pt x="515" y="46" on="0"/>
        <pt x="549" y="46" on="1"/>
        <pt x="582" y="46" on="1"/>
        <pt x="638" y="46" on="0"/>
        <pt x="654" y="48" on="1"/>
        <pt x="740" y="59" on="0"/>
        <pt x="777" y="112" on="1"/>
        <pt x="805" y="151" on="0"/>
        <pt x="842" y="244" on="1"/>
        <pt x="853" y="270" on="0"/>
        <pt x="856" y="272" on="1"/>
        <pt x="860" y="274" on="0"/>
        <pt x="874" y="274" on="1"/>
        <pt x="887" y="274" on="0"/>
        <pt x="891" y="272" on="1"/>
        <pt x="897" y="266" on="0"/>
        <pt x="897" y="262" on="1"/>
        <pt x="798" y="8" on="0"/>
        <pt x="792" y="2" on="1"/>
        <pt x="789" y="0" on="0"/>
        <pt x="569" y="0" on="1"/>
        <pt x="349" y="0" on="1"/>
        <pt x="343" y="6" on="0"/>
        <pt x="342" y="11" on="0"/>
        <pt x="345" y="27" on="1"/>
        <pt x="349" y="41" on="0"/>
        <pt x="355" y="46" on="0"/>
        <pt x="369" y="46" on="1"/>
        <pt x="391" y="46" on="0"/>
        <pt x="412" y="49" on="1"/>
        <pt x="421" y="53" on="0"/>
        <pt x="424" y="60" on="1"/>
        <pt x="456" y="184" on="1"/>
        <pt x="486" y="305" on="1"/>
        <pt x="349" y="305" on="1"/>
        <pt x="289" y="200" on="1"/>
        <pt x="229" y="94" on="0"/>
        <pt x="227" y="89" on="1"/>
        <pt x="223" y="81" on="0"/>
        <pt x="223" y="74" on="1"/>
        <pt x="223" y="48" on="0"/>
        <pt x="265" y="46" on="1"/>
        <pt x="275" y="46" on="0"/>
        <pt x="278" y="42" on="1"/>
        <pt x="283" y="37" on="0"/>
        <pt x="278" y="19" on="1"/>
        <pt x="276" y="11" on="0"/>
        <pt x="275" y="8" on="0"/>
        <pt x="271" y="1" on="0"/>
        <pt x="265" y="0" on="0"/>
      </contour>
      <contour>
        <pt x="564" y="624" on="1"/>
        <pt x="564" y="626" on="0"/>
        <pt x="562" y="629" on="0"/>
        <pt x="557" y="631" on="0"/>
        <pt x="552" y="632" on="0"/>
        <pt x="546" y="634" on="0"/>
        <pt x="544" y="634" on="1"/>
        <pt x="537" y="634" on="0"/>
        <pt x="536" y="632" on="1"/>
        <pt x="533" y="626" on="0"/>
        <pt x="376" y="352" on="0"/>
        <pt x="376" y="351" on="1"/>
        <pt x="437" y="351" on="1"/>
        <pt x="497" y="352" on="1"/>
        <pt x="531" y="487" on="1"/>
        <pt x="565" y="622" on="0"/>
      </contour>
    </TTGlyph>
    <TTGlyph name="B" xMin="57" yMin="0" xMax="732" yMax="683">
      <contour>
        <pt x="219" y="664" on="1"/>
        <pt x="223" y="677" on="0"/>
        <pt x="229" y="683" on="1"/>
        <pt x="411" y="683" on="1"/>
        <pt x="593" y="682" on="1"/>
        <pt x="605" y="680" on="1"/>
        <pt x="710" y="661" on="0"/>
        <pt x="730" y="575" on="1"/>
        <pt x="732" y="567" on="0"/>
        <pt x="732" y="547" on="1"/>
        <pt x="732" y="519" on="0"/>
        <pt x="726" y="503" on="1"/>
        <pt x="711" y="454" on="0"/>
        <pt x="615" y="376" on="0"/>
        <pt x="556" y="360" on="1"/>
        <pt x="545" y="357" on="1"/>
        <pt x="556" y="355" on="1"/>
        <pt x="608" y="346" on="0"/>
        <pt x="678" y="274" on="0"/>
        <pt x="678" y="221" on="1"/>
        <pt x="678" y="200" on="0"/>
        <pt x="672" y="179" on="1"/>
        <pt x="654" y="119" on="0"/>
        <pt x="549" y="24" on="0"/>
        <pt x="482" y="8" on="1"/>
        <pt x="459" y="2" on="0"/>
        <pt x="419" y="1" on="0"/>
        <pt x="256" y="0" on="1"/>
        <pt x="154" y="0" on="1"/>
        <pt x="59" y="0" on="0"/>
        <pt x="58" y="6" on="1"/>
        <pt x="58" y="6" on="0"/>
        <pt x="58" y="7" on="1"/>
        <pt x="57" y="8" on="0"/>
        <pt x="57" y="11" on="1"/>
        <pt x="57" y="17" on="0"/>
        <pt x="59" y="25" on="1"/>
        <pt x="64" y="42" on="0"/>
        <pt x="69" y="45" on="1"/>
        <pt x="74" y="46" on="1"/>
        <pt x="78" y="46" on="0"/>
        <pt x="92" y="46" on="0"/>
        <pt x="99" y="46" on="1"/>
        <pt x="134" y="47" on="0"/>
        <pt x="157" y="53" on="0"/>
        <pt x="162" y="62" on="1"/>
        <pt x="164" y="66" on="0"/>
        <pt x="303" y="622" on="0"/>
        <pt x="303" y="626" on="1"/>
        <pt x="303" y="627" on="0"/>
        <pt x="302" y="629" on="1"/>
        <pt x="302" y="631" on="1"/>
        <pt x="296" y="637" on="0"/>
        <pt x="241" y="637" on="1"/>
        <pt x="223" y="637" on="1"/>
        <pt x="217" y="642" on="0"/>
        <pt x="215" y="649" on="0"/>
      </contour>
      <contour>
        <pt x="629" y="549" on="1"/>
        <pt x="629" y="623" on="0"/>
        <pt x="570" y="636" on="1"/>
        <pt x="564" y="637" on="0"/>
        <pt x="490" y="637" on="1"/>
        <pt x="472" y="637" on="0"/>
        <pt x="435" y="636" on="0"/>
        <pt x="412" y="636" on="0"/>
        <pt x="411" y="636" on="1"/>
        <pt x="400" y="635" on="0"/>
        <pt x="396" y="627" on="1"/>
        <pt x="394" y="623" on="0"/>
        <pt x="334" y="378" on="0"/>
        <pt x="332" y="376" on="1"/>
        <pt x="332" y="374" on="0"/>
        <pt x="408" y="374" on="1"/>
        <pt x="485" y="375" on="1"/>
        <pt x="495" y="377" on="1"/>
        <pt x="544" y="390" on="0"/>
        <pt x="617" y="468" on="0"/>
        <pt x="627" y="519" on="1"/>
        <pt x="629" y="528" on="0"/>
      </contour>
      <contour>
        <pt x="504" y="336" on="1"/>
        <pt x="500" y="337" on="0"/>
        <pt x="410" y="337" on="1"/>
        <pt x="323" y="337" on="0"/>
        <pt x="322" y="336" on="1"/>
        <pt x="322" y="334" on="0"/>
        <pt x="287" y="192" on="0"/>
        <pt x="252" y="52" on="0"/>
        <pt x="252" y="51" on="1"/>
        <pt x="252" y="47" on="0"/>
        <pt x="337" y="46" on="1"/>
        <pt x="404" y="46" on="0"/>
        <pt x="432" y="48" on="0"/>
        <pt x="448" y="53" on="1"/>
        <pt x="501" y="70" on="0"/>
        <pt x="574" y="172" on="0"/>
        <pt x="574" y="235" on="1"/>
        <pt x="574" y="276" on="0"/>
        <pt x="535" y="332" on="0"/>
      </contour>
    </TTGlyph>
    <TTGlyph name="C" xMin="150" yMin="-21" xMax="812" yMax="705">
      <contour>
        <pt x="705" y="493" on="1"/>
        <pt x="705" y="568" on="0"/>
        <pt x="646" y="659" on="0"/>
        <pt x="583" y="659" on="1"/>
        <pt x="480" y="659" on="0"/>
        <pt x="387" y="570" on="1"/>
        <pt x="338" y="519" on="0"/>
        <pt x="305" y="445" on="1"/>
        <pt x="263" y="346" on="0"/>
        <pt x="253" y="243" on="1"/>
        <pt x="252" y="235" on="0"/>
        <pt x="252" y="213" on="1"/>
        <pt x="252" y="123" on="0"/>
        <pt x="297" y="74" on="1"/>
        <pt x="347" y="24" on="0"/>
        <pt x="421" y="24" on="1"/>
        <pt x="501" y="24" on="0"/>
        <pt x="628" y="157" on="0"/>
        <pt x="653" y="240" on="1"/>
        <pt x="656" y="253" on="0"/>
        <pt x="662" y="257" on="0"/>
        <pt x="677" y="257" on="1"/>
        <pt x="698" y="257" on="0"/>
        <pt x="700" y="251" on="1"/>
        <pt x="701" y="246" on="0"/>
        <pt x="694" y="222" on="1"/>
        <pt x="667" y="139" on="0"/>
        <pt x="537" y="6" on="0"/>
        <pt x="454" y="-15" on="1"/>
        <pt x="429" y="-21" on="0"/>
        <pt x="395" y="-21" on="1"/>
        <pt x="368" y="-21" on="0"/>
        <pt x="362" y="-20" on="1"/>
        <pt x="284" y="-9" on="0"/>
        <pt x="179" y="89" on="0"/>
        <pt x="159" y="166" on="1"/>
        <pt x="150" y="206" on="0"/>
        <pt x="150" y="244" on="1"/>
        <pt x="150" y="265" on="0"/>
        <pt x="152" y="289" on="1"/>
        <pt x="169" y="427" on="0"/>
        <pt x="265" y="543" on="1"/>
        <pt x="300" y="584" on="0"/>
        <pt x="328" y="606" on="1"/>
        <pt x="431" y="692" on="0"/>
        <pt x="546" y="704" on="1"/>
        <pt x="562" y="704" on="1"/>
        <pt x="596" y="704" on="0"/>
        <pt x="604" y="703" on="1"/>
        <pt x="675" y="689" on="0"/>
        <pt x="711" y="633" on="1"/>
        <pt x="714" y="627" on="0"/>
        <pt x="716" y="627" on="1"/>
        <pt x="733" y="644" on="0"/>
        <pt x="753" y="665" on="1"/>
        <pt x="790" y="704" on="0"/>
        <pt x="792" y="704" on="1"/>
        <pt x="793" y="705" on="0"/>
        <pt x="798" y="705" on="1"/>
        <pt x="812" y="705" on="0"/>
        <pt x="812" y="698" on="1"/>
        <pt x="812" y="694" on="0"/>
        <pt x="780" y="561" on="1"/>
        <pt x="744" y="422" on="0"/>
        <pt x="744" y="421" on="1"/>
        <pt x="742" y="416" on="0"/>
        <pt x="736" y="413" on="0"/>
        <pt x="721" y="413" on="1"/>
        <pt x="705" y="413" on="1"/>
        <pt x="699" y="419" on="0"/>
        <pt x="699" y="426" on="1"/>
        <pt x="701" y="432" on="0"/>
        <pt x="701" y="444" on="1"/>
        <pt x="705" y="466" on="0"/>
      </contour>
    </TTGlyph>
    <TTGlyph name="D" xMin="56" yMin="0" xMax="775" yMax="683">
      <contour>
        <pt x="218" y="664" on="1"/>
        <pt x="222" y="677" on="0"/>
        <pt x="228" y="683" on="1"/>
        <pt x="403" y="683" on="1"/>
        <pt x="582" y="683" on="0"/>
        <pt x="589" y="682" on="1"/>
        <pt x="672" y="674" on="0"/>
        <pt x="775" y="541" on="0"/>
        <pt x="775" y="440" on="1"/>
        <pt x="775" y="325" on="0"/>
        <pt x="713" y="215" on="1"/>
        <pt x="653" y="111" on="0"/>
        <pt x="562" y="54" on="1"/>
        <pt x="502" y="14" on="0"/>
        <pt x="432" y="2" on="1"/>
        <pt x="423" y="1" on="0"/>
        <pt x="243" y="0" on="1"/>
        <pt x="148" y="0" on="1"/>
        <pt x="58" y="0" on="0"/>
        <pt x="57" y="6" on="1"/>
        <pt x="57" y="6" on="0"/>
        <pt x="57" y="7" on="1"/>
        <pt x="56" y="8" on="0"/>
        <pt x="56" y="11" on="1"/>
        <pt x="56" y="17" on="0"/>
        <pt x="58" y="25" on="1"/>
        <pt x="63" y="42" on="0"/>
        <pt x="68" y="45" on="1"/>
        <pt x="72" y="46" on="1"/>
        <pt x="77" y="46" on="0"/>
        <pt x="91" y="46" on="0"/>
        <pt x="98" y="46" on="1"/>
        <pt x="133" y="47" on="0"/>
        <pt x="156" y="53" on="0"/>
        <pt x="161" y="62" on="1"/>
        <pt x="163" y="66" on="0"/>
        <pt x="302" y="622" on="0"/>
        <pt x="302" y="626" on="1"/>
        <pt x="302" y="627" on="0"/>
        <pt x="302" y="629" on="1"/>
        <pt x="301" y="631" on="1"/>
        <pt x="295" y="637" on="0"/>
        <pt x="240" y="637" on="1"/>
        <pt x="222" y="637" on="1"/>
        <pt x="216" y="642" on="0"/>
        <pt x="214" y="649" on="0"/>
      </contour>
      <contour>
        <pt x="254" y="51" on="1"/>
        <pt x="254" y="46" on="0"/>
        <pt x="316" y="46" on="1"/>
        <pt x="348" y="46" on="1"/>
        <pt x="401" y="46" on="0"/>
        <pt x="450" y="54" on="0"/>
        <pt x="484" y="71" on="1"/>
        <pt x="585" y="121" on="0"/>
        <pt x="633" y="255" on="1"/>
        <pt x="664" y="351" on="0"/>
        <pt x="675" y="428" on="1"/>
        <pt x="679" y="464" on="0"/>
        <pt x="679" y="477" on="1"/>
        <pt x="679" y="546" on="0"/>
        <pt x="610" y="628" on="0"/>
        <pt x="548" y="636" on="1"/>
        <pt x="547" y="636" on="0"/>
        <pt x="525" y="636" on="0"/>
        <pt x="494" y="637" on="0"/>
        <pt x="466" y="637" on="0"/>
        <pt x="435" y="636" on="0"/>
        <pt x="414" y="636" on="0"/>
        <pt x="413" y="636" on="1"/>
        <pt x="402" y="635" on="0"/>
        <pt x="398" y="627" on="1"/>
        <pt x="396" y="623" on="0"/>
        <pt x="254" y="54" on="0"/>
      </contour>
    </TTGlyph>
    <TTGlyph name="Delta" xMin="70" yMin="0" xMax="750" yMax="716">
      <contour>
        <pt x="409" y="0" on="1"/>
        <pt x="145" y="0" on="1"/>
        <pt x="117" y="0" on="0"/>
        <pt x="88" y="0" on="0"/>
        <pt x="73" y="2" on="0"/>
        <pt x="70" y="4" on="0"/>
        <pt x="70" y="6" on="1"/>
        <pt x="70" y="9" on="0"/>
        <pt x="551" y="700" on="0"/>
        <pt x="557" y="707" on="1"/>
        <pt x="559" y="711" on="0"/>
        <pt x="565" y="713" on="1"/>
        <pt x="570" y="716" on="0"/>
        <pt x="587" y="716" on="1"/>
        <pt x="608" y="716" on="0"/>
        <pt x="613" y="710" on="1"/>
        <pt x="616" y="704" on="0"/>
        <pt x="683" y="358" on="1"/>
        <pt x="752" y="9" on="0"/>
        <pt x="750" y="6" on="1"/>
        <pt x="750" y="2" on="0"/>
        <pt x="747" y="2" on="1"/>
        <pt x="745" y="0" on="0"/>
      </contour>
      <contour>
        <pt x="632" y="86" on="1"/>
        <pt x="531" y="597" on="1"/>
        <pt x="530" y="597" on="0"/>
        <pt x="174" y="86" on="0"/>
        <pt x="174" y="84" on="0"/>
        <pt x="632" y="84" on="0"/>
      </contour>
    </TTGlyph>
    <TTGlyph name="E" xMin="54" yMin="0" xMax="743" yMax="680">
      <contour>
        <pt x="61" y="0" on="1"/>
        <pt x="54" y="7" on="0"/>
        <pt x="54" y="11" on="1"/>
        <pt x="54" y="27" on="0"/>
        <pt x="61" y="41" on="1"/>
        <pt x="65" y="46" on="0"/>
        <pt x="95" y="46" on="1"/>
        <pt x="131" y="47" on="0"/>
        <pt x="154" y="53" on="0"/>
        <pt x="159" y="62" on="1"/>
        <pt x="194" y="200" on="1"/>
        <pt x="229" y="337" on="0"/>
        <pt x="299" y="617" on="0"/>
        <pt x="299" y="629" on="0"/>
        <pt x="295" y="630" on="1"/>
        <pt x="286" y="633" on="0"/>
        <pt x="248" y="634" on="1"/>
        <pt x="216" y="634" on="0"/>
        <pt x="214" y="640" on="1"/>
        <pt x="212" y="643" on="0"/>
        <pt x="215" y="659" on="1"/>
        <pt x="220" y="676" on="0"/>
        <pt x="224" y="678" on="1"/>
        <pt x="226" y="680" on="0"/>
        <pt x="481" y="680" on="1"/>
        <pt x="736" y="680" on="1"/>
        <pt x="743" y="673" on="0"/>
        <pt x="743" y="665" on="0"/>
        <pt x="714" y="449" on="0"/>
        <pt x="713" y="447" on="1"/>
        <pt x="711" y="440" on="0"/>
        <pt x="690" y="440" on="1"/>
        <pt x="675" y="440" on="1"/>
        <pt x="667" y="446" on="0"/>
        <pt x="667" y="450" on="1"/>
        <pt x="667" y="455" on="0"/>
        <pt x="670" y="470" on="1"/>
        <pt x="675" y="502" on="0"/>
        <pt x="675" y="536" on="1"/>
        <pt x="675" y="584" on="0"/>
        <pt x="640" y="625" on="0"/>
        <pt x="592" y="632" on="1"/>
        <pt x="574" y="634" on="0"/>
        <pt x="475" y="634" on="1"/>
        <pt x="421" y="634" on="0"/>
        <pt x="416" y="633" on="1"/>
        <pt x="402" y="632" on="0"/>
        <pt x="399" y="625" on="1"/>
        <pt x="397" y="622" on="0"/>
        <pt x="336" y="380" on="0"/>
        <pt x="336" y="377" on="1"/>
        <pt x="336" y="376" on="0"/>
        <pt x="367" y="376" on="1"/>
        <pt x="387" y="376" on="1"/>
        <pt x="450" y="376" on="0"/>
        <pt x="477" y="389" on="1"/>
        <pt x="506" y="406" on="0"/>
        <pt x="522" y="471" on="1"/>
        <pt x="525" y="483" on="0"/>
        <pt x="528" y="489" on="1"/>
        <pt x="531" y="493" on="0"/>
        <pt x="549" y="493" on="1"/>
        <pt x="566" y="493" on="0"/>
        <pt x="570" y="486" on="1"/>
        <pt x="571" y="484" on="0"/>
        <pt x="572" y="483" on="1"/>
        <pt x="539" y="351" on="1"/>
        <pt x="507" y="221" on="0"/>
        <pt x="504" y="217" on="1"/>
        <pt x="503" y="216" on="0"/>
        <pt x="500" y="213" on="1"/>
        <pt x="484" y="213" on="1"/>
        <pt x="468" y="213" on="0"/>
        <pt x="465" y="216" on="1"/>
        <pt x="459" y="220" on="0"/>
        <pt x="464" y="240" on="1"/>
        <pt x="472" y="272" on="0"/>
        <pt x="472" y="290" on="1"/>
        <pt x="472" y="307" on="0"/>
        <pt x="459" y="322" on="0"/>
        <pt x="427" y="330" on="0"/>
        <pt x="368" y="330" on="1"/>
        <pt x="324" y="330" on="1"/>
        <pt x="255" y="64" on="0"/>
        <pt x="255" y="51" on="1"/>
        <pt x="255" y="47" on="0"/>
        <pt x="331" y="46" on="1"/>
        <pt x="421" y="46" on="0"/>
        <pt x="452" y="50" on="1"/>
        <pt x="532" y="62" on="0"/>
        <pt x="570" y="113" on="1"/>
        <pt x="600" y="149" on="0"/>
        <pt x="639" y="245" on="1"/>
        <pt x="649" y="270" on="0"/>
        <pt x="652" y="272" on="1"/>
        <pt x="656" y="274" on="0"/>
        <pt x="670" y="274" on="1"/>
        <pt x="683" y="274" on="0"/>
        <pt x="687" y="272" on="1"/>
        <pt x="693" y="266" on="0"/>
        <pt x="693" y="262" on="1"/>
        <pt x="594" y="8" on="0"/>
        <pt x="588" y="2" on="1"/>
        <pt x="585" y="0" on="0"/>
        <pt x="323" y="0" on="1"/>
      </contour>
    </TTGlyph>
    <TTGlyph name="F" xMin="54" yMin="1" xMax="731" yMax="680">
      <contour>
        <pt x="71" y="1" on="1"/>
        <pt x="54" y="1" on="0"/>
        <pt x="54" y="11" on="1"/>
        <pt x="54" y="17" on="0"/>
        <pt x="56" y="25" on="1"/>
        <pt x="61" y="42" on="0"/>
        <pt x="66" y="45" on="1"/>
        <pt x="70" y="46" on="1"/>
        <pt x="75" y="46" on="0"/>
        <pt x="89" y="46" on="0"/>
        <pt x="96" y="46" on="1"/>
        <pt x="131" y="47" on="0"/>
        <pt x="154" y="53" on="0"/>
        <pt x="159" y="62" on="1"/>
        <pt x="194" y="200" on="1"/>
        <pt x="229" y="337" on="0"/>
        <pt x="299" y="617" on="0"/>
        <pt x="299" y="629" on="0"/>
        <pt x="295" y="630" on="1"/>
        <pt x="286" y="633" on="0"/>
        <pt x="247" y="634" on="1"/>
        <pt x="219" y="634" on="1"/>
        <pt x="213" y="640" on="0"/>
        <pt x="212" y="645" on="0"/>
        <pt x="215" y="661" on="1"/>
        <pt x="218" y="673" on="0"/>
        <pt x="225" y="680" on="1"/>
        <pt x="724" y="680" on="1"/>
        <pt x="731" y="673" on="0"/>
        <pt x="731" y="665" on="0"/>
        <pt x="702" y="449" on="0"/>
        <pt x="701" y="447" on="1"/>
        <pt x="699" y="440" on="0"/>
        <pt x="678" y="440" on="1"/>
        <pt x="663" y="440" on="1"/>
        <pt x="656" y="445" on="0"/>
        <pt x="656" y="452" on="1"/>
        <pt x="656" y="454" on="0"/>
        <pt x="657" y="459" on="0"/>
        <pt x="658" y="469" on="0"/>
        <pt x="658" y="474" on="1"/>
        <pt x="663" y="514" on="0"/>
        <pt x="663" y="538" on="1"/>
        <pt x="663" y="591" on="0"/>
        <pt x="620" y="630" on="0"/>
        <pt x="566" y="633" on="1"/>
        <pt x="564" y="633" on="0"/>
        <pt x="506" y="634" on="0"/>
        <pt x="486" y="634" on="1"/>
        <pt x="471" y="634" on="0"/>
        <pt x="438" y="634" on="0"/>
        <pt x="416" y="633" on="0"/>
        <pt x="415" y="633" on="1"/>
        <pt x="402" y="632" on="0"/>
        <pt x="399" y="625" on="1"/>
        <pt x="396" y="620" on="0"/>
        <pt x="364" y="492" on="1"/>
        <pt x="332" y="363" on="1"/>
        <pt x="380" y="363" on="1"/>
        <pt x="438" y="364" on="0"/>
        <pt x="454" y="370" on="1"/>
        <pt x="477" y="377" on="0"/>
        <pt x="503" y="415" on="0"/>
        <pt x="514" y="458" on="1"/>
        <pt x="515" y="461" on="0"/>
        <pt x="517" y="471" on="0"/>
        <pt x="518" y="474" on="0"/>
        <pt x="520" y="479" on="0"/>
        <pt x="526" y="479" on="0"/>
        <pt x="534" y="480" on="0"/>
        <pt x="541" y="480" on="1"/>
        <pt x="556" y="480" on="1"/>
        <pt x="563" y="475" on="0"/>
        <pt x="563" y="470" on="1"/>
        <pt x="563" y="467" on="0"/>
        <pt x="500" y="211" on="0"/>
        <pt x="498" y="207" on="1"/>
        <pt x="496" y="200" on="0"/>
        <pt x="475" y="200" on="1"/>
        <pt x="460" y="200" on="1"/>
        <pt x="453" y="207" on="0"/>
        <pt x="453" y="212" on="1"/>
        <pt x="464" y="245" on="0"/>
        <pt x="464" y="278" on="1"/>
        <pt x="464" y="305" on="0"/>
        <pt x="441" y="311" on="1"/>
        <pt x="425" y="317" on="0"/>
        <pt x="369" y="317" on="1"/>
        <pt x="321" y="317" on="1"/>
        <pt x="289" y="190" on="1"/>
        <pt x="257" y="66" on="0"/>
        <pt x="257" y="52" on="0"/>
        <pt x="270" y="49" on="1"/>
        <pt x="303" y="46" on="0"/>
        <pt x="337" y="46" on="1"/>
        <pt x="356" y="46" on="0"/>
        <pt x="367" y="44" on="0"/>
        <pt x="367" y="38" on="1"/>
        <pt x="367" y="27" on="0"/>
        <pt x="360" y="6" on="1"/>
        <pt x="358" y="1" on="0"/>
        <pt x="342" y="1" on="1"/>
        <pt x="323" y="1" on="0"/>
        <pt x="232" y="2" on="0"/>
        <pt x="199" y="2" on="1"/>
        <pt x="167" y="2" on="0"/>
        <pt x="86" y="1" on="0"/>
      </contour>
    </TTGlyph>
    <TTGlyph name="G" xMin="150" yMin="-22" xMax="812" yMax="705">
      <contour>
        <pt x="394" y="-22" on="1"/>
        <pt x="287" y="-22" on="0"/>
        <pt x="150" y="126" on="0"/>
        <pt x="150" y="244" on="1"/>
        <pt x="150" y="265" on="0"/>
        <pt x="152" y="289" on="1"/>
        <pt x="169" y="427" on="0"/>
        <pt x="265" y="543" on="1"/>
        <pt x="300" y="584" on="0"/>
        <pt x="328" y="606" on="1"/>
        <pt x="431" y="692" on="0"/>
        <pt x="546" y="704" on="1"/>
        <pt x="562" y="704" on="1"/>
        <pt x="596" y="704" on="0"/>
        <pt x="604" y="703" on="1"/>
        <pt x="675" y="689" on="0"/>
        <pt x="711" y="633" on="1"/>
        <pt x="714" y="627" on="0"/>
        <pt x="716" y="627" on="1"/>
        <pt x="733" y="644" on="0"/>
        <pt x="753" y="665" on="1"/>
        <pt x="790" y="704" on="0"/>
        <pt x="792" y="704" on="1"/>
        <pt x="793" y="705" on="0"/>
        <pt x="798" y="705" on="1"/>
        <pt x="812" y="705" on="0"/>
        <pt x="812" y="698" on="1"/>
        <pt x="812" y="694" on="0"/>
        <pt x="780" y="561" on="1"/>
        <pt x="744" y="422" on="0"/>
        <pt x="744" y="421" on="1"/>
        <pt x="742" y="416" on="0"/>
        <pt x="736" y="413" on="0"/>
        <pt x="721" y="413" on="1"/>
        <pt x="705" y="413" on="1"/>
        <pt x="699" y="419" on="0"/>
        <pt x="699" y="426" on="1"/>
        <pt x="701" y="432" on="0"/>
        <pt x="701" y="444" on="1"/>
        <pt x="705" y="466" on="0"/>
        <pt x="705" y="493" on="1"/>
        <pt x="705" y="568" on="0"/>
        <pt x="646" y="659" on="0"/>
        <pt x="583" y="659" on="1"/>
        <pt x="480" y="659" on="0"/>
        <pt x="387" y="570" on="1"/>
        <pt x="327" y="509" on="0"/>
        <pt x="294" y="416" on="1"/>
        <pt x="267" y="340" on="0"/>
        <pt x="257" y="267" on="1"/>
        <pt x="252" y="232" on="0"/>
        <pt x="252" y="208" on="1"/>
        <pt x="252" y="125" on="0"/>
        <pt x="345" y="24" on="0"/>
        <pt x="425" y="24" on="1"/>
        <pt x="470" y="24" on="0"/>
        <pt x="549" y="68" on="0"/>
        <pt x="566" y="104" on="1"/>
        <pt x="572" y="117" on="0"/>
        <pt x="583" y="162" on="1"/>
        <pt x="595" y="207" on="0"/>
        <pt x="595" y="214" on="1"/>
        <pt x="595" y="222" on="0"/>
        <pt x="583" y="223" on="1"/>
        <pt x="561" y="227" on="0"/>
        <pt x="517" y="227" on="1"/>
        <pt x="495" y="227" on="1"/>
        <pt x="488" y="234" on="0"/>
        <pt x="488" y="238" on="1"/>
        <pt x="488" y="254" on="0"/>
        <pt x="495" y="268" on="1"/>
        <pt x="500" y="273" on="0"/>
        <pt x="511" y="273" on="1"/>
        <pt x="532" y="273" on="0"/>
        <pt x="628" y="271" on="0"/>
        <pt x="649" y="271" on="1"/>
        <pt x="731" y="271" on="0"/>
        <pt x="752" y="273" on="1"/>
        <pt x="761" y="273" on="1"/>
        <pt x="767" y="267" on="0"/>
        <pt x="768" y="262" on="0"/>
        <pt x="765" y="246" on="1"/>
        <pt x="761" y="233" on="0"/>
        <pt x="755" y="227" on="1"/>
        <pt x="742" y="227" on="1"/>
        <pt x="699" y="227" on="0"/>
        <pt x="693" y="213" on="1"/>
        <pt x="639" y="4" on="1"/>
        <pt x="636" y="-1" on="0"/>
        <pt x="633" y="-1" on="1"/>
        <pt x="629" y="-1" on="0"/>
        <pt x="614" y="14" on="1"/>
        <pt x="596" y="32" on="0"/>
        <pt x="583" y="53" on="1"/>
        <pt x="508" y="-22" on="0"/>
      </contour>
    </TTGlyph>
    <TTGlyph name="Gamma" xMin="54" yMin="0" xMax="705" yMax="680">
      <contour>
        <pt x="61" y="0" on="1"/>
        <pt x="54" y="7" on="0"/>
        <pt x="54" y="11" on="1"/>
        <pt x="54" y="27" on="0"/>
        <pt x="61" y="41" on="1"/>
        <pt x="65" y="46" on="0"/>
        <pt x="95" y="46" on="1"/>
        <pt x="131" y="47" on="0"/>
        <pt x="154" y="53" on="0"/>
        <pt x="159" y="62" on="1"/>
        <pt x="194" y="200" on="1"/>
        <pt x="229" y="337" on="0"/>
        <pt x="299" y="617" on="0"/>
        <pt x="299" y="629" on="0"/>
        <pt x="295" y="630" on="1"/>
        <pt x="286" y="633" on="0"/>
        <pt x="248" y="634" on="1"/>
        <pt x="216" y="634" on="0"/>
        <pt x="214" y="640" on="1"/>
        <pt x="212" y="643" on="0"/>
        <pt x="215" y="659" on="1"/>
        <pt x="220" y="676" on="0"/>
        <pt x="224" y="678" on="1"/>
        <pt x="226" y="680" on="0"/>
        <pt x="462" y="680" on="1"/>
        <pt x="698" y="680" on="1"/>
        <pt x="705" y="673" on="0"/>
        <pt x="705" y="665" on="0"/>
        <pt x="676" y="449" on="0"/>
        <pt x="675" y="447" on="1"/>
        <pt x="673" y="440" on="0"/>
        <pt x="652" y="440" on="1"/>
        <pt x="637" y="440" on="1"/>
        <pt x="630" y="445" on="0"/>
        <pt x="630" y="451" on="1"/>
        <pt x="630" y="456" on="0"/>
        <pt x="633" y="474" on="1"/>
        <pt x="638" y="521" on="0"/>
        <pt x="638" y="543" on="1"/>
        <pt x="638" y="583" on="0"/>
        <pt x="613" y="620" on="0"/>
        <pt x="581" y="628" on="1"/>
        <pt x="563" y="633" on="0"/>
        <pt x="487" y="634" on="1"/>
        <pt x="426" y="634" on="0"/>
        <pt x="402" y="632" on="0"/>
        <pt x="399" y="625" on="1"/>
        <pt x="397" y="621" on="0"/>
        <pt x="257" y="63" on="0"/>
        <pt x="257" y="59" on="1"/>
        <pt x="257" y="52" on="0"/>
        <pt x="270" y="49" on="1"/>
        <pt x="303" y="46" on="0"/>
        <pt x="337" y="46" on="1"/>
        <pt x="366" y="46" on="0"/>
        <pt x="366" y="36" on="1"/>
        <pt x="366" y="12" on="0"/>
        <pt x="359" y="5" on="1"/>
        <pt x="356" y="0" on="0"/>
        <pt x="343" y="0" on="1"/>
        <pt x="321" y="0" on="0"/>
        <pt x="222" y="2" on="0"/>
        <pt x="196" y="2" on="1"/>
        <pt x="98" y="2" on="0"/>
        <pt x="72" y="0" on="1"/>
      </contour>
    </TTGlyph>
    <TTGlyph name="H" xMin="54" yMin="0" xMax="860" yMax="683">
      <contour>
        <pt x="61" y="0" on="1"/>
        <pt x="54" y="7" on="0"/>
        <pt x="54" y="11" on="1"/>
        <pt x="54" y="27" on="0"/>
        <pt x="61" y="41" on="1"/>
        <pt x="65" y="46" on="0"/>
        <pt x="95" y="46" on="1"/>
        <pt x="131" y="47" on="0"/>
        <pt x="154" y="53" on="0"/>
        <pt x="159" y="62" on="1"/>
        <pt x="161" y="66" on="0"/>
        <pt x="300" y="622" on="0"/>
        <pt x="300" y="626" on="1"/>
        <pt x="300" y="627" on="0"/>
        <pt x="300" y="629" on="1"/>
        <pt x="299" y="631" on="1"/>
        <pt x="293" y="637" on="0"/>
        <pt x="238" y="637" on="1"/>
        <pt x="220" y="637" on="1"/>
        <pt x="214" y="642" on="0"/>
        <pt x="212" y="649" on="0"/>
        <pt x="216" y="664" on="1"/>
        <pt x="220" y="677" on="0"/>
        <pt x="226" y="683" on="1"/>
        <pt x="239" y="683" on="1"/>
        <pt x="307" y="681" on="0"/>
        <pt x="372" y="681" on="1"/>
        <pt x="421" y="681" on="1"/>
        <pt x="478" y="681" on="0"/>
        <pt x="486" y="683" on="1"/>
        <pt x="496" y="683" on="1"/>
        <pt x="502" y="677" on="0"/>
        <pt x="503" y="672" on="0"/>
        <pt x="500" y="656" on="1"/>
        <pt x="496" y="643" on="0"/>
        <pt x="490" y="637" on="1"/>
        <pt x="472" y="637" on="1"/>
        <pt x="418" y="637" on="0"/>
        <pt x="406" y="630" on="1"/>
        <pt x="400" y="627" on="0"/>
        <pt x="391" y="597" on="0"/>
        <pt x="367" y="500" on="1"/>
        <pt x="360" y="474" on="0"/>
        <pt x="344" y="410" on="0"/>
        <pt x="340" y="395" on="1"/>
        <pt x="336" y="380" on="1"/>
        <pt x="336" y="378" on="0"/>
        <pt x="466" y="378" on="1"/>
        <pt x="596" y="378" on="1"/>
        <pt x="657" y="610" on="0"/>
        <pt x="657" y="626" on="1"/>
        <pt x="657" y="627" on="0"/>
        <pt x="656" y="629" on="1"/>
        <pt x="656" y="631" on="1"/>
        <pt x="650" y="637" on="0"/>
        <pt x="595" y="637" on="1"/>
        <pt x="577" y="637" on="1"/>
        <pt x="571" y="642" on="0"/>
        <pt x="569" y="649" on="0"/>
        <pt x="573" y="664" on="1"/>
        <pt x="577" y="677" on="0"/>
        <pt x="583" y="683" on="1"/>
        <pt x="596" y="683" on="1"/>
        <pt x="664" y="681" on="0"/>
        <pt x="729" y="681" on="1"/>
        <pt x="778" y="681" on="1"/>
        <pt x="835" y="681" on="0"/>
        <pt x="843" y="683" on="1"/>
        <pt x="853" y="683" on="1"/>
        <pt x="860" y="676" on="0"/>
        <pt x="860" y="672" on="1"/>
        <pt x="860" y="664" on="0"/>
        <pt x="851" y="640" on="0"/>
        <pt x="848" y="637" on="1"/>
        <pt x="819" y="637" on="1"/>
        <pt x="783" y="636" on="0"/>
        <pt x="760" y="631" on="0"/>
        <pt x="756" y="623" on="1"/>
        <pt x="753" y="618" on="0"/>
        <pt x="614" y="62" on="0"/>
        <pt x="614" y="57" on="1"/>
        <pt x="614" y="54" on="0"/>
        <pt x="617" y="50" on="0"/>
        <pt x="622" y="48" on="0"/>
        <pt x="628" y="47" on="0"/>
        <pt x="639" y="46" on="0"/>
        <pt x="647" y="46" on="0"/>
        <pt x="661" y="46" on="0"/>
        <pt x="666" y="46" on="1"/>
        <pt x="697" y="46" on="0"/>
        <pt x="699" y="40" on="1"/>
        <pt x="701" y="37" on="0"/>
        <pt x="698" y="21" on="1"/>
        <pt x="693" y="3" on="0"/>
        <pt x="689" y="1" on="1"/>
        <pt x="686" y="0" on="0"/>
        <pt x="677" y="0" on="1"/>
        <pt x="657" y="0" on="0"/>
        <pt x="571" y="2" on="0"/>
        <pt x="546" y="2" on="1"/>
        <pt x="453" y="2" on="0"/>
        <pt x="428" y="0" on="1"/>
        <pt x="418" y="0" on="1"/>
        <pt x="411" y="7" on="0"/>
        <pt x="411" y="11" on="1"/>
        <pt x="411" y="27" on="0"/>
        <pt x="418" y="41" on="1"/>
        <pt x="422" y="46" on="0"/>
        <pt x="452" y="46" on="1"/>
        <pt x="488" y="47" on="0"/>
        <pt x="511" y="53" on="0"/>
        <pt x="516" y="62" on="1"/>
        <pt x="517" y="64" on="0"/>
        <pt x="584" y="329" on="0"/>
        <pt x="584" y="331" on="1"/>
        <pt x="584" y="332" on="0"/>
        <pt x="454" y="332" on="1"/>
        <pt x="324" y="332" on="1"/>
        <pt x="291" y="197" on="1"/>
        <pt x="257" y="64" on="0"/>
        <pt x="257" y="56" on="1"/>
        <pt x="257" y="54" on="0"/>
        <pt x="260" y="50" on="0"/>
        <pt x="265" y="48" on="0"/>
        <pt x="272" y="47" on="0"/>
        <pt x="282" y="47" on="0"/>
        <pt x="291" y="46" on="0"/>
        <pt x="304" y="46" on="0"/>
        <pt x="309" y="46" on="1"/>
        <pt x="340" y="46" on="0"/>
        <pt x="342" y="40" on="1"/>
        <pt x="344" y="37" on="0"/>
        <pt x="341" y="21" on="1"/>
        <pt x="336" y="3" on="0"/>
        <pt x="332" y="1" on="1"/>
        <pt x="329" y="0" on="0"/>
        <pt x="320" y="0" on="1"/>
        <pt x="300" y="0" on="0"/>
        <pt x="214" y="2" on="0"/>
        <pt x="189" y="2" on="1"/>
        <pt x="96" y="2" on="0"/>
        <pt x="71" y="0" on="1"/>
      </contour>
    </TTGlyph>
    <TTGlyph name="I" xMin="49" yMin="0" xMax="508" yMax="683">
      <contour>
        <pt x="300" y="625" on="1"/>
        <pt x="300" y="637" on="0"/>
        <pt x="258" y="637" on="1"/>
        <pt x="235" y="637" on="1"/>
        <pt x="212" y="637" on="0"/>
        <pt x="210" y="643" on="1"/>
        <pt x="208" y="646" on="0"/>
        <pt x="211" y="662" on="1"/>
        <pt x="216" y="679" on="0"/>
        <pt x="220" y="682" on="1"/>
        <pt x="222" y="683" on="0"/>
        <pt x="237" y="683" on="1"/>
        <pt x="278" y="681" on="0"/>
        <pt x="369" y="681" on="1"/>
        <pt x="441" y="681" on="0"/>
        <pt x="472" y="682" on="1"/>
        <pt x="499" y="683" on="0"/>
        <pt x="502" y="681" on="1"/>
        <pt x="508" y="679" on="0"/>
        <pt x="508" y="672" on="1"/>
        <pt x="508" y="670" on="0"/>
        <pt x="501" y="645" on="0"/>
        <pt x="500" y="643" on="1"/>
        <pt x="498" y="637" on="0"/>
        <pt x="464" y="637" on="1"/>
        <pt x="422" y="636" on="0"/>
        <pt x="410" y="632" on="1"/>
        <pt x="404" y="630" on="0"/>
        <pt x="398" y="621" on="1"/>
        <pt x="396" y="618" on="0"/>
        <pt x="257" y="62" on="0"/>
        <pt x="257" y="58" on="1"/>
        <pt x="257" y="51" on="0"/>
        <pt x="268" y="49" on="1"/>
        <pt x="282" y="46" on="0"/>
        <pt x="322" y="46" on="1"/>
        <pt x="344" y="46" on="0"/>
        <pt x="348" y="39" on="1"/>
        <pt x="349" y="35" on="0"/>
        <pt x="346" y="22" on="1"/>
        <pt x="342" y="4" on="0"/>
        <pt x="337" y="1" on="1"/>
        <pt x="336" y="1" on="0"/>
        <pt x="332" y="0" on="0"/>
        <pt x="329" y="0" on="1"/>
        <pt x="309" y="0" on="0"/>
        <pt x="216" y="2" on="0"/>
        <pt x="190" y="2" on="1"/>
        <pt x="95" y="2" on="0"/>
        <pt x="67" y="0" on="1"/>
        <pt x="56" y="0" on="1"/>
        <pt x="49" y="7" on="0"/>
        <pt x="49" y="15" on="0"/>
        <pt x="56" y="41" on="0"/>
        <pt x="58" y="43" on="1"/>
        <pt x="62" y="46" on="1"/>
        <pt x="91" y="46" on="1"/>
        <pt x="129" y="47" on="0"/>
        <pt x="154" y="53" on="0"/>
        <pt x="159" y="62" on="1"/>
        <pt x="161" y="66" on="0"/>
        <pt x="300" y="622" on="0"/>
      </contour>
    </TTGlyph>
    <TTGlyph name="J" xMin="78" yMin="-21" xMax="622" yMax="683">
      <contour>
        <pt x="444" y="627" on="1"/>
        <pt x="444" y="637" on="0"/>
        <pt x="361" y="637" on="1"/>
        <pt x="341" y="637" on="0"/>
        <pt x="332" y="639" on="0"/>
        <pt x="331" y="644" on="1"/>
        <pt x="329" y="647" on="0"/>
        <pt x="332" y="662" on="1"/>
        <pt x="336" y="679" on="0"/>
        <pt x="341" y="682" on="1"/>
        <pt x="343" y="683" on="0"/>
        <pt x="360" y="683" on="1"/>
        <pt x="405" y="681" on="0"/>
        <pt x="500" y="681" on="1"/>
        <pt x="524" y="681" on="0"/>
        <pt x="593" y="682" on="0"/>
        <pt x="607" y="682" on="1"/>
        <pt x="622" y="682" on="0"/>
        <pt x="622" y="673" on="1"/>
        <pt x="622" y="670" on="0"/>
        <pt x="616" y="649" on="0"/>
        <pt x="616" y="647" on="1"/>
        <pt x="614" y="640" on="0"/>
        <pt x="605" y="637" on="0"/>
        <pt x="587" y="637" on="1"/>
        <pt x="547" y="636" on="0"/>
        <pt x="541" y="624" on="1"/>
        <pt x="538" y="618" on="0"/>
        <pt x="415" y="129" on="0"/>
        <pt x="413" y="124" on="1"/>
        <pt x="394" y="70" on="0"/>
        <pt x="297" y="-10" on="0"/>
        <pt x="234" y="-20" on="1"/>
        <pt x="227" y="-21" on="0"/>
        <pt x="207" y="-21" on="1"/>
        <pt x="149" y="-21" on="0"/>
        <pt x="78" y="36" on="0"/>
        <pt x="78" y="86" on="1"/>
        <pt x="78" y="124" on="0"/>
        <pt x="116" y="170" on="0"/>
        <pt x="149" y="170" on="1"/>
        <pt x="169" y="170" on="0"/>
        <pt x="195" y="148" on="0"/>
        <pt x="196" y="129" on="1"/>
        <pt x="196" y="102" on="0"/>
        <pt x="161" y="61" on="0"/>
        <pt x="137" y="58" on="1"/>
        <pt x="132" y="57" on="1"/>
        <pt x="129" y="54" on="0"/>
        <pt x="145" y="38" on="1"/>
        <pt x="167" y="16" on="0"/>
        <pt x="205" y="16" on="1"/>
        <pt x="220" y="16" on="0"/>
        <pt x="225" y="18" on="1"/>
        <pt x="253" y="27" on="0"/>
        <pt x="305" y="84" on="0"/>
        <pt x="319" y="122" on="1"/>
        <pt x="322" y="129" on="0"/>
        <pt x="444" y="614" on="0"/>
      </contour>
    </TTGlyph>
    <TTGlyph name="K" xMin="54" yMin="0" xMax="859" yMax="683">
      <contour>
        <pt x="70" y="1" on="1"/>
        <pt x="54" y="1" on="0"/>
        <pt x="54" y="11" on="1"/>
        <pt x="54" y="17" on="0"/>
        <pt x="56" y="25" on="1"/>
        <pt x="61" y="42" on="0"/>
        <pt x="66" y="45" on="1"/>
        <pt x="70" y="46" on="1"/>
        <pt x="75" y="46" on="0"/>
        <pt x="89" y="46" on="0"/>
        <pt x="96" y="46" on="1"/>
        <pt x="131" y="47" on="0"/>
        <pt x="154" y="53" on="0"/>
        <pt x="159" y="62" on="1"/>
        <pt x="161" y="66" on="0"/>
        <pt x="300" y="622" on="0"/>
        <pt x="300" y="626" on="1"/>
        <pt x="300" y="627" on="0"/>
        <pt x="300" y="629" on="1"/>
        <pt x="299" y="631" on="1"/>
        <pt x="293" y="637" on="0"/>
        <pt x="238" y="637" on="1"/>
        <pt x="220" y="637" on="1"/>
        <pt x="214" y="642" on="0"/>
        <pt x="212" y="649" on="0"/>
        <pt x="216" y="664" on="1"/>
        <pt x="220" y="677" on="0"/>
        <pt x="226" y="683" on="1"/>
        <pt x="239" y="683" on="1"/>
        <pt x="307" y="681" on="0"/>
        <pt x="372" y="681" on="1"/>
        <pt x="421" y="681" on="1"/>
        <pt x="479" y="681" on="0"/>
        <pt x="487" y="683" on="1"/>
        <pt x="496" y="683" on="1"/>
        <pt x="502" y="677" on="0"/>
        <pt x="503" y="672" on="0"/>
        <pt x="500" y="656" on="1"/>
        <pt x="496" y="642" on="0"/>
        <pt x="491" y="637" on="1"/>
        <pt x="462" y="637" on="1"/>
        <pt x="426" y="636" on="0"/>
        <pt x="403" y="631" on="0"/>
        <pt x="399" y="623" on="1"/>
        <pt x="396" y="618" on="0"/>
        <pt x="358" y="467" on="1"/>
        <pt x="320" y="314" on="1"/>
        <pt x="321" y="314" on="0"/>
        <pt x="484" y="452" on="1"/>
        <pt x="608" y="557" on="0"/>
        <pt x="661" y="604" on="0"/>
        <pt x="665" y="611" on="1"/>
        <pt x="667" y="619" on="0"/>
        <pt x="667" y="620" on="1"/>
        <pt x="667" y="634" on="0"/>
        <pt x="645" y="637" on="1"/>
        <pt x="629" y="637" on="0"/>
        <pt x="629" y="648" on="1"/>
        <pt x="629" y="650" on="0"/>
        <pt x="636" y="675" on="0"/>
        <pt x="637" y="677" on="1"/>
        <pt x="640" y="682" on="0"/>
        <pt x="653" y="682" on="1"/>
        <pt x="669" y="682" on="0"/>
        <pt x="741" y="680" on="0"/>
        <pt x="764" y="680" on="1"/>
        <pt x="815" y="680" on="0"/>
        <pt x="835" y="682" on="1"/>
        <pt x="850" y="683" on="0"/>
        <pt x="859" y="680" on="0"/>
        <pt x="859" y="672" on="1"/>
        <pt x="859" y="657" on="0"/>
        <pt x="852" y="643" on="1"/>
        <pt x="849" y="637" on="0"/>
        <pt x="829" y="637" on="0"/>
        <pt x="823" y="636" on="1"/>
        <pt x="761" y="628" on="0"/>
        <pt x="707" y="586" on="1"/>
        <pt x="701" y="580" on="0"/>
        <pt x="697" y="578" on="1"/>
        <pt x="696" y="578" on="0"/>
        <pt x="600" y="497" on="1"/>
        <pt x="505" y="417" on="1"/>
        <pt x="508" y="408" on="1"/>
        <pt x="543" y="311" on="0"/>
        <pt x="605" y="142" on="0"/>
        <pt x="632" y="70" on="0"/>
        <pt x="632" y="69" on="1"/>
        <pt x="645" y="47" on="0"/>
        <pt x="688" y="46" on="1"/>
        <pt x="707" y="46" on="1"/>
        <pt x="712" y="39" on="0"/>
        <pt x="713" y="36" on="0"/>
        <pt x="710" y="19" on="1"/>
        <pt x="706" y="6" on="0"/>
        <pt x="700" y="0" on="1"/>
        <pt x="688" y="0" on="1"/>
        <pt x="659" y="2" on="0"/>
        <pt x="587" y="2" on="1"/>
        <pt x="569" y="2" on="0"/>
        <pt x="493" y="1" on="0"/>
        <pt x="474" y="1" on="1"/>
        <pt x="461" y="1" on="0"/>
        <pt x="459" y="7" on="1"/>
        <pt x="457" y="10" on="0"/>
        <pt x="460" y="23" on="1"/>
        <pt x="464" y="39" on="0"/>
        <pt x="469" y="46" on="0"/>
        <pt x="480" y="46" on="1"/>
        <pt x="526" y="46" on="0"/>
        <pt x="526" y="72" on="1"/>
        <pt x="526" y="75" on="0"/>
        <pt x="476" y="213" on="1"/>
        <pt x="427" y="350" on="1"/>
        <pt x="424" y="350" on="0"/>
        <pt x="365" y="298" on="1"/>
        <pt x="303" y="246" on="0"/>
        <pt x="302" y="242" on="1"/>
        <pt x="302" y="241" on="0"/>
        <pt x="296" y="218" on="0"/>
        <pt x="284" y="170" on="0"/>
        <pt x="279" y="150" on="1"/>
        <pt x="257" y="61" on="0"/>
        <pt x="257" y="55" on="1"/>
        <pt x="257" y="52" on="0"/>
        <pt x="262" y="49" on="0"/>
        <pt x="274" y="47" on="0"/>
        <pt x="283" y="46" on="0"/>
        <pt x="304" y="46" on="0"/>
        <pt x="309" y="46" on="1"/>
        <pt x="337" y="46" on="1"/>
        <pt x="343" y="40" on="0"/>
        <pt x="344" y="35" on="0"/>
        <pt x="341" y="19" on="1"/>
        <pt x="337" y="6" on="0"/>
        <pt x="331" y="0" on="1"/>
        <pt x="316" y="0" on="1"/>
        <pt x="280" y="2" on="0"/>
        <pt x="190" y="2" on="1"/>
        <pt x="167" y="2" on="0"/>
        <pt x="88" y="1" on="0"/>
      </contour>
    </TTGlyph>
    <TTGlyph name="L" xMin="54" yMin="0" xMax="628" yMax="683">
      <contour>
        <pt x="61" y="0" on="1"/>
        <pt x="54" y="7" on="0"/>
        <pt x="54" y="11" on="1"/>
        <pt x="54" y="27" on="0"/>
        <pt x="61" y="41" on="1"/>
        <pt x="65" y="46" on="0"/>
        <pt x="95" y="46" on="1"/>
        <pt x="131" y="47" on="0"/>
        <pt x="154" y="53" on="0"/>
        <pt x="159" y="62" on="1"/>
        <pt x="161" y="66" on="0"/>
        <pt x="300" y="622" on="0"/>
        <pt x="300" y="626" on="1"/>
        <pt x="300" y="627" on="0"/>
        <pt x="300" y="629" on="1"/>
        <pt x="299" y="631" on="1"/>
        <pt x="293" y="637" on="0"/>
        <pt x="238" y="637" on="1"/>
        <pt x="220" y="637" on="1"/>
        <pt x="214" y="642" on="0"/>
        <pt x="212" y="649" on="0"/>
        <pt x="216" y="664" on="1"/>
        <pt x="220" y="677" on="0"/>
        <pt x="226" y="683" on="1"/>
        <pt x="240" y="683" on="1"/>
        <pt x="275" y="681" on="0"/>
        <pt x="371" y="681" on="1"/>
        <pt x="396" y="681" on="0"/>
        <pt x="488" y="682" on="0"/>
        <pt x="509" y="682" on="1"/>
        <pt x="526" y="682" on="0"/>
        <pt x="526" y="675" on="1"/>
        <pt x="526" y="671" on="0"/>
        <pt x="520" y="644" on="0"/>
        <pt x="519" y="643" on="1"/>
        <pt x="517" y="637" on="0"/>
        <pt x="478" y="637" on="1"/>
        <pt x="419" y="636" on="0"/>
        <pt x="408" y="630" on="1"/>
        <pt x="400" y="626" on="0"/>
        <pt x="396" y="617" on="1"/>
        <pt x="395" y="614" on="0"/>
        <pt x="255" y="53" on="0"/>
        <pt x="255" y="51" on="1"/>
        <pt x="255" y="47" on="0"/>
        <pt x="319" y="47" on="1"/>
        <pt x="387" y="47" on="0"/>
        <pt x="410" y="52" on="1"/>
        <pt x="478" y="71" on="0"/>
        <pt x="546" y="160" on="0"/>
        <pt x="578" y="250" on="1"/>
        <pt x="582" y="264" on="0"/>
        <pt x="589" y="273" on="1"/>
        <pt x="622" y="273" on="1"/>
        <pt x="628" y="264" on="0"/>
        <pt x="628" y="262" on="1"/>
        <pt x="628" y="259" on="0"/>
        <pt x="540" y="6" on="0"/>
        <pt x="539" y="5" on="1"/>
        <pt x="537" y="1" on="0"/>
        <pt x="511" y="1" on="1"/>
        <pt x="482" y="0" on="0"/>
        <pt x="296" y="0" on="1"/>
      </contour>
    </TTGlyph>
    <TTGlyph name="Lambda" xMin="58" yMin="0" xMax="646" yMax="716">
      <contour>
        <pt x="71" y="0" on="1"/>
        <pt x="58" y="0" on="0"/>
        <pt x="58" y="11" on="1"/>
        <pt x="58" y="17" on="0"/>
        <pt x="66" y="41" on="0"/>
        <pt x="68" y="43" on="1"/>
        <pt x="71" y="46" on="0"/>
        <pt x="77" y="46" on="1"/>
        <pt x="113" y="46" on="0"/>
        <pt x="152" y="73" on="0"/>
        <pt x="173" y="104" on="1"/>
        <pt x="174" y="106" on="0"/>
        <pt x="336" y="407" on="0"/>
        <pt x="496" y="706" on="0"/>
        <pt x="497" y="707" on="1"/>
        <pt x="499" y="711" on="0"/>
        <pt x="504" y="713" on="1"/>
        <pt x="509" y="716" on="0"/>
        <pt x="525" y="716" on="1"/>
        <pt x="543" y="716" on="0"/>
        <pt x="547" y="711" on="1"/>
        <pt x="550" y="707" on="0"/>
        <pt x="572" y="89" on="0"/>
        <pt x="572" y="65" on="1"/>
        <pt x="573" y="51" on="0"/>
        <pt x="581" y="50" on="1"/>
        <pt x="595" y="46" on="0"/>
        <pt x="623" y="46" on="1"/>
        <pt x="646" y="46" on="0"/>
        <pt x="646" y="36" on="1"/>
        <pt x="646" y="35" on="0"/>
        <pt x="643" y="23" on="1"/>
        <pt x="642" y="21" on="0"/>
        <pt x="640" y="13" on="0"/>
        <pt x="640" y="10" on="0"/>
        <pt x="638" y="5" on="0"/>
        <pt x="637" y="4" on="0"/>
        <pt x="634" y="1" on="0"/>
        <pt x="631" y="1" on="0"/>
        <pt x="627" y="0" on="0"/>
        <pt x="624" y="0" on="1"/>
        <pt x="611" y="0" on="0"/>
        <pt x="541" y="2" on="0"/>
        <pt x="514" y="2" on="1"/>
        <pt x="488" y="2" on="0"/>
        <pt x="413" y="1" on="0"/>
        <pt x="398" y="1" on="1"/>
        <pt x="384" y="1" on="0"/>
        <pt x="382" y="7" on="1"/>
        <pt x="380" y="10" on="0"/>
        <pt x="383" y="23" on="1"/>
        <pt x="387" y="40" on="0"/>
        <pt x="393" y="46" on="0"/>
        <pt x="406" y="46" on="1"/>
        <pt x="461" y="46" on="0"/>
        <pt x="472" y="63" on="1"/>
        <pt x="464" y="298" on="1"/>
        <pt x="457" y="533" on="0"/>
        <pt x="455" y="536" on="1"/>
        <pt x="455" y="537" on="1"/>
        <pt x="453" y="537" on="0"/>
        <pt x="335" y="317" on="1"/>
        <pt x="225" y="112" on="0"/>
        <pt x="214" y="90" on="1"/>
        <pt x="211" y="80" on="0"/>
        <pt x="211" y="75" on="1"/>
        <pt x="211" y="53" on="0"/>
        <pt x="244" y="47" on="1"/>
        <pt x="246" y="47" on="0"/>
        <pt x="256" y="46" on="0"/>
        <pt x="258" y="46" on="1"/>
        <pt x="264" y="46" on="0"/>
        <pt x="267" y="43" on="1"/>
        <pt x="273" y="39" on="0"/>
        <pt x="268" y="19" on="1"/>
        <pt x="264" y="6" on="0"/>
        <pt x="258" y="0" on="1"/>
        <pt x="247" y="0" on="1"/>
        <pt x="185" y="2" on="0"/>
        <pt x="143" y="2" on="1"/>
        <pt x="81" y="2" on="0"/>
      </contour>
    </TTGlyph>
    <TTGlyph name="M" xMin="58" yMin="0" xMax="1010" yMax="683">
      <contour>
        <pt x="72" y="1" on="1"/>
        <pt x="58" y="1" on="0"/>
        <pt x="58" y="11" on="1"/>
        <pt x="58" y="15" on="0"/>
        <pt x="65" y="40" on="0"/>
        <pt x="66" y="41" on="1"/>
        <pt x="68" y="46" on="0"/>
        <pt x="87" y="46" on="1"/>
        <pt x="151" y="49" on="0"/>
        <pt x="168" y="84" on="1"/>
        <pt x="172" y="91" on="0"/>
        <pt x="304" y="621" on="0"/>
        <pt x="304" y="626" on="1"/>
        <pt x="304" y="627" on="0"/>
        <pt x="304" y="629" on="1"/>
        <pt x="303" y="631" on="1"/>
        <pt x="297" y="637" on="0"/>
        <pt x="242" y="637" on="1"/>
        <pt x="224" y="637" on="1"/>
        <pt x="218" y="642" on="0"/>
        <pt x="216" y="649" on="0"/>
        <pt x="220" y="664" on="1"/>
        <pt x="224" y="677" on="0"/>
        <pt x="230" y="683" on="1"/>
        <pt x="326" y="683" on="1"/>
        <pt x="422" y="683" on="0"/>
        <pt x="425" y="681" on="1"/>
        <pt x="428" y="678" on="0"/>
        <pt x="429" y="676" on="1"/>
        <pt x="480" y="127" on="1"/>
        <pt x="480" y="124" on="0"/>
        <pt x="642" y="399" on="0"/>
        <pt x="724" y="538" on="1"/>
        <pt x="805" y="676" on="1"/>
        <pt x="806" y="677" on="0"/>
        <pt x="816" y="682" on="0"/>
        <pt x="817" y="683" on="1"/>
        <pt x="1003" y="683" on="1"/>
        <pt x="1010" y="676" on="0"/>
        <pt x="1010" y="672" on="1"/>
        <pt x="1010" y="664" on="0"/>
        <pt x="1000" y="640" on="0"/>
        <pt x="997" y="637" on="1"/>
        <pt x="979" y="637" on="1"/>
        <pt x="954" y="637" on="0"/>
        <pt x="945" y="636" on="1"/>
        <pt x="912" y="633" on="0"/>
        <pt x="906" y="623" on="1"/>
        <pt x="903" y="618" on="0"/>
        <pt x="764" y="62" on="0"/>
        <pt x="764" y="57" on="1"/>
        <pt x="764" y="51" on="0"/>
        <pt x="768" y="50" on="1"/>
        <pt x="777" y="47" on="0"/>
        <pt x="817" y="46" on="1"/>
        <pt x="845" y="46" on="1"/>
        <pt x="850" y="39" on="0"/>
        <pt x="851" y="36" on="0"/>
        <pt x="848" y="19" on="1"/>
        <pt x="845" y="7" on="0"/>
        <pt x="838" y="0" on="1"/>
        <pt x="824" y="0" on="1"/>
        <pt x="789" y="2" on="0"/>
        <pt x="701" y="2" on="1"/>
        <pt x="679" y="2" on="0"/>
        <pt x="602" y="1" on="0"/>
        <pt x="584" y="1" on="1"/>
        <pt x="572" y="1" on="0"/>
        <pt x="570" y="7" on="1"/>
        <pt x="568" y="10" on="0"/>
        <pt x="571" y="25" on="1"/>
        <pt x="576" y="42" on="0"/>
        <pt x="581" y="45" on="1"/>
        <pt x="586" y="46" on="1"/>
        <pt x="590" y="46" on="0"/>
        <pt x="604" y="46" on="0"/>
        <pt x="611" y="46" on="1"/>
        <pt x="646" y="47" on="0"/>
        <pt x="669" y="53" on="0"/>
        <pt x="674" y="62" on="1"/>
        <pt x="813" y="616" on="1"/>
        <pt x="453" y="8" on="0"/>
        <pt x="452" y="7" on="1"/>
        <pt x="446" y="0" on="0"/>
        <pt x="428" y="0" on="1"/>
        <pt x="409" y="0" on="0"/>
        <pt x="407" y="6" on="1"/>
        <pt x="405" y="10" on="0"/>
        <pt x="353" y="599" on="0"/>
        <pt x="351" y="604" on="1"/>
        <pt x="285" y="348" on="1"/>
        <pt x="220" y="83" on="0"/>
        <pt x="220" y="82" on="1"/>
        <pt x="220" y="50" on="0"/>
        <pt x="279" y="46" on="1"/>
        <pt x="295" y="46" on="1"/>
        <pt x="300" y="39" on="0"/>
        <pt x="301" y="36" on="0"/>
        <pt x="298" y="19" on="1"/>
        <pt x="295" y="7" on="0"/>
        <pt x="288" y="0" on="1"/>
        <pt x="275" y="0" on="1"/>
        <pt x="244" y="2" on="0"/>
        <pt x="171" y="2" on="1"/>
        <pt x="152" y="2" on="0"/>
        <pt x="87" y="1" on="0"/>
      </contour>
    </TTGlyph>
    <TTGlyph name="N" xMin="54" yMin="0" xMax="860" yMax="683">
      <contour>
        <pt x="61" y="0" on="1"/>
        <pt x="54" y="7" on="0"/>
        <pt x="54" y="15" on="0"/>
        <pt x="57" y="27" on="1"/>
        <pt x="61" y="41" on="0"/>
        <pt x="68" y="46" on="0"/>
        <pt x="83" y="46" on="1"/>
        <pt x="147" y="49" on="0"/>
        <pt x="164" y="84" on="1"/>
        <pt x="168" y="92" on="0"/>
        <pt x="303" y="634" on="1"/>
        <pt x="300" y="635" on="0"/>
        <pt x="253" y="637" on="1"/>
        <pt x="220" y="637" on="1"/>
        <pt x="214" y="643" on="0"/>
        <pt x="213" y="647" on="0"/>
        <pt x="216" y="664" on="1"/>
        <pt x="220" y="677" on="0"/>
        <pt x="226" y="683" on="1"/>
        <pt x="314" y="683" on="1"/>
        <pt x="386" y="683" on="0"/>
        <pt x="408" y="682" on="0"/>
        <pt x="410" y="677" on="1"/>
        <pt x="412" y="675" on="0"/>
        <pt x="501" y="428" on="1"/>
        <pt x="591" y="179" on="1"/>
        <pt x="591" y="178" on="0"/>
        <pt x="593" y="182" on="0"/>
        <pt x="597" y="196" on="0"/>
        <pt x="604" y="222" on="0"/>
        <pt x="616" y="270" on="0"/>
        <pt x="633" y="336" on="0"/>
        <pt x="645" y="385" on="1"/>
        <pt x="698" y="595" on="0"/>
        <pt x="698" y="606" on="1"/>
        <pt x="698" y="637" on="0"/>
        <pt x="633" y="637" on="1"/>
        <pt x="624" y="637" on="0"/>
        <pt x="620" y="640" on="1"/>
        <pt x="616" y="645" on="0"/>
        <pt x="620" y="664" on="1"/>
        <pt x="624" y="677" on="0"/>
        <pt x="630" y="683" on="1"/>
        <pt x="641" y="683" on="1"/>
        <pt x="682" y="680" on="0"/>
        <pt x="736" y="680" on="1"/>
        <pt x="746" y="680" on="0"/>
        <pt x="782" y="681" on="0"/>
        <pt x="790" y="681" on="1"/>
        <pt x="800" y="681" on="0"/>
        <pt x="828" y="682" on="0"/>
        <pt x="843" y="683" on="0"/>
        <pt x="845" y="683" on="1"/>
        <pt x="853" y="683" on="1"/>
        <pt x="860" y="676" on="0"/>
        <pt x="860" y="672" on="1"/>
        <pt x="860" y="664" on="0"/>
        <pt x="851" y="640" on="0"/>
        <pt x="848" y="637" on="1"/>
        <pt x="832" y="637" on="1"/>
        <pt x="796" y="636" on="0"/>
        <pt x="776" y="624" on="1"/>
        <pt x="756" y="614" on="0"/>
        <pt x="750" y="598" on="1"/>
        <pt x="746" y="590" on="0"/>
        <pt x="673" y="300" on="1"/>
        <pt x="656" y="230" on="0"/>
        <pt x="619" y="82" on="0"/>
        <pt x="610" y="44" on="1"/>
        <pt x="600" y="7" on="1"/>
        <pt x="598" y="0" on="0"/>
        <pt x="576" y="0" on="1"/>
        <pt x="559" y="0" on="1"/>
        <pt x="552" y="7" on="0"/>
        <pt x="500" y="151" on="1"/>
        <pt x="470" y="237" on="0"/>
        <pt x="448" y="297" on="1"/>
        <pt x="342" y="588" on="1"/>
        <pt x="341" y="588" on="0"/>
        <pt x="216" y="84" on="0"/>
        <pt x="216" y="81" on="1"/>
        <pt x="216" y="50" on="0"/>
        <pt x="274" y="46" on="1"/>
        <pt x="293" y="46" on="0"/>
        <pt x="295" y="40" on="1"/>
        <pt x="297" y="37" on="0"/>
        <pt x="294" y="21" on="1"/>
        <pt x="293" y="19" on="0"/>
        <pt x="291" y="12" on="0"/>
        <pt x="291" y="9" on="0"/>
        <pt x="289" y="5" on="0"/>
        <pt x="288" y="3" on="0"/>
        <pt x="285" y="1" on="0"/>
        <pt x="282" y="1" on="0"/>
        <pt x="278" y="0" on="0"/>
        <pt x="275" y="0" on="1"/>
        <pt x="259" y="0" on="0"/>
        <pt x="187" y="2" on="0"/>
        <pt x="167" y="2" on="1"/>
        <pt x="91" y="2" on="0"/>
        <pt x="70" y="0" on="1"/>
      </contour>
    </TTGlyph>
    <TTGlyph name="O" xMin="149" yMin="-22" xMax="788" yMax="704">
      <contour>
        <pt x="540" y="704" on="1"/>
        <pt x="552" y="704" on="1"/>
        <pt x="581" y="704" on="0"/>
        <pt x="595" y="702" on="1"/>
        <pt x="683" y="689" on="0"/>
        <pt x="788" y="548" on="0"/>
        <pt x="788" y="444" on="1"/>
        <pt x="788" y="372" on="0"/>
        <pt x="762" y="298" on="1"/>
        <pt x="725" y="187" on="0"/>
        <pt x="639" y="100" on="1"/>
        <pt x="561" y="23" on="0"/>
        <pt x="471" y="-6" on="1"/>
        <pt x="424" y="-22" on="0"/>
        <pt x="377" y="-22" on="1"/>
        <pt x="284" y="-22" on="0"/>
        <pt x="221" y="41" on="1"/>
        <pt x="149" y="113" on="0"/>
        <pt x="149" y="237" on="1"/>
        <pt x="149" y="362" on="0"/>
        <pt x="282" y="583" on="0"/>
        <pt x="376" y="644" on="1"/>
        <pt x="455" y="696" on="0"/>
      </contour>
      <contour>
        <pt x="688" y="487" on="1"/>
        <pt x="688" y="566" on="0"/>
        <pt x="615" y="665" on="0"/>
        <pt x="548" y="665" on="1"/>
        <pt x="532" y="665" on="0"/>
        <pt x="510" y="660" on="1"/>
        <pt x="454" y="646" on="0"/>
        <pt x="353" y="551" on="0"/>
        <pt x="319" y="481" on="1"/>
        <pt x="271" y="382" on="0"/>
        <pt x="255" y="254" on="1"/>
        <pt x="253" y="232" on="0"/>
        <pt x="253" y="203" on="1"/>
        <pt x="253" y="128" on="0"/>
        <pt x="311" y="32" on="0"/>
        <pt x="363" y="21" on="1"/>
        <pt x="369" y="20" on="0"/>
        <pt x="387" y="20" on="1"/>
        <pt x="409" y="20" on="0"/>
        <pt x="417" y="22" on="1"/>
        <pt x="481" y="36" on="0"/>
        <pt x="537" y="92" on="1"/>
        <pt x="608" y="163" on="0"/>
        <pt x="648" y="280" on="1"/>
        <pt x="679" y="373" on="0"/>
        <pt x="687" y="451" on="1"/>
        <pt x="688" y="459" on="0"/>
      </contour>
    </TTGlyph>
    <TTGlyph name="OE" xMin="162" yMin="-21" xMax="1051" yMax="705">
      <contour>
        <pt x="922" y="495" on="1"/>
        <pt x="927" y="490" on="0"/>
        <pt x="929" y="486" on="1"/>
        <pt x="929" y="479" on="0"/>
        <pt x="864" y="222" on="0"/>
        <pt x="862" y="220" on="1"/>
        <pt x="860" y="215" on="0"/>
        <pt x="822" y="215" on="0"/>
        <pt x="820" y="222" on="1"/>
        <pt x="818" y="225" on="0"/>
        <pt x="821" y="240" on="1"/>
        <pt x="829" y="275" on="0"/>
        <pt x="829" y="291" on="1"/>
        <pt x="829" y="316" on="0"/>
        <pt x="813" y="323" on="1"/>
        <pt x="796" y="332" on="0"/>
        <pt x="718" y="332" on="1"/>
        <pt x="669" y="332" on="1"/>
        <pt x="635" y="193" on="1"/>
        <pt x="600" y="51" on="1"/>
        <pt x="600" y="47" on="0"/>
        <pt x="665" y="46" on="1"/>
        <pt x="755" y="46" on="0"/>
        <pt x="789" y="55" on="1"/>
        <pt x="847" y="70" on="0"/>
        <pt x="878" y="111" on="1"/>
        <pt x="908" y="152" on="0"/>
        <pt x="942" y="239" on="1"/>
        <pt x="954" y="270" on="0"/>
        <pt x="962" y="274" on="0"/>
        <pt x="976" y="274" on="1"/>
        <pt x="989" y="274" on="0"/>
        <pt x="993" y="272" on="1"/>
        <pt x="999" y="266" on="0"/>
        <pt x="999" y="262" on="1"/>
        <pt x="900" y="8" on="0"/>
        <pt x="894" y="2" on="1"/>
        <pt x="890" y="0" on="0"/>
        <pt x="707" y="0" on="1"/>
        <pt x="542" y="-1" on="0"/>
        <pt x="508" y="-2" on="0"/>
        <pt x="466" y="-11" on="1"/>
        <pt x="422" y="-21" on="0"/>
        <pt x="391" y="-21" on="1"/>
        <pt x="364" y="-21" on="0"/>
        <pt x="340" y="-16" on="1"/>
        <pt x="260" y="1" on="0"/>
        <pt x="162" y="139" on="0"/>
        <pt x="162" y="237" on="1"/>
        <pt x="162" y="361" on="0"/>
        <pt x="294" y="579" on="0"/>
        <pt x="388" y="643" on="1"/>
        <pt x="463" y="693" on="0"/>
        <pt x="542" y="703" on="1"/>
        <pt x="547" y="704" on="0"/>
        <pt x="555" y="704" on="1"/>
        <pt x="558" y="704" on="1"/>
        <pt x="561" y="705" on="0"/>
        <pt x="565" y="705" on="0"/>
        <pt x="574" y="704" on="0"/>
        <pt x="577" y="704" on="1"/>
        <pt x="603" y="704" on="0"/>
        <pt x="644" y="694" on="1"/>
        <pt x="649" y="693" on="0"/>
        <pt x="667" y="689" on="0"/>
        <pt x="678" y="686" on="0"/>
        <pt x="681" y="686" on="1"/>
        <pt x="694" y="684" on="1"/>
        <pt x="869" y="683" on="1"/>
        <pt x="1045" y="683" on="1"/>
        <pt x="1048" y="680" on="0"/>
        <pt x="1051" y="673" on="1"/>
        <pt x="1051" y="668" on="0"/>
        <pt x="1021" y="450" on="0"/>
        <pt x="1020" y="448" on="1"/>
        <pt x="1016" y="443" on="0"/>
        <pt x="998" y="443" on="1"/>
        <pt x="979" y="443" on="0"/>
        <pt x="977" y="449" on="1"/>
        <pt x="975" y="452" on="0"/>
        <pt x="977" y="471" on="1"/>
        <pt x="983" y="517" on="0"/>
        <pt x="983" y="544" on="1"/>
        <pt x="983" y="559" on="1"/>
        <pt x="983" y="582" on="0"/>
        <pt x="966" y="612" on="0"/>
        <pt x="944" y="628" on="0"/>
        <pt x="894" y="636" on="0"/>
        <pt x="859" y="637" on="0"/>
        <pt x="823" y="637" on="1"/>
        <pt x="810" y="637" on="0"/>
        <pt x="781" y="636" on="0"/>
        <pt x="761" y="636" on="0"/>
        <pt x="760" y="636" on="1"/>
        <pt x="748" y="635" on="0"/>
        <pt x="744" y="627" on="1"/>
        <pt x="743" y="624" on="0"/>
        <pt x="712" y="501" on="0"/>
        <pt x="696" y="440" on="1"/>
        <pt x="681" y="380" on="1"/>
        <pt x="681" y="378" on="0"/>
        <pt x="735" y="378" on="1"/>
        <pt x="796" y="380" on="0"/>
        <pt x="797" y="380" on="1"/>
        <pt x="837" y="387" on="0"/>
        <pt x="867" y="426" on="0"/>
        <pt x="880" y="474" on="1"/>
        <pt x="883" y="488" on="0"/>
        <pt x="890" y="495" on="1"/>
      </contour>
      <contour>
        <pt x="640" y="605" on="1"/>
        <pt x="640" y="639" on="0"/>
        <pt x="606" y="668" on="0"/>
        <pt x="567" y="668" on="1"/>
        <pt x="550" y="668" on="0"/>
        <pt x="530" y="663" on="1"/>
        <pt x="462" y="646" on="0"/>
        <pt x="398" y="575" on="1"/>
        <pt x="292" y="454" on="0"/>
        <pt x="271" y="274" on="1"/>
        <pt x="269" y="260" on="0"/>
        <pt x="269" y="219" on="1"/>
        <pt x="269" y="123" on="0"/>
        <pt x="307" y="68" on="1"/>
        <pt x="340" y="16" on="0"/>
        <pt x="402" y="16" on="1"/>
        <pt x="459" y="16" on="0"/>
        <pt x="489" y="46" on="1"/>
        <pt x="514" y="74" on="0"/>
        <pt x="539" y="163" on="1"/>
        <pt x="545" y="181" on="0"/>
        <pt x="625" y="501" on="0"/>
        <pt x="629" y="521" on="1"/>
        <pt x="640" y="576" on="0"/>
      </contour>
    </TTGlyph>
    <TTGlyph name="Omega" xMin="100" yMin="0" xMax="759" yMax="705">
      <contour>
        <pt x="146" y="172" on="1"/>
        <pt x="150" y="169" on="0"/>
        <pt x="153" y="165" on="1"/>
        <pt x="152" y="141" on="1"/>
        <pt x="152" y="116" on="1"/>
        <pt x="152" y="84" on="0"/>
        <pt x="153" y="82" on="1"/>
        <pt x="156" y="75" on="0"/>
        <pt x="217" y="75" on="1"/>
        <pt x="252" y="75" on="1"/>
        <pt x="252" y="84" on="1"/>
        <pt x="252" y="111" on="0"/>
        <pt x="230" y="195" on="0"/>
        <pt x="199" y="292" on="0"/>
        <pt x="194" y="311" on="1"/>
        <pt x="183" y="355" on="0"/>
        <pt x="183" y="393" on="1"/>
        <pt x="183" y="513" on="0"/>
        <pt x="376" y="691" on="0"/>
        <pt x="496" y="703" on="1"/>
        <pt x="502" y="704" on="0"/>
        <pt x="510" y="704" on="1"/>
        <pt x="513" y="705" on="0"/>
        <pt x="525" y="705" on="1"/>
        <pt x="618" y="705" on="0"/>
        <pt x="739" y="622" on="0"/>
        <pt x="756" y="546" on="1"/>
        <pt x="759" y="531" on="0"/>
        <pt x="759" y="505" on="1"/>
        <pt x="759" y="489" on="0"/>
        <pt x="758" y="483" on="1"/>
        <pt x="749" y="403" on="0"/>
        <pt x="676" y="306" on="1"/>
        <pt x="660" y="284" on="0"/>
        <pt x="613" y="227" on="1"/>
        <pt x="551" y="154" on="0"/>
        <pt x="527" y="117" on="1"/>
        <pt x="503" y="81" on="0"/>
        <pt x="503" y="76" on="1"/>
        <pt x="503" y="75" on="0"/>
        <pt x="521" y="75" on="1"/>
        <pt x="555" y="75" on="1"/>
        <pt x="598" y="75" on="0"/>
        <pt x="606" y="87" on="1"/>
        <pt x="615" y="102" on="0"/>
        <pt x="636" y="147" on="1"/>
        <pt x="646" y="169" on="0"/>
        <pt x="649" y="170" on="1"/>
        <pt x="651" y="172" on="0"/>
        <pt x="667" y="172" on="1"/>
        <pt x="682" y="172" on="1"/>
        <pt x="689" y="167" on="0"/>
        <pt x="689" y="162" on="1"/>
        <pt x="689" y="158" on="0"/>
        <pt x="619" y="3" on="0"/>
        <pt x="617" y="2" on="1"/>
        <pt x="614" y="0" on="0"/>
        <pt x="530" y="0" on="1"/>
        <pt x="447" y="0" on="1"/>
        <pt x="441" y="5" on="0"/>
        <pt x="440" y="13" on="0"/>
        <pt x="444" y="28" on="1"/>
        <pt x="467" y="104" on="0"/>
        <pt x="542" y="236" on="1"/>
        <pt x="591" y="323" on="0"/>
        <pt x="612" y="369" on="1"/>
        <pt x="654" y="460" on="0"/>
        <pt x="654" y="534" on="1"/>
        <pt x="654" y="595" on="0"/>
        <pt x="587" y="668" on="0"/>
        <pt x="527" y="668" on="1"/>
        <pt x="512" y="668" on="0"/>
        <pt x="500" y="666" on="1"/>
        <pt x="443" y="655" on="0"/>
        <pt x="399" y="618" on="1"/>
        <pt x="286" y="526" on="0"/>
        <pt x="286" y="330" on="1"/>
        <pt x="286" y="301" on="0"/>
        <pt x="294" y="170" on="0"/>
        <pt x="294" y="137" on="1"/>
        <pt x="294" y="85" on="0"/>
        <pt x="293" y="72" on="1"/>
        <pt x="288" y="21" on="0"/>
        <pt x="280" y="6" on="1"/>
        <pt x="278" y="1" on="0"/>
        <pt x="257" y="0" on="0"/>
        <pt x="190" y="0" on="1"/>
        <pt x="107" y="0" on="1"/>
        <pt x="100" y="5" on="0"/>
        <pt x="100" y="12" on="1"/>
        <pt x="100" y="24" on="0"/>
        <pt x="107" y="164" on="0"/>
        <pt x="108" y="165" on="1"/>
        <pt x="110" y="172" on="0"/>
        <pt x="131" y="172" on="1"/>
      </contour>
    </TTGlyph>
    <TTGlyph name="Oslash" xMin="132" yMin="-64" xMax="806" yMax="747">
      <contour>
        <pt x="209" y="54" on="1"/>
        <pt x="148" y="127" on="0"/>
        <pt x="148" y="236" on="1"/>
        <pt x="148" y="361" on="0"/>
        <pt x="282" y="582" on="0"/>
        <pt x="376" y="644" on="1"/>
        <pt x="448" y="691" on="0"/>
        <pt x="525" y="703" on="1"/>
        <pt x="533" y="704" on="0"/>
        <pt x="560" y="704" on="1"/>
        <pt x="638" y="704" on="0"/>
        <pt x="692" y="662" on="1"/>
        <pt x="701" y="656" on="0"/>
        <pt x="702" y="657" on="1"/>
        <pt x="706" y="661" on="0"/>
        <pt x="772" y="742" on="0"/>
        <pt x="776" y="746" on="1"/>
        <pt x="777" y="747" on="0"/>
        <pt x="780" y="747" on="1"/>
        <pt x="786" y="747" on="0"/>
        <pt x="806" y="732" on="0"/>
        <pt x="806" y="727" on="1"/>
        <pt x="806" y="726" on="0"/>
        <pt x="804" y="722" on="1"/>
        <pt x="729" y="630" on="0"/>
        <pt x="729" y="629" on="1"/>
        <pt x="728" y="629" on="0"/>
        <pt x="732" y="624" on="0"/>
        <pt x="735" y="620" on="1"/>
        <pt x="788" y="549" on="0"/>
        <pt x="788" y="442" on="1"/>
        <pt x="788" y="421" on="0"/>
        <pt x="787" y="414" on="1"/>
        <pt x="778" y="290" on="0"/>
        <pt x="703" y="180" on="1"/>
        <pt x="622" y="57" on="0"/>
        <pt x="499" y="4" on="1"/>
        <pt x="442" y="-21" on="0"/>
        <pt x="378" y="-21" on="1"/>
        <pt x="300" y="-21" on="0"/>
        <pt x="242" y="23" on="1"/>
        <pt x="236" y="27" on="1"/>
        <pt x="200" y="-18" on="1"/>
        <pt x="162" y="-63" on="1"/>
        <pt x="160" y="-64" on="0"/>
        <pt x="158" y="-64" on="1"/>
        <pt x="155" y="-64" on="0"/>
        <pt x="136" y="-53" on="0"/>
        <pt x="133" y="-50" on="1"/>
        <pt x="132" y="-48" on="1"/>
        <pt x="132" y="-47" on="0"/>
        <pt x="132" y="-46" on="1"/>
        <pt x="132" y="-43" on="0"/>
        <pt x="134" y="-39" on="1"/>
        <pt x="137" y="-36" on="0"/>
        <pt x="206" y="50" on="0"/>
      </contour>
      <contour>
        <pt x="666" y="614" on="1"/>
        <pt x="617" y="668" on="0"/>
        <pt x="548" y="668" on="1"/>
        <pt x="544" y="668" on="0"/>
        <pt x="532" y="667" on="0"/>
        <pt x="530" y="667" on="1"/>
        <pt x="449" y="658" on="0"/>
        <pt x="379" y="589" on="1"/>
        <pt x="317" y="525" on="0"/>
        <pt x="281" y="421" on="1"/>
        <pt x="249" y="323" on="0"/>
        <pt x="237" y="234" on="1"/>
        <pt x="236" y="224" on="0"/>
        <pt x="236" y="192" on="1"/>
        <pt x="236" y="161" on="0"/>
        <pt x="237" y="153" on="1"/>
        <pt x="243" y="122" on="0"/>
        <pt x="250" y="104" on="1"/>
        <pt x="324" y="193" on="0"/>
        <pt x="532" y="448" on="0"/>
        <pt x="599" y="531" on="1"/>
      </contour>
      <contour>
        <pt x="702" y="489" on="1"/>
        <pt x="702" y="533" on="0"/>
        <pt x="691" y="566" on="1"/>
        <pt x="690" y="568" on="0"/>
        <pt x="689" y="573" on="0"/>
        <pt x="688" y="575" on="1"/>
        <pt x="687" y="577" on="1"/>
        <pt x="688" y="578" on="1"/>
        <pt x="688" y="579" on="0"/>
        <pt x="480" y="324" on="0"/>
        <pt x="376" y="196" on="1"/>
        <pt x="271" y="69" on="1"/>
        <pt x="270" y="68" on="0"/>
        <pt x="295" y="45" on="0"/>
        <pt x="303" y="39" on="1"/>
        <pt x="339" y="15" on="0"/>
        <pt x="435" y="15" on="0"/>
        <pt x="483" y="39" on="1"/>
        <pt x="586" y="90" on="0"/>
        <pt x="639" y="216" on="1"/>
        <pt x="684" y="322" on="0"/>
        <pt x="700" y="446" on="1"/>
        <pt x="702" y="466" on="0"/>
      </contour>
    </TTGlyph>
    <TTGlyph name="P" xMin="55" yMin="0" xMax="729" yMax="683">
      <contour>
        <pt x="62" y="0" on="1"/>
        <pt x="55" y="7" on="0"/>
        <pt x="55" y="11" on="1"/>
        <pt x="55" y="27" on="0"/>
        <pt x="62" y="41" on="1"/>
        <pt x="66" y="46" on="0"/>
        <pt x="96" y="46" on="1"/>
        <pt x="132" y="47" on="0"/>
        <pt x="155" y="53" on="0"/>
        <pt x="160" y="62" on="1"/>
        <pt x="162" y="66" on="0"/>
        <pt x="301" y="622" on="0"/>
        <pt x="301" y="626" on="1"/>
        <pt x="301" y="627" on="0"/>
        <pt x="300" y="629" on="1"/>
        <pt x="300" y="631" on="1"/>
        <pt x="294" y="637" on="0"/>
        <pt x="239" y="637" on="1"/>
        <pt x="221" y="637" on="1"/>
        <pt x="215" y="642" on="0"/>
        <pt x="213" y="649" on="0"/>
        <pt x="217" y="664" on="1"/>
        <pt x="221" y="677" on="0"/>
        <pt x="227" y="683" on="1"/>
        <pt x="404" y="683" on="1"/>
        <pt x="581" y="682" on="0"/>
        <pt x="592" y="680" on="1"/>
        <pt x="678" y="665" on="0"/>
        <pt x="712" y="599" on="1"/>
        <pt x="729" y="567" on="0"/>
        <pt x="729" y="531" on="1"/>
        <pt x="729" y="494" on="0"/>
        <pt x="709" y="452" on="1"/>
        <pt x="684" y="401" on="0"/>
        <pt x="585" y="323" on="0"/>
        <pt x="524" y="308" on="1"/>
        <pt x="499" y="302" on="0"/>
        <pt x="404" y="301" on="1"/>
        <pt x="318" y="301" on="1"/>
        <pt x="288" y="182" on="1"/>
        <pt x="258" y="63" on="0"/>
        <pt x="258" y="55" on="1"/>
        <pt x="258" y="53" on="0"/>
        <pt x="261" y="50" on="0"/>
        <pt x="266" y="48" on="0"/>
        <pt x="273" y="47" on="0"/>
        <pt x="283" y="47" on="0"/>
        <pt x="292" y="46" on="0"/>
        <pt x="305" y="46" on="0"/>
        <pt x="310" y="46" on="1"/>
        <pt x="341" y="46" on="0"/>
        <pt x="343" y="40" on="1"/>
        <pt x="345" y="37" on="0"/>
        <pt x="342" y="21" on="1"/>
        <pt x="337" y="3" on="0"/>
        <pt x="333" y="1" on="1"/>
        <pt x="330" y="0" on="0"/>
        <pt x="321" y="0" on="1"/>
        <pt x="301" y="0" on="0"/>
        <pt x="215" y="2" on="0"/>
        <pt x="190" y="2" on="1"/>
        <pt x="97" y="2" on="0"/>
        <pt x="72" y="0" on="1"/>
      </contour>
      <contour>
        <pt x="552" y="635" on="1"/>
        <pt x="546" y="636" on="0"/>
        <pt x="481" y="637" on="1"/>
        <pt x="466" y="637" on="0"/>
        <pt x="433" y="636" on="0"/>
        <pt x="413" y="636" on="0"/>
        <pt x="412" y="636" on="1"/>
        <pt x="402" y="635" on="0"/>
        <pt x="397" y="627" on="1"/>
        <pt x="396" y="625" on="0"/>
        <pt x="361" y="484" on="0"/>
        <pt x="343" y="414" on="1"/>
        <pt x="325" y="344" on="1"/>
        <pt x="325" y="342" on="0"/>
        <pt x="390" y="342" on="1"/>
        <pt x="459" y="342" on="0"/>
        <pt x="466" y="343" on="1"/>
        <pt x="530" y="349" on="0"/>
        <pt x="567" y="386" on="1"/>
        <pt x="596" y="415" on="0"/>
        <pt x="613" y="486" on="1"/>
        <pt x="625" y="531" on="0"/>
        <pt x="626" y="555" on="1"/>
        <pt x="626" y="573" on="0"/>
        <pt x="625" y="579" on="1"/>
        <pt x="614" y="623" on="0"/>
      </contour>
    </TTGlyph>
    <TTGlyph name="Phi" xMin="159" yMin="0" xMax="728" yMax="683">
      <contour>
        <pt x="467" y="624" on="1"/>
        <pt x="467" y="632" on="0"/>
        <pt x="441" y="636" on="0"/>
        <pt x="400" y="637" on="1"/>
        <pt x="361" y="637" on="0"/>
        <pt x="359" y="643" on="1"/>
        <pt x="357" y="646" on="0"/>
        <pt x="360" y="662" on="1"/>
        <pt x="365" y="679" on="0"/>
        <pt x="369" y="682" on="1"/>
        <pt x="371" y="683" on="0"/>
        <pt x="387" y="683" on="1"/>
        <pt x="430" y="681" on="0"/>
        <pt x="532" y="681" on="1"/>
        <pt x="558" y="681" on="0"/>
        <pt x="651" y="683" on="0"/>
        <pt x="672" y="683" on="1"/>
        <pt x="689" y="683" on="0"/>
        <pt x="689" y="672" on="1"/>
        <pt x="689" y="670" on="0"/>
        <pt x="682" y="645" on="0"/>
        <pt x="681" y="643" on="1"/>
        <pt x="679" y="637" on="0"/>
        <pt x="640" y="637" on="1"/>
        <pt x="581" y="636" on="0"/>
        <pt x="570" y="630" on="1"/>
        <pt x="562" y="626" on="0"/>
        <pt x="558" y="617" on="1"/>
        <pt x="556" y="613" on="0"/>
        <pt x="538" y="537" on="0"/>
        <pt x="538" y="533" on="1"/>
        <pt x="538" y="532" on="0"/>
        <pt x="541" y="532" on="1"/>
        <pt x="552" y="532" on="0"/>
        <pt x="584" y="524" on="1"/>
        <pt x="680" y="498" on="0"/>
        <pt x="714" y="431" on="1"/>
        <pt x="728" y="404" on="0"/>
        <pt x="728" y="374" on="1"/>
        <pt x="728" y="352" on="0"/>
        <pt x="721" y="331" on="1"/>
        <pt x="708" y="291" on="0"/>
        <pt x="673" y="256" on="1"/>
        <pt x="608" y="188" on="0"/>
        <pt x="498" y="160" on="1"/>
        <pt x="453" y="151" on="0"/>
        <pt x="445" y="151" on="1"/>
        <pt x="443" y="151" on="0"/>
        <pt x="441" y="149" on="1"/>
        <pt x="440" y="146" on="0"/>
        <pt x="419" y="61" on="0"/>
        <pt x="419" y="59" on="1"/>
        <pt x="419" y="51" on="0"/>
        <pt x="432" y="50" on="1"/>
        <pt x="454" y="46" on="0"/>
        <pt x="500" y="46" on="1"/>
        <pt x="526" y="46" on="0"/>
        <pt x="529" y="39" on="1"/>
        <pt x="530" y="35" on="0"/>
        <pt x="527" y="22" on="1"/>
        <pt x="523" y="4" on="0"/>
        <pt x="518" y="1" on="1"/>
        <pt x="517" y="1" on="0"/>
        <pt x="513" y="0" on="0"/>
        <pt x="510" y="0" on="1"/>
        <pt x="487" y="0" on="0"/>
        <pt x="384" y="2" on="0"/>
        <pt x="355" y="2" on="1"/>
        <pt x="248" y="2" on="0"/>
        <pt x="218" y="0" on="1"/>
        <pt x="205" y="0" on="1"/>
        <pt x="199" y="6" on="0"/>
        <pt x="198" y="11" on="0"/>
        <pt x="201" y="27" on="1"/>
        <pt x="205" y="40" on="0"/>
        <pt x="211" y="46" on="1"/>
        <pt x="234" y="46" on="1"/>
        <pt x="300" y="46" on="0"/>
        <pt x="313" y="52" on="1"/>
        <pt x="323" y="54" on="0"/>
        <pt x="326" y="62" on="1"/>
        <pt x="329" y="65" on="0"/>
        <pt x="339" y="107" on="1"/>
        <pt x="340" y="110" on="0"/>
        <pt x="342" y="119" on="0"/>
        <pt x="344" y="125" on="0"/>
        <pt x="345" y="133" on="0"/>
        <pt x="346" y="137" on="0"/>
        <pt x="348" y="143" on="0"/>
        <pt x="348" y="145" on="0"/>
        <pt x="348" y="147" on="1"/>
        <pt x="349" y="149" on="1"/>
        <pt x="349" y="150" on="1"/>
        <pt x="349" y="151" on="0"/>
        <pt x="346" y="151" on="1"/>
        <pt x="333" y="151" on="0"/>
        <pt x="303" y="159" on="1"/>
        <pt x="252" y="172" on="0"/>
        <pt x="178" y="231" on="0"/>
        <pt x="165" y="269" on="1"/>
        <pt x="159" y="287" on="0"/>
        <pt x="159" y="309" on="1"/>
        <pt x="159" y="326" on="0"/>
        <pt x="160" y="332" on="1"/>
        <pt x="176" y="412" on="0"/>
        <pt x="264" y="468" on="1"/>
        <pt x="336" y="520" on="0"/>
        <pt x="435" y="531" on="1"/>
        <pt x="446" y="533" on="1"/>
        <pt x="457" y="577" on="1"/>
        <pt x="467" y="620" on="0"/>
      </contour>
      <contour>
        <pt x="436" y="494" on="1"/>
        <pt x="436" y="495" on="0"/>
        <pt x="433" y="495" on="0"/>
        <pt x="426" y="493" on="0"/>
        <pt x="419" y="492" on="1"/>
        <pt x="358" y="479" on="0"/>
        <pt x="319" y="442" on="1"/>
        <pt x="301" y="422" on="0"/>
        <pt x="288" y="397" on="1"/>
        <pt x="260" y="341" on="0"/>
        <pt x="260" y="284" on="1"/>
        <pt x="260" y="240" on="0"/>
        <pt x="311" y="198" on="0"/>
        <pt x="359" y="188" on="1"/>
      </contour>
      <contour>
        <pt x="626" y="398" on="1"/>
        <pt x="626" y="474" on="0"/>
        <pt x="539" y="493" on="1"/>
        <pt x="528" y="495" on="1"/>
        <pt x="527" y="495" on="0"/>
        <pt x="450" y="189" on="0"/>
        <pt x="451" y="188" on="1"/>
        <pt x="457" y="188" on="0"/>
        <pt x="479" y="194" on="1"/>
        <pt x="565" y="215" on="0"/>
        <pt x="598" y="285" on="1"/>
        <pt x="626" y="341" on="0"/>
      </contour>
    </TTGlyph>
    <TTGlyph name="Pi" xMin="54" yMin="0" xMax="859" yMax="680">
      <contour>
        <pt x="61" y="0" on="1"/>
        <pt x="54" y="7" on="0"/>
        <pt x="54" y="11" on="1"/>
        <pt x="54" y="27" on="0"/>
        <pt x="61" y="41" on="1"/>
        <pt x="65" y="46" on="0"/>
        <pt x="95" y="46" on="1"/>
        <pt x="131" y="47" on="0"/>
        <pt x="154" y="53" on="0"/>
        <pt x="159" y="62" on="1"/>
        <pt x="194" y="200" on="1"/>
        <pt x="229" y="337" on="0"/>
        <pt x="299" y="617" on="0"/>
        <pt x="299" y="629" on="0"/>
        <pt x="295" y="630" on="1"/>
        <pt x="286" y="633" on="0"/>
        <pt x="248" y="634" on="1"/>
        <pt x="216" y="634" on="0"/>
        <pt x="214" y="640" on="1"/>
        <pt x="212" y="643" on="0"/>
        <pt x="215" y="659" on="1"/>
        <pt x="220" y="676" on="0"/>
        <pt x="224" y="678" on="1"/>
        <pt x="226" y="680" on="0"/>
        <pt x="539" y="680" on="1"/>
        <pt x="852" y="680" on="1"/>
        <pt x="859" y="673" on="0"/>
        <pt x="859" y="669" on="1"/>
        <pt x="859" y="653" on="0"/>
        <pt x="852" y="639" on="1"/>
        <pt x="848" y="634" on="0"/>
        <pt x="818" y="634" on="1"/>
        <pt x="782" y="633" on="0"/>
        <pt x="759" y="627" on="0"/>
        <pt x="754" y="618" on="1"/>
        <pt x="719" y="480" on="1"/>
        <pt x="684" y="343" on="0"/>
        <pt x="614" y="63" on="0"/>
        <pt x="614" y="57" on="1"/>
        <pt x="614" y="54" on="0"/>
        <pt x="617" y="50" on="0"/>
        <pt x="622" y="48" on="0"/>
        <pt x="628" y="47" on="0"/>
        <pt x="639" y="46" on="0"/>
        <pt x="647" y="46" on="0"/>
        <pt x="661" y="46" on="0"/>
        <pt x="666" y="46" on="1"/>
        <pt x="697" y="46" on="0"/>
        <pt x="699" y="40" on="1"/>
        <pt x="701" y="37" on="0"/>
        <pt x="698" y="21" on="1"/>
        <pt x="693" y="3" on="0"/>
        <pt x="689" y="1" on="1"/>
        <pt x="686" y="0" on="0"/>
        <pt x="677" y="0" on="1"/>
        <pt x="657" y="0" on="0"/>
        <pt x="571" y="2" on="0"/>
        <pt x="546" y="2" on="1"/>
        <pt x="453" y="2" on="0"/>
        <pt x="428" y="0" on="1"/>
        <pt x="418" y="0" on="1"/>
        <pt x="411" y="7" on="0"/>
        <pt x="411" y="11" on="1"/>
        <pt x="411" y="27" on="0"/>
        <pt x="418" y="41" on="1"/>
        <pt x="422" y="46" on="0"/>
        <pt x="452" y="46" on="1"/>
        <pt x="488" y="47" on="0"/>
        <pt x="511" y="53" on="0"/>
        <pt x="516" y="62" on="1"/>
        <pt x="518" y="67" on="0"/>
        <pt x="589" y="351" on="0"/>
        <pt x="659" y="631" on="0"/>
        <pt x="660" y="632" on="1"/>
        <pt x="660" y="634" on="0"/>
        <pt x="530" y="634" on="1"/>
        <pt x="400" y="634" on="1"/>
        <pt x="399" y="630" on="1"/>
        <pt x="399" y="629" on="0"/>
        <pt x="381" y="557" on="0"/>
        <pt x="344" y="410" on="0"/>
        <pt x="328" y="344" on="1"/>
        <pt x="257" y="60" on="0"/>
        <pt x="257" y="54" on="0"/>
        <pt x="260" y="50" on="0"/>
        <pt x="265" y="48" on="0"/>
        <pt x="271" y="47" on="0"/>
        <pt x="282" y="46" on="0"/>
        <pt x="290" y="46" on="0"/>
        <pt x="304" y="46" on="0"/>
        <pt x="309" y="46" on="1"/>
        <pt x="340" y="46" on="0"/>
        <pt x="342" y="40" on="1"/>
        <pt x="344" y="37" on="0"/>
        <pt x="341" y="21" on="1"/>
        <pt x="336" y="3" on="0"/>
        <pt x="332" y="1" on="1"/>
        <pt x="329" y="0" on="0"/>
        <pt x="320" y="0" on="1"/>
        <pt x="300" y="0" on="0"/>
        <pt x="214" y="2" on="0"/>
        <pt x="189" y="2" on="1"/>
        <pt x="96" y="2" on="0"/>
        <pt x="71" y="0" on="1"/>
      </contour>
    </TTGlyph>
    <TTGlyph name="Psi" xMin="207" yMin="0" xMax="824" yMax="683">
      <contour>
        <pt x="207" y="520" on="1"/>
        <pt x="207" y="535" on="0"/>
        <pt x="218" y="546" on="1"/>
        <pt x="257" y="546" on="1"/>
        <pt x="305" y="546" on="0"/>
        <pt x="314" y="540" on="1"/>
        <pt x="338" y="529" on="0"/>
        <pt x="338" y="485" on="1"/>
        <pt x="338" y="456" on="0"/>
        <pt x="327" y="408" on="1"/>
        <pt x="313" y="356" on="0"/>
        <pt x="313" y="312" on="1"/>
        <pt x="313" y="219" on="0"/>
        <pt x="379" y="193" on="1"/>
        <pt x="386" y="192" on="0"/>
        <pt x="387" y="192" on="1"/>
        <pt x="387" y="196" on="0"/>
        <pt x="441" y="408" on="1"/>
        <pt x="494" y="621" on="0"/>
        <pt x="494" y="626" on="1"/>
        <pt x="493" y="628" on="1"/>
        <pt x="492" y="630" on="0"/>
        <pt x="491" y="630" on="1"/>
        <pt x="485" y="636" on="0"/>
        <pt x="426" y="637" on="1"/>
        <pt x="387" y="637" on="0"/>
        <pt x="385" y="643" on="1"/>
        <pt x="383" y="646" on="0"/>
        <pt x="386" y="662" on="1"/>
        <pt x="391" y="679" on="0"/>
        <pt x="395" y="682" on="1"/>
        <pt x="397" y="683" on="0"/>
        <pt x="413" y="683" on="1"/>
        <pt x="456" y="681" on="0"/>
        <pt x="558" y="681" on="1"/>
        <pt x="584" y="681" on="0"/>
        <pt x="677" y="683" on="0"/>
        <pt x="698" y="683" on="1"/>
        <pt x="715" y="683" on="0"/>
        <pt x="715" y="672" on="1"/>
        <pt x="715" y="670" on="0"/>
        <pt x="708" y="645" on="0"/>
        <pt x="707" y="643" on="1"/>
        <pt x="705" y="637" on="0"/>
        <pt x="666" y="637" on="1"/>
        <pt x="607" y="636" on="0"/>
        <pt x="596" y="630" on="1"/>
        <pt x="588" y="626" on="0"/>
        <pt x="584" y="617" on="1"/>
        <pt x="478" y="193" on="1"/>
        <pt x="480" y="194" on="1"/>
        <pt x="481" y="194" on="0"/>
        <pt x="487" y="196" on="0"/>
        <pt x="489" y="197" on="1"/>
        <pt x="602" y="239" on="0"/>
        <pt x="646" y="415" on="1"/>
        <pt x="671" y="510" on="0"/>
        <pt x="708" y="535" on="1"/>
        <pt x="720" y="543" on="0"/>
        <pt x="741" y="546" on="0"/>
        <pt x="777" y="546" on="1"/>
        <pt x="808" y="546" on="1"/>
        <pt x="820" y="546" on="0"/>
        <pt x="823" y="539" on="1"/>
        <pt x="823" y="538" on="0"/>
        <pt x="824" y="536" on="1"/>
        <pt x="824" y="535" on="0"/>
        <pt x="823" y="531" on="1"/>
        <pt x="822" y="528" on="0"/>
        <pt x="822" y="525" on="1"/>
        <pt x="817" y="509" on="0"/>
        <pt x="809" y="509" on="1"/>
        <pt x="784" y="509" on="0"/>
        <pt x="765" y="480" on="1"/>
        <pt x="749" y="456" on="0"/>
        <pt x="735" y="406" on="1"/>
        <pt x="716" y="336" on="0"/>
        <pt x="681" y="283" on="1"/>
        <pt x="609" y="173" on="0"/>
        <pt x="481" y="153" on="1"/>
        <pt x="467" y="151" on="1"/>
        <pt x="456" y="106" on="1"/>
        <pt x="445" y="62" on="0"/>
        <pt x="445" y="59" on="1"/>
        <pt x="445" y="51" on="0"/>
        <pt x="458" y="50" on="1"/>
        <pt x="480" y="46" on="0"/>
        <pt x="526" y="46" on="1"/>
        <pt x="552" y="46" on="0"/>
        <pt x="555" y="39" on="1"/>
        <pt x="556" y="35" on="0"/>
        <pt x="553" y="22" on="1"/>
        <pt x="549" y="4" on="0"/>
        <pt x="544" y="1" on="1"/>
        <pt x="543" y="1" on="0"/>
        <pt x="539" y="0" on="0"/>
        <pt x="536" y="0" on="1"/>
        <pt x="514" y="0" on="0"/>
        <pt x="410" y="2" on="0"/>
        <pt x="381" y="2" on="1"/>
        <pt x="274" y="2" on="0"/>
        <pt x="244" y="0" on="1"/>
        <pt x="231" y="0" on="1"/>
        <pt x="225" y="6" on="0"/>
        <pt x="224" y="11" on="0"/>
        <pt x="227" y="27" on="1"/>
        <pt x="231" y="40" on="0"/>
        <pt x="237" y="46" on="1"/>
        <pt x="260" y="46" on="1"/>
        <pt x="326" y="46" on="0"/>
        <pt x="339" y="52" on="1"/>
        <pt x="349" y="54" on="0"/>
        <pt x="352" y="62" on="1"/>
        <pt x="355" y="65" on="0"/>
        <pt x="365" y="108" on="1"/>
        <pt x="376" y="150" on="0"/>
        <pt x="376" y="151" on="1"/>
        <pt x="374" y="152" on="0"/>
        <pt x="371" y="152" on="1"/>
        <pt x="354" y="154" on="0"/>
        <pt x="331" y="163" on="1"/>
        <pt x="225" y="203" on="0"/>
        <pt x="225" y="323" on="1"/>
        <pt x="225" y="362" on="0"/>
        <pt x="236" y="410" on="1"/>
        <pt x="245" y="450" on="0"/>
        <pt x="245" y="470" on="1"/>
        <pt x="245" y="473" on="0"/>
        <pt x="244" y="481" on="0"/>
        <pt x="244" y="483" on="1"/>
        <pt x="241" y="497" on="0"/>
        <pt x="231" y="508" on="0"/>
        <pt x="220" y="509" on="1"/>
        <pt x="207" y="510" on="0"/>
      </contour>
    </TTGlyph>
    <TTGlyph name="Q" xMin="149" yMin="-194" xMax="788" yMax="704">
      <contour>
        <pt x="538" y="-194" on="1"/>
        <pt x="463" y="-194" on="0"/>
        <pt x="460" y="-107" on="1"/>
        <pt x="460" y="-78" on="0"/>
        <pt x="465" y="-32" on="1"/>
        <pt x="468" y="-12" on="0"/>
        <pt x="468" y="-7" on="1"/>
        <pt x="465" y="-8" on="0"/>
        <pt x="460" y="-10" on="1"/>
        <pt x="419" y="-22" on="0"/>
        <pt x="379" y="-22" on="1"/>
        <pt x="284" y="-22" on="0"/>
        <pt x="221" y="41" on="1"/>
        <pt x="149" y="113" on="0"/>
        <pt x="149" y="237" on="1"/>
        <pt x="149" y="362" on="0"/>
        <pt x="282" y="583" on="0"/>
        <pt x="376" y="644" on="1"/>
        <pt x="455" y="696" on="0"/>
        <pt x="540" y="704" on="1"/>
        <pt x="552" y="704" on="1"/>
        <pt x="581" y="704" on="0"/>
        <pt x="595" y="702" on="1"/>
        <pt x="691" y="688" on="0"/>
        <pt x="744" y="607" on="1"/>
        <pt x="762" y="579" on="0"/>
        <pt x="769" y="556" on="1"/>
        <pt x="788" y="510" on="0"/>
        <pt x="788" y="442" on="1"/>
        <pt x="788" y="421" on="0"/>
        <pt x="787" y="414" on="1"/>
        <pt x="778" y="290" on="0"/>
        <pt x="703" y="180" on="1"/>
        <pt x="627" y="64" on="0"/>
        <pt x="517" y="13" on="1"/>
        <pt x="506" y="8" on="1"/>
        <pt x="507" y="2" on="1"/>
        <pt x="511" y="-40" on="0"/>
        <pt x="531" y="-79" on="0"/>
        <pt x="552" y="-84" on="1"/>
        <pt x="555" y="-85" on="0"/>
        <pt x="565" y="-85" on="1"/>
        <pt x="608" y="-85" on="0"/>
        <pt x="642" y="-51" on="1"/>
        <pt x="664" y="-28" on="0"/>
        <pt x="672" y="0" on="1"/>
        <pt x="676" y="11" on="0"/>
        <pt x="684" y="11" on="1"/>
        <pt x="693" y="11" on="0"/>
        <pt x="695" y="2" on="1"/>
        <pt x="695" y="-5" on="0"/>
        <pt x="685" y="-35" on="1"/>
        <pt x="639" y="-181" on="0"/>
        <pt x="552" y="-193" on="1"/>
        <pt x="548" y="-194" on="0"/>
      </contour>
      <contour>
        <pt x="315" y="46" on="1"/>
        <pt x="315" y="86" on="0"/>
        <pt x="376" y="154" on="0"/>
        <pt x="420" y="154" on="1"/>
        <pt x="451" y="154" on="0"/>
        <pt x="473" y="135" on="1"/>
        <pt x="493" y="114" on="0"/>
        <pt x="500" y="69" on="1"/>
        <pt x="502" y="58" on="1"/>
        <pt x="512" y="65" on="1"/>
        <pt x="599" y="131" on="0"/>
        <pt x="647" y="265" on="1"/>
        <pt x="675" y="344" on="0"/>
        <pt x="685" y="425" on="1"/>
        <pt x="689" y="463" on="0"/>
        <pt x="689" y="481" on="1"/>
        <pt x="689" y="556" on="0"/>
        <pt x="625" y="655" on="0"/>
        <pt x="569" y="664" on="1"/>
        <pt x="563" y="665" on="0"/>
        <pt x="551" y="665" on="1"/>
        <pt x="468" y="665" on="0"/>
        <pt x="391" y="586" on="1"/>
        <pt x="299" y="490" on="0"/>
        <pt x="261" y="308" on="1"/>
        <pt x="249" y="256" on="0"/>
        <pt x="249" y="202" on="1"/>
        <pt x="249" y="105" on="0"/>
        <pt x="295" y="58" on="1"/>
        <pt x="310" y="41" on="0"/>
        <pt x="314" y="41" on="1"/>
        <pt x="315" y="41" on="0"/>
      </contour>
      <contour>
        <pt x="472" y="49" on="1"/>
        <pt x="472" y="84" on="0"/>
        <pt x="446" y="118" on="0"/>
        <pt x="415" y="118" on="1"/>
        <pt x="390" y="118" on="0"/>
        <pt x="353" y="77" on="0"/>
        <pt x="353" y="51" on="1"/>
        <pt x="353" y="18" on="0"/>
        <pt x="387" y="18" on="1"/>
        <pt x="420" y="18" on="0"/>
        <pt x="472" y="40" on="1"/>
      </contour>
    </TTGlyph>
    <TTGlyph name="R" xMin="55" yMin="-22" xMax="723" yMax="683">
      <contour>
        <pt x="62" y="0" on="1"/>
        <pt x="55" y="7" on="0"/>
        <pt x="55" y="11" on="1"/>
        <pt x="55" y="27" on="0"/>
        <pt x="62" y="41" on="1"/>
        <pt x="66" y="46" on="0"/>
        <pt x="96" y="46" on="1"/>
        <pt x="132" y="47" on="0"/>
        <pt x="155" y="53" on="0"/>
        <pt x="160" y="62" on="1"/>
        <pt x="162" y="66" on="0"/>
        <pt x="301" y="622" on="0"/>
        <pt x="301" y="626" on="1"/>
        <pt x="301" y="627" on="0"/>
        <pt x="300" y="629" on="1"/>
        <pt x="300" y="631" on="1"/>
        <pt x="294" y="637" on="0"/>
        <pt x="239" y="637" on="1"/>
        <pt x="221" y="637" on="1"/>
        <pt x="215" y="642" on="0"/>
        <pt x="213" y="649" on="0"/>
        <pt x="217" y="664" on="1"/>
        <pt x="221" y="677" on="0"/>
        <pt x="227" y="683" on="1"/>
        <pt x="386" y="683" on="1"/>
        <pt x="554" y="682" on="0"/>
        <pt x="569" y="679" on="1"/>
        <pt x="571" y="678" on="0"/>
        <pt x="580" y="676" on="1"/>
        <pt x="643" y="662" on="0"/>
        <pt x="717" y="583" on="0"/>
        <pt x="717" y="533" on="1"/>
        <pt x="717" y="500" on="0"/>
        <pt x="701" y="468" on="1"/>
        <pt x="658" y="380" on="0"/>
        <pt x="528" y="337" on="1"/>
        <pt x="532" y="334" on="0"/>
        <pt x="538" y="330" on="1"/>
        <pt x="594" y="294" on="0"/>
        <pt x="594" y="228" on="1"/>
        <pt x="594" y="216" on="0"/>
        <pt x="581" y="67" on="0"/>
        <pt x="581" y="65" on="1"/>
        <pt x="581" y="39" on="0"/>
        <pt x="595" y="16" on="0"/>
        <pt x="616" y="16" on="1"/>
        <pt x="638" y="16" on="0"/>
        <pt x="652" y="37" on="1"/>
        <pt x="668" y="57" on="0"/>
        <pt x="677" y="94" on="1"/>
        <pt x="679" y="105" on="0"/>
        <pt x="723" y="105" on="0"/>
        <pt x="723" y="95" on="1"/>
        <pt x="723" y="87" on="0"/>
        <pt x="719" y="78" on="1"/>
        <pt x="705" y="38" on="0"/>
        <pt x="656" y="-15" on="0"/>
        <pt x="627" y="-21" on="1"/>
        <pt x="622" y="-22" on="0"/>
        <pt x="610" y="-22" on="1"/>
        <pt x="547" y="-22" on="0"/>
        <pt x="471" y="33" on="0"/>
        <pt x="471" y="88" on="1"/>
        <pt x="471" y="108" on="0"/>
        <pt x="486" y="168" on="1"/>
        <pt x="502" y="231" on="0"/>
        <pt x="502" y="244" on="1"/>
        <pt x="502" y="303" on="0"/>
        <pt x="452" y="320" on="1"/>
        <pt x="445" y="322" on="0"/>
        <pt x="382" y="323" on="1"/>
        <pt x="320" y="323" on="1"/>
        <pt x="288" y="192" on="1"/>
        <pt x="255" y="63" on="0"/>
        <pt x="255" y="55" on="1"/>
        <pt x="255" y="53" on="0"/>
        <pt x="258" y="50" on="0"/>
        <pt x="263" y="48" on="0"/>
        <pt x="270" y="47" on="0"/>
        <pt x="280" y="47" on="0"/>
        <pt x="289" y="46" on="0"/>
        <pt x="302" y="46" on="0"/>
        <pt x="307" y="46" on="1"/>
        <pt x="338" y="46" on="0"/>
        <pt x="340" y="40" on="1"/>
        <pt x="342" y="37" on="0"/>
        <pt x="339" y="21" on="1"/>
        <pt x="335" y="3" on="0"/>
        <pt x="330" y="1" on="1"/>
        <pt x="326" y="0" on="0"/>
        <pt x="320" y="0" on="1"/>
        <pt x="301" y="0" on="0"/>
        <pt x="214" y="2" on="0"/>
        <pt x="190" y="2" on="1"/>
        <pt x="99" y="2" on="0"/>
        <pt x="73" y="0" on="1"/>
      </contour>
      <contour>
        <pt x="612" y="558" on="1"/>
        <pt x="612" y="594" on="0"/>
        <pt x="572" y="627" on="0"/>
        <pt x="532" y="635" on="1"/>
        <pt x="526" y="636" on="0"/>
        <pt x="470" y="637" on="1"/>
        <pt x="458" y="637" on="0"/>
        <pt x="431" y="636" on="0"/>
        <pt x="413" y="636" on="0"/>
        <pt x="412" y="636" on="1"/>
        <pt x="402" y="635" on="0"/>
        <pt x="397" y="627" on="1"/>
        <pt x="390" y="598" on="1"/>
        <pt x="383" y="570" on="0"/>
        <pt x="363" y="494" on="0"/>
        <pt x="344" y="416" on="0"/>
        <pt x="330" y="362" on="0"/>
        <pt x="330" y="361" on="1"/>
        <pt x="356" y="360" on="0"/>
        <pt x="384" y="360" on="1"/>
        <pt x="444" y="360" on="0"/>
        <pt x="496" y="367" on="0"/>
        <pt x="527" y="382" on="1"/>
        <pt x="557" y="399" on="0"/>
        <pt x="591" y="450" on="0"/>
        <pt x="604" y="498" on="1"/>
        <pt x="612" y="533" on="0"/>
      </contour>
    </TTGlyph>
    <TTGlyph name="S" xMin="74" yMin="-22" xMax="633" yMax="705">
      <contour>
        <pt x="169" y="147" on="1"/>
        <pt x="172" y="87" on="0"/>
        <pt x="243" y="25" on="0"/>
        <pt x="306" y="25" on="1"/>
        <pt x="324" y="25" on="0"/>
        <pt x="331" y="27" on="1"/>
        <pt x="372" y="37" on="0"/>
        <pt x="443" y="118" on="0"/>
        <pt x="453" y="169" on="1"/>
        <pt x="455" y="180" on="0"/>
        <pt x="455" y="203" on="1"/>
        <pt x="455" y="264" on="0"/>
        <pt x="414" y="285" on="1"/>
        <pt x="409" y="288" on="0"/>
        <pt x="347" y="305" on="1"/>
        <pt x="274" y="327" on="0"/>
        <pt x="255" y="339" on="1"/>
        <pt x="229" y="357" on="0"/>
        <pt x="198" y="422" on="0"/>
        <pt x="198" y="498" on="0"/>
        <pt x="215" y="543" on="1"/>
        <pt x="240" y="606" on="0"/>
        <pt x="346" y="696" on="0"/>
        <pt x="406" y="703" on="1"/>
        <pt x="422" y="705" on="0"/>
        <pt x="432" y="705" on="1"/>
        <pt x="516" y="705" on="0"/>
        <pt x="557" y="644" on="1"/>
        <pt x="571" y="659" on="0"/>
        <pt x="596" y="688" on="0"/>
        <pt x="609" y="702" on="0"/>
        <pt x="611" y="704" on="1"/>
        <pt x="612" y="704" on="0"/>
        <pt x="618" y="705" on="0"/>
        <pt x="620" y="705" on="1"/>
        <pt x="633" y="705" on="0"/>
        <pt x="633" y="691" on="0"/>
        <pt x="576" y="462" on="0"/>
        <pt x="573" y="459" on="1"/>
        <pt x="570" y="456" on="1"/>
        <pt x="554" y="456" on="1"/>
        <pt x="546" y="456" on="0"/>
        <pt x="539" y="456" on="0"/>
        <pt x="533" y="458" on="0"/>
        <pt x="531" y="462" on="0"/>
        <pt x="531" y="466" on="1"/>
        <pt x="531" y="473" on="0"/>
        <pt x="532" y="478" on="1"/>
        <pt x="536" y="503" on="0"/>
        <pt x="536" y="532" on="1"/>
        <pt x="536" y="662" on="0"/>
        <pt x="427" y="662" on="1"/>
        <pt x="371" y="662" on="0"/>
        <pt x="281" y="564" on="0"/>
        <pt x="281" y="503" on="1"/>
        <pt x="281" y="476" on="0"/>
        <pt x="307" y="431" on="0"/>
        <pt x="328" y="424" on="1"/>
        <pt x="463" y="383" on="1"/>
        <pt x="518" y="354" on="0"/>
        <pt x="533" y="292" on="1"/>
        <pt x="538" y="275" on="0"/>
        <pt x="538" y="258" on="1"/>
        <pt x="538" y="244" on="1"/>
        <pt x="538" y="210" on="0"/>
        <pt x="532" y="187" on="1"/>
        <pt x="515" y="120" on="0"/>
        <pt x="427" y="15" on="0"/>
        <pt x="369" y="-9" on="1"/>
        <pt x="336" y="-22" on="0"/>
        <pt x="300" y="-22" on="1"/>
        <pt x="199" y="-22" on="0"/>
        <pt x="152" y="41" on="1"/>
        <pt x="143" y="31" on="1"/>
        <pt x="141" y="29" on="0"/>
        <pt x="132" y="19" on="0"/>
        <pt x="120" y="5" on="0"/>
        <pt x="116" y="1" on="1"/>
        <pt x="97" y="-20" on="0"/>
        <pt x="95" y="-21" on="1"/>
        <pt x="92" y="-22" on="1"/>
        <pt x="88" y="-22" on="0"/>
        <pt x="86" y="-22" on="1"/>
        <pt x="74" y="-22" on="0"/>
        <pt x="74" y="-14" on="1"/>
        <pt x="74" y="-11" on="0"/>
        <pt x="132" y="221" on="1"/>
        <pt x="134" y="227" on="0"/>
        <pt x="155" y="227" on="1"/>
        <pt x="171" y="227" on="1"/>
        <pt x="177" y="221" on="0"/>
        <pt x="177" y="218" on="1"/>
        <pt x="177" y="214" on="0"/>
        <pt x="174" y="198" on="1"/>
        <pt x="169" y="174" on="0"/>
      </contour>
    </TTGlyph>
    <TTGlyph name="Sigma" xMin="80" yMin="0" xMax="782" yMax="683">
      <contour>
        <pt x="87" y="0" on="1"/>
        <pt x="80" y="7" on="0"/>
        <pt x="80" y="11" on="1"/>
        <pt x="80" y="14" on="0"/>
        <pt x="81" y="15" on="1"/>
        <pt x="81" y="16" on="0"/>
        <pt x="231" y="161" on="1"/>
        <pt x="381" y="304" on="0"/>
        <pt x="381" y="305" on="1"/>
        <pt x="349" y="382" on="0"/>
        <pt x="310" y="475" on="1"/>
        <pt x="239" y="646" on="0"/>
        <pt x="239" y="650" on="0"/>
        <pt x="246" y="675" on="0"/>
        <pt x="247" y="677" on="1"/>
        <pt x="247" y="681" on="0"/>
        <pt x="251" y="681" on="1"/>
        <pt x="253" y="683" on="0"/>
        <pt x="514" y="683" on="1"/>
        <pt x="775" y="683" on="1"/>
        <pt x="778" y="680" on="0"/>
        <pt x="782" y="674" on="1"/>
        <pt x="782" y="668" on="0"/>
        <pt x="752" y="450" on="0"/>
        <pt x="751" y="448" on="1"/>
        <pt x="747" y="443" on="0"/>
        <pt x="729" y="443" on="1"/>
        <pt x="710" y="443" on="0"/>
        <pt x="708" y="449" on="1"/>
        <pt x="706" y="452" on="0"/>
        <pt x="708" y="471" on="1"/>
        <pt x="713" y="509" on="0"/>
        <pt x="713" y="529" on="1"/>
        <pt x="713" y="582" on="0"/>
        <pt x="688" y="607" on="1"/>
        <pt x="662" y="632" on="0"/>
        <pt x="580" y="636" on="1"/>
        <pt x="568" y="637" on="0"/>
        <pt x="457" y="637" on="1"/>
        <pt x="356" y="637" on="0"/>
        <pt x="356" y="635" on="1"/>
        <pt x="358" y="634" on="0"/>
        <pt x="476" y="344" on="0"/>
        <pt x="478" y="343" on="1"/>
        <pt x="478" y="340" on="0"/>
        <pt x="477" y="338" on="1"/>
        <pt x="474" y="331" on="0"/>
        <pt x="330" y="196" on="1"/>
        <pt x="185" y="57" on="1"/>
        <pt x="294" y="56" on="1"/>
        <pt x="405" y="56" on="0"/>
        <pt x="477" y="60" on="0"/>
        <pt x="506" y="67" on="1"/>
        <pt x="553" y="80" on="0"/>
        <pt x="581" y="109" on="1"/>
        <pt x="620" y="148" on="0"/>
        <pt x="651" y="235" on="1"/>
        <pt x="654" y="246" on="0"/>
        <pt x="660" y="250" on="0"/>
        <pt x="675" y="250" on="1"/>
        <pt x="691" y="250" on="0"/>
        <pt x="693" y="248" on="1"/>
        <pt x="699" y="246" on="0"/>
        <pt x="699" y="239" on="1"/>
        <pt x="681" y="188" on="1"/>
        <pt x="663" y="138" on="0"/>
        <pt x="622" y="23" on="0"/>
        <pt x="617" y="9" on="1"/>
        <pt x="614" y="3" on="0"/>
        <pt x="612" y="2" on="1"/>
        <pt x="609" y="0" on="0"/>
        <pt x="348" y="0" on="1"/>
      </contour>
    </TTGlyph>
    <TTGlyph name="T" xMin="171" yMin="0" xMax="806" yMax="677">
      <contour>
        <pt x="178" y="437" on="1"/>
        <pt x="173" y="442" on="0"/>
        <pt x="171" y="446" on="1"/>
        <pt x="171" y="451" on="0"/>
        <pt x="238" y="654" on="1"/>
        <pt x="243" y="670" on="0"/>
        <pt x="250" y="677" on="1"/>
        <pt x="681" y="677" on="1"/>
        <pt x="804" y="677" on="0"/>
        <pt x="805" y="672" on="1"/>
        <pt x="805" y="671" on="1"/>
        <pt x="806" y="670" on="1"/>
        <pt x="806" y="668" on="0"/>
        <pt x="806" y="667" on="1"/>
        <pt x="806" y="661" on="0"/>
        <pt x="769" y="445" on="0"/>
        <pt x="768" y="444" on="1"/>
        <pt x="768" y="441" on="0"/>
        <pt x="764" y="439" on="1"/>
        <pt x="762" y="437" on="0"/>
        <pt x="730" y="437" on="0"/>
        <pt x="727" y="440" on="1"/>
        <pt x="725" y="441" on="0"/>
        <pt x="723" y="445" on="1"/>
        <pt x="723" y="454" on="0"/>
        <pt x="727" y="474" on="1"/>
        <pt x="736" y="533" on="0"/>
        <pt x="736" y="562" on="1"/>
        <pt x="736" y="592" on="0"/>
        <pt x="717" y="616" on="0"/>
        <pt x="693" y="624" on="1"/>
        <pt x="675" y="630" on="0"/>
        <pt x="622" y="630" on="1"/>
        <pt x="577" y="630" on="0"/>
        <pt x="572" y="629" on="1"/>
        <pt x="567" y="627" on="0"/>
        <pt x="564" y="623" on="1"/>
        <pt x="562" y="621" on="0"/>
        <pt x="422" y="63" on="0"/>
        <pt x="422" y="59" on="1"/>
        <pt x="422" y="57" on="0"/>
        <pt x="425" y="54" on="1"/>
        <pt x="432" y="47" on="0"/>
        <pt x="502" y="46" on="1"/>
        <pt x="542" y="46" on="1"/>
        <pt x="547" y="39" on="0"/>
        <pt x="548" y="36" on="0"/>
        <pt x="545" y="19" on="1"/>
        <pt x="541" y="6" on="0"/>
        <pt x="535" y="0" on="1"/>
        <pt x="517" y="0" on="1"/>
        <pt x="475" y="2" on="0"/>
        <pt x="357" y="2" on="1"/>
        <pt x="327" y="2" on="0"/>
        <pt x="222" y="1" on="0"/>
        <pt x="198" y="1" on="1"/>
        <pt x="180" y="1" on="0"/>
        <pt x="180" y="8" on="1"/>
        <pt x="180" y="12" on="0"/>
        <pt x="186" y="39" on="0"/>
        <pt x="187" y="40" on="1"/>
        <pt x="188" y="44" on="0"/>
        <pt x="200" y="46" on="0"/>
        <pt x="232" y="46" on="1"/>
        <pt x="287" y="47" on="0"/>
        <pt x="314" y="52" on="0"/>
        <pt x="326" y="65" on="1"/>
        <pt x="395" y="344" on="1"/>
        <pt x="465" y="619" on="0"/>
        <pt x="465" y="626" on="1"/>
        <pt x="465" y="629" on="0"/>
        <pt x="462" y="629" on="1"/>
        <pt x="456" y="631" on="0"/>
        <pt x="411" y="631" on="1"/>
        <pt x="313" y="631" on="0"/>
        <pt x="278" y="587" on="1"/>
        <pt x="256" y="561" on="0"/>
        <pt x="224" y="467" on="1"/>
        <pt x="214" y="441" on="0"/>
        <pt x="210" y="437" on="1"/>
      </contour>
    </TTGlyph>
    <TTGlyph name="Theta" xMin="149" yMin="-22" xMax="788" yMax="704">
      <contour>
        <pt x="540" y="704" on="1"/>
        <pt x="552" y="704" on="1"/>
        <pt x="581" y="704" on="0"/>
        <pt x="595" y="702" on="1"/>
        <pt x="683" y="689" on="0"/>
        <pt x="788" y="548" on="0"/>
        <pt x="788" y="444" on="1"/>
        <pt x="788" y="372" on="0"/>
        <pt x="762" y="298" on="1"/>
        <pt x="725" y="187" on="0"/>
        <pt x="639" y="100" on="1"/>
        <pt x="561" y="23" on="0"/>
        <pt x="471" y="-6" on="1"/>
        <pt x="424" y="-22" on="0"/>
        <pt x="377" y="-22" on="1"/>
        <pt x="284" y="-22" on="0"/>
        <pt x="221" y="41" on="1"/>
        <pt x="149" y="113" on="0"/>
        <pt x="149" y="237" on="1"/>
        <pt x="149" y="362" on="0"/>
        <pt x="282" y="583" on="0"/>
        <pt x="376" y="644" on="1"/>
        <pt x="455" y="696" on="0"/>
      </contour>
      <contour>
        <pt x="691" y="480" on="1"/>
        <pt x="691" y="561" on="0"/>
        <pt x="619" y="668" on="0"/>
        <pt x="551" y="668" on="1"/>
        <pt x="456" y="668" on="0"/>
        <pt x="367" y="562" on="1"/>
        <pt x="290" y="464" on="0"/>
        <pt x="258" y="308" on="1"/>
        <pt x="246" y="251" on="0"/>
        <pt x="246" y="202" on="1"/>
        <pt x="246" y="131" on="0"/>
        <pt x="298" y="38" on="0"/>
        <pt x="347" y="22" on="1"/>
        <pt x="366" y="16" on="0"/>
        <pt x="387" y="16" on="1"/>
        <pt x="469" y="16" on="0"/>
        <pt x="545" y="92" on="1"/>
        <pt x="637" y="184" on="0"/>
        <pt x="677" y="363" on="1"/>
        <pt x="691" y="423" on="0"/>
      </contour>
      <contour>
        <pt x="559" y="276" on="1"/>
        <pt x="559" y="278" on="0"/>
        <pt x="561" y="288" on="1"/>
        <pt x="563" y="299" on="1"/>
        <pt x="563" y="300" on="0"/>
        <pt x="458" y="300" on="1"/>
        <pt x="353" y="300" on="1"/>
        <pt x="350" y="286" on="1"/>
        <pt x="346" y="272" on="0"/>
        <pt x="340" y="266" on="1"/>
        <pt x="325" y="266" on="1"/>
        <pt x="302" y="266" on="0"/>
        <pt x="302" y="275" on="1"/>
        <pt x="302" y="278" on="0"/>
        <pt x="317" y="344" on="1"/>
        <pt x="320" y="356" on="0"/>
        <pt x="326" y="378" on="0"/>
        <pt x="329" y="391" on="0"/>
        <pt x="332" y="402" on="0"/>
        <pt x="334" y="407" on="0"/>
        <pt x="335" y="411" on="0"/>
        <pt x="336" y="413" on="1"/>
        <pt x="338" y="415" on="1"/>
        <pt x="341" y="418" on="1"/>
        <pt x="356" y="418" on="1"/>
        <pt x="370" y="418" on="0"/>
        <pt x="379" y="415" on="0"/>
        <pt x="379" y="408" on="1"/>
        <pt x="379" y="406" on="0"/>
        <pt x="377" y="396" on="1"/>
        <pt x="375" y="385" on="1"/>
        <pt x="375" y="384" on="0"/>
        <pt x="480" y="384" on="1"/>
        <pt x="585" y="384" on="1"/>
        <pt x="588" y="398" on="1"/>
        <pt x="592" y="412" on="0"/>
        <pt x="598" y="418" on="1"/>
        <pt x="613" y="418" on="1"/>
        <pt x="636" y="418" on="0"/>
        <pt x="636" y="409" on="1"/>
        <pt x="636" y="406" on="0"/>
        <pt x="621" y="340" on="1"/>
        <pt x="618" y="328" on="0"/>
        <pt x="612" y="306" on="0"/>
        <pt x="609" y="293" on="0"/>
        <pt x="606" y="282" on="0"/>
        <pt x="604" y="277" on="0"/>
        <pt x="603" y="273" on="0"/>
        <pt x="602" y="271" on="1"/>
        <pt x="600" y="269" on="1"/>
        <pt x="597" y="266" on="1"/>
        <pt x="582" y="266" on="1"/>
        <pt x="568" y="266" on="0"/>
        <pt x="559" y="269" on="0"/>
      </contour>
    </TTGlyph>
    <TTGlyph name="U" xMin="194" yMin="-22" xMax="860" yMax="683">
      <contour>
        <pt x="378" y="-22" on="1"/>
        <pt x="297" y="-22" on="0"/>
        <pt x="194" y="87" on="0"/>
        <pt x="194" y="167" on="1"/>
        <pt x="194" y="191" on="0"/>
        <pt x="198" y="211" on="1"/>
        <pt x="199" y="218" on="0"/>
        <pt x="300" y="622" on="0"/>
        <pt x="300" y="626" on="1"/>
        <pt x="300" y="627" on="0"/>
        <pt x="300" y="629" on="1"/>
        <pt x="299" y="631" on="1"/>
        <pt x="293" y="637" on="0"/>
        <pt x="238" y="637" on="1"/>
        <pt x="220" y="637" on="1"/>
        <pt x="214" y="642" on="0"/>
        <pt x="212" y="649" on="0"/>
        <pt x="216" y="664" on="1"/>
        <pt x="220" y="677" on="0"/>
        <pt x="226" y="683" on="1"/>
        <pt x="239" y="683" on="1"/>
        <pt x="307" y="681" on="0"/>
        <pt x="372" y="681" on="1"/>
        <pt x="421" y="681" on="1"/>
        <pt x="478" y="681" on="0"/>
        <pt x="486" y="683" on="1"/>
        <pt x="496" y="683" on="1"/>
        <pt x="502" y="677" on="0"/>
        <pt x="503" y="672" on="0"/>
        <pt x="500" y="656" on="1"/>
        <pt x="496" y="643" on="0"/>
        <pt x="490" y="637" on="1"/>
        <pt x="472" y="637" on="1"/>
        <pt x="418" y="637" on="0"/>
        <pt x="406" y="630" on="1"/>
        <pt x="400" y="627" on="0"/>
        <pt x="387" y="579" on="0"/>
        <pt x="344" y="410" on="1"/>
        <pt x="331" y="360" on="0"/>
        <pt x="304" y="251" on="0"/>
        <pt x="290" y="191" on="0"/>
        <pt x="289" y="188" on="1"/>
        <pt x="284" y="155" on="0"/>
        <pt x="284" y="135" on="1"/>
        <pt x="284" y="83" on="0"/>
        <pt x="338" y="24" on="0"/>
        <pt x="387" y="24" on="1"/>
        <pt x="457" y="24" on="0"/>
        <pt x="519" y="76" on="1"/>
        <pt x="577" y="127" on="0"/>
        <pt x="604" y="211" on="1"/>
        <pt x="605" y="215" on="0"/>
        <pt x="701" y="593" on="0"/>
        <pt x="701" y="607" on="1"/>
        <pt x="701" y="637" on="0"/>
        <pt x="636" y="637" on="1"/>
        <pt x="627" y="637" on="0"/>
        <pt x="623" y="640" on="1"/>
        <pt x="619" y="645" on="0"/>
        <pt x="623" y="664" on="1"/>
        <pt x="627" y="677" on="0"/>
        <pt x="633" y="683" on="1"/>
        <pt x="644" y="683" on="1"/>
        <pt x="702" y="681" on="0"/>
        <pt x="753" y="681" on="1"/>
        <pt x="835" y="681" on="0"/>
        <pt x="845" y="683" on="1"/>
        <pt x="853" y="683" on="1"/>
        <pt x="860" y="676" on="0"/>
        <pt x="860" y="672" on="1"/>
        <pt x="860" y="664" on="0"/>
        <pt x="851" y="640" on="0"/>
        <pt x="848" y="637" on="1"/>
        <pt x="832" y="637" on="1"/>
        <pt x="796" y="636" on="0"/>
        <pt x="776" y="624" on="1"/>
        <pt x="756" y="614" on="0"/>
        <pt x="750" y="598" on="1"/>
        <pt x="745" y="588" on="0"/>
        <pt x="650" y="211" on="0"/>
        <pt x="648" y="204" on="1"/>
        <pt x="627" y="140" on="0"/>
        <pt x="584" y="86" on="1"/>
        <pt x="552" y="51" on="0"/>
        <pt x="536" y="39" on="1"/>
        <pt x="483" y="-3" on="0"/>
        <pt x="431" y="-15" on="1"/>
        <pt x="407" y="-22" on="0"/>
      </contour>
    </TTGlyph>
    <TTGlyph name="Upsilon" xMin="213" yMin="0" xMax="832" yMax="705">
      <contour>
        <pt x="538" y="0" on="1"/>
        <pt x="515" y="0" on="0"/>
        <pt x="410" y="2" on="0"/>
        <pt x="380" y="2" on="1"/>
        <pt x="271" y="2" on="0"/>
        <pt x="241" y="0" on="1"/>
        <pt x="228" y="0" on="1"/>
        <pt x="222" y="6" on="0"/>
        <pt x="221" y="11" on="0"/>
        <pt x="224" y="27" on="1"/>
        <pt x="228" y="40" on="0"/>
        <pt x="234" y="46" on="1"/>
        <pt x="257" y="46" on="1"/>
        <pt x="322" y="46" on="0"/>
        <pt x="336" y="52" on="1"/>
        <pt x="346" y="54" on="0"/>
        <pt x="349" y="62" on="1"/>
        <pt x="354" y="67" on="0"/>
        <pt x="425" y="359" on="1"/>
        <pt x="446" y="440" on="0"/>
        <pt x="446" y="506" on="1"/>
        <pt x="446" y="539" on="0"/>
        <pt x="445" y="546" on="1"/>
        <pt x="438" y="584" on="0"/>
        <pt x="399" y="622" on="0"/>
        <pt x="361" y="622" on="1"/>
        <pt x="343" y="622" on="0"/>
        <pt x="335" y="620" on="1"/>
        <pt x="280" y="603" on="0"/>
        <pt x="261" y="552" on="1"/>
        <pt x="257" y="539" on="0"/>
        <pt x="249" y="536" on="1"/>
        <pt x="245" y="535" on="0"/>
        <pt x="220" y="535" on="0"/>
        <pt x="218" y="536" on="1"/>
        <pt x="214" y="540" on="1"/>
        <pt x="214" y="541" on="1"/>
        <pt x="213" y="542" on="0"/>
        <pt x="213" y="543" on="1"/>
        <pt x="215" y="553" on="1"/>
        <pt x="239" y="635" on="0"/>
        <pt x="305" y="680" on="1"/>
        <pt x="339" y="705" on="0"/>
        <pt x="379" y="705" on="1"/>
        <pt x="449" y="705" on="0"/>
        <pt x="507" y="615" on="0"/>
        <pt x="507" y="531" on="1"/>
        <pt x="507" y="514" on="0"/>
        <pt x="505" y="492" on="1"/>
        <pt x="504" y="482" on="1"/>
        <pt x="505" y="484" on="1"/>
        <pt x="506" y="486" on="0"/>
        <pt x="509" y="494" on="0"/>
        <pt x="511" y="497" on="1"/>
        <pt x="528" y="538" on="0"/>
        <pt x="548" y="571" on="1"/>
        <pt x="621" y="693" on="0"/>
        <pt x="722" y="704" on="1"/>
        <pt x="727" y="705" on="0"/>
        <pt x="738" y="705" on="1"/>
        <pt x="783" y="705" on="0"/>
        <pt x="832" y="643" on="0"/>
        <pt x="832" y="545" on="0"/>
        <pt x="820" y="538" on="1"/>
        <pt x="816" y="535" on="0"/>
        <pt x="802" y="535" on="1"/>
        <pt x="787" y="535" on="0"/>
        <pt x="779" y="539" on="0"/>
        <pt x="781" y="548" on="1"/>
        <pt x="783" y="558" on="0"/>
        <pt x="783" y="563" on="1"/>
        <pt x="783" y="590" on="0"/>
        <pt x="745" y="623" on="0"/>
        <pt x="716" y="623" on="1"/>
        <pt x="666" y="623" on="0"/>
        <pt x="626" y="583" on="1"/>
        <pt x="563" y="520" on="0"/>
        <pt x="521" y="354" on="1"/>
        <pt x="448" y="62" on="0"/>
        <pt x="448" y="59" on="1"/>
        <pt x="448" y="51" on="0"/>
        <pt x="461" y="50" on="1"/>
        <pt x="483" y="46" on="0"/>
        <pt x="529" y="46" on="1"/>
        <pt x="554" y="46" on="0"/>
        <pt x="558" y="39" on="1"/>
        <pt x="559" y="35" on="0"/>
        <pt x="556" y="22" on="1"/>
        <pt x="552" y="4" on="0"/>
        <pt x="547" y="1" on="1"/>
        <pt x="546" y="1" on="0"/>
        <pt x="541" y="0" on="0"/>
      </contour>
    </TTGlyph>
    <TTGlyph name="V" xMin="205" yMin="-22" xMax="868" yMax="683">
      <contour>
        <pt x="384" y="615" on="1"/>
        <pt x="385" y="612" on="0"/>
        <pt x="427" y="130" on="0"/>
        <pt x="427" y="126" on="1"/>
        <pt x="427" y="125" on="0"/>
        <pt x="564" y="356" on="0"/>
        <pt x="701" y="591" on="0"/>
        <pt x="704" y="596" on="1"/>
        <pt x="707" y="604" on="0"/>
        <pt x="707" y="610" on="1"/>
        <pt x="707" y="633" on="0"/>
        <pt x="667" y="637" on="1"/>
        <pt x="656" y="637" on="0"/>
        <pt x="653" y="641" on="1"/>
        <pt x="649" y="645" on="0"/>
        <pt x="653" y="664" on="1"/>
        <pt x="657" y="677" on="0"/>
        <pt x="663" y="683" on="1"/>
        <pt x="675" y="683" on="1"/>
        <pt x="704" y="681" on="0"/>
        <pt x="772" y="681" on="1"/>
        <pt x="823" y="681" on="0"/>
        <pt x="842" y="682" on="1"/>
        <pt x="860" y="683" on="0"/>
        <pt x="862" y="681" on="1"/>
        <pt x="868" y="679" on="0"/>
        <pt x="868" y="672" on="1"/>
        <pt x="868" y="670" on="0"/>
        <pt x="861" y="645" on="0"/>
        <pt x="860" y="643" on="1"/>
        <pt x="857" y="637" on="0"/>
        <pt x="848" y="637" on="1"/>
        <pt x="784" y="637" on="0"/>
        <pt x="749" y="587" on="1"/>
        <pt x="394" y="-15" on="1"/>
        <pt x="387" y="-22" on="0"/>
        <pt x="366" y="-22" on="1"/>
        <pt x="346" y="-22" on="0"/>
        <pt x="342" y="-16" on="1"/>
        <pt x="341" y="-13" on="0"/>
        <pt x="313" y="303" on="1"/>
        <pt x="285" y="622" on="0"/>
        <pt x="285" y="623" on="1"/>
        <pt x="283" y="637" on="0"/>
        <pt x="243" y="637" on="1"/>
        <pt x="229" y="637" on="1"/>
        <pt x="209" y="637" on="0"/>
        <pt x="207" y="643" on="1"/>
        <pt x="205" y="647" on="0"/>
        <pt x="205" y="648" on="1"/>
        <pt x="205" y="650" on="0"/>
        <pt x="208" y="662" on="1"/>
        <pt x="209" y="665" on="0"/>
        <pt x="211" y="674" on="0"/>
        <pt x="212" y="676" on="0"/>
        <pt x="214" y="681" on="0"/>
        <pt x="216" y="681" on="0"/>
        <pt x="221" y="683" on="0"/>
        <pt x="225" y="683" on="0"/>
        <pt x="230" y="683" on="1"/>
        <pt x="276" y="680" on="0"/>
        <pt x="329" y="680" on="1"/>
        <pt x="440" y="680" on="0"/>
        <pt x="456" y="683" on="1"/>
        <pt x="466" y="683" on="1"/>
        <pt x="472" y="677" on="0"/>
        <pt x="473" y="672" on="0"/>
        <pt x="470" y="656" on="1"/>
        <pt x="466" y="643" on="0"/>
        <pt x="460" y="637" on="1"/>
        <pt x="448" y="637" on="1"/>
        <pt x="384" y="637" on="0"/>
      </contour>
    </TTGlyph>
    <TTGlyph name="W" xMin="205" yMin="-22" xMax="1124" yMax="683">
      <contour>
        <pt x="234" y="637" on="1"/>
        <pt x="214" y="637" on="0"/>
        <pt x="205" y="640" on="0"/>
        <pt x="205" y="648" on="1"/>
        <pt x="205" y="654" on="0"/>
        <pt x="207" y="662" on="1"/>
        <pt x="211" y="679" on="0"/>
        <pt x="216" y="682" on="1"/>
        <pt x="218" y="683" on="0"/>
        <pt x="231" y="683" on="1"/>
        <pt x="265" y="681" on="0"/>
        <pt x="340" y="681" on="1"/>
        <pt x="402" y="681" on="0"/>
        <pt x="432" y="682" on="1"/>
        <pt x="458" y="683" on="0"/>
        <pt x="461" y="681" on="1"/>
        <pt x="467" y="679" on="0"/>
        <pt x="467" y="672" on="1"/>
        <pt x="467" y="670" on="0"/>
        <pt x="460" y="645" on="0"/>
        <pt x="459" y="643" on="1"/>
        <pt x="457" y="637" on="0"/>
        <pt x="434" y="637" on="1"/>
        <pt x="388" y="636" on="0"/>
        <pt x="377" y="622" on="1"/>
        <pt x="376" y="621" on="0"/>
        <pt x="376" y="613" on="1"/>
        <pt x="376" y="589" on="0"/>
        <pt x="394" y="165" on="0"/>
        <pt x="394" y="149" on="1"/>
        <pt x="511" y="361" on="1"/>
        <pt x="542" y="419" on="0"/>
        <pt x="596" y="519" on="1"/>
        <pt x="613" y="551" on="1"/>
        <pt x="612" y="585" on="1"/>
        <pt x="610" y="621" on="0"/>
        <pt x="610" y="624" on="1"/>
        <pt x="608" y="637" on="0"/>
        <pt x="574" y="637" on="1"/>
        <pt x="559" y="637" on="1"/>
        <pt x="544" y="637" on="0"/>
        <pt x="541" y="640" on="1"/>
        <pt x="535" y="644" on="0"/>
        <pt x="540" y="664" on="1"/>
        <pt x="544" y="677" on="0"/>
        <pt x="550" y="683" on="1"/>
        <pt x="561" y="683" on="1"/>
        <pt x="600" y="680" on="0"/>
        <pt x="656" y="680" on="1"/>
        <pt x="766" y="680" on="0"/>
        <pt x="783" y="683" on="1"/>
        <pt x="792" y="683" on="1"/>
        <pt x="801" y="674" on="0"/>
        <pt x="796" y="658" on="1"/>
        <pt x="793" y="643" on="0"/>
        <pt x="789" y="639" on="1"/>
        <pt x="786" y="637" on="0"/>
        <pt x="774" y="637" on="1"/>
        <pt x="719" y="637" on="0"/>
        <pt x="708" y="620" on="1"/>
        <pt x="717" y="385" on="1"/>
        <pt x="726" y="150" on="0"/>
        <pt x="727" y="149" on="1"/>
        <pt x="727" y="148" on="0"/>
        <pt x="777" y="238" on="0"/>
        <pt x="847" y="368" on="0"/>
        <pt x="917" y="499" on="0"/>
        <pt x="968" y="593" on="0"/>
        <pt x="969" y="596" on="1"/>
        <pt x="970" y="600" on="0"/>
        <pt x="970" y="606" on="1"/>
        <pt x="970" y="621" on="0"/>
        <pt x="945" y="633" on="0"/>
        <pt x="920" y="637" on="1"/>
        <pt x="908" y="637" on="0"/>
        <pt x="905" y="641" on="1"/>
        <pt x="901" y="645" on="0"/>
        <pt x="905" y="664" on="1"/>
        <pt x="909" y="677" on="0"/>
        <pt x="915" y="683" on="1"/>
        <pt x="928" y="683" on="1"/>
        <pt x="960" y="681" on="0"/>
        <pt x="1031" y="681" on="1"/>
        <pt x="1083" y="681" on="0"/>
        <pt x="1101" y="682" on="1"/>
        <pt x="1116" y="683" on="0"/>
        <pt x="1124" y="680" on="0"/>
        <pt x="1124" y="672" on="1"/>
        <pt x="1124" y="657" on="0"/>
        <pt x="1117" y="643" on="1"/>
        <pt x="1114" y="637" on="0"/>
        <pt x="1104" y="637" on="1"/>
        <pt x="1046" y="637" on="0"/>
        <pt x="1017" y="592" on="1"/>
        <pt x="1013" y="584" on="0"/>
        <pt x="1009" y="580" on="1"/>
        <pt x="687" y="-16" on="1"/>
        <pt x="681" y="-22" on="0"/>
        <pt x="660" y="-22" on="1"/>
        <pt x="643" y="-22" on="0"/>
        <pt x="637" y="-16" on="1"/>
        <pt x="635" y="-14" on="0"/>
        <pt x="627" y="223" on="1"/>
        <pt x="617" y="441" on="0"/>
        <pt x="617" y="464" on="1"/>
        <pt x="602" y="441" on="1"/>
        <pt x="578" y="397" on="0"/>
        <pt x="487" y="228" on="1"/>
        <pt x="456" y="171" on="0"/>
        <pt x="389" y="48" on="0"/>
        <pt x="355" y="-14" on="0"/>
        <pt x="355" y="-15" on="1"/>
        <pt x="348" y="-22" on="0"/>
        <pt x="328" y="-22" on="1"/>
        <pt x="312" y="-22" on="0"/>
        <pt x="304" y="-17" on="0"/>
        <pt x="303" y="-9" on="1"/>
        <pt x="303" y="-5" on="0"/>
        <pt x="278" y="625" on="0"/>
        <pt x="277" y="627" on="1"/>
        <pt x="273" y="636" on="0"/>
      </contour>
    </TTGlyph>
    <TTGlyph name="X" xMin="50" yMin="0" xMax="825" yMax="683">
      <contour>
        <pt x="64" y="0" on="1"/>
        <pt x="50" y="0" on="0"/>
        <pt x="50" y="11" on="1"/>
        <pt x="50" y="15" on="0"/>
        <pt x="53" y="27" on="1"/>
        <pt x="57" y="41" on="0"/>
        <pt x="63" y="45" on="0"/>
        <pt x="78" y="46" on="1"/>
        <pt x="154" y="49" on="0"/>
        <pt x="205" y="100" on="1"/>
        <pt x="207" y="103" on="0"/>
        <pt x="312" y="225" on="1"/>
        <pt x="411" y="341" on="1"/>
        <pt x="407" y="353" on="1"/>
        <pt x="404" y="360" on="0"/>
        <pt x="358" y="496" on="0"/>
        <pt x="313" y="624" on="0"/>
        <pt x="310" y="627" on="1"/>
        <pt x="301" y="636" on="0"/>
        <pt x="255" y="637" on="1"/>
        <pt x="229" y="637" on="1"/>
        <pt x="223" y="643" on="0"/>
        <pt x="222" y="647" on="0"/>
        <pt x="225" y="664" on="1"/>
        <pt x="229" y="677" on="0"/>
        <pt x="235" y="683" on="1"/>
        <pt x="246" y="683" on="1"/>
        <pt x="288" y="680" on="0"/>
        <pt x="346" y="680" on="1"/>
        <pt x="357" y="680" on="0"/>
        <pt x="399" y="681" on="0"/>
        <pt x="409" y="681" on="1"/>
        <pt x="421" y="681" on="0"/>
        <pt x="456" y="682" on="0"/>
        <pt x="475" y="683" on="0"/>
        <pt x="477" y="683" on="1"/>
        <pt x="487" y="683" on="1"/>
        <pt x="496" y="674" on="0"/>
        <pt x="491" y="656" on="1"/>
        <pt x="488" y="644" on="0"/>
        <pt x="482" y="638" on="0"/>
        <pt x="471" y="637" on="1"/>
        <pt x="461" y="635" on="0"/>
        <pt x="454" y="635" on="1"/>
        <pt x="419" y="626" on="0"/>
        <pt x="421" y="619" on="1"/>
        <pt x="421" y="617" on="0"/>
        <pt x="485" y="430" on="0"/>
        <pt x="487" y="430" on="0"/>
        <pt x="621" y="589" on="0"/>
        <pt x="624" y="593" on="1"/>
        <pt x="631" y="604" on="0"/>
        <pt x="631" y="611" on="1"/>
        <pt x="631" y="622" on="0"/>
        <pt x="611" y="636" on="0"/>
        <pt x="598" y="637" on="1"/>
        <pt x="587" y="637" on="0"/>
        <pt x="584" y="644" on="1"/>
        <pt x="582" y="647" on="0"/>
        <pt x="585" y="660" on="1"/>
        <pt x="586" y="663" on="0"/>
        <pt x="588" y="672" on="0"/>
        <pt x="588" y="675" on="0"/>
        <pt x="590" y="680" on="0"/>
        <pt x="592" y="681" on="0"/>
        <pt x="595" y="683" on="0"/>
        <pt x="599" y="683" on="0"/>
        <pt x="602" y="683" on="1"/>
        <pt x="617" y="683" on="0"/>
        <pt x="690" y="680" on="0"/>
        <pt x="715" y="680" on="1"/>
        <pt x="768" y="680" on="0"/>
        <pt x="796" y="682" on="1"/>
        <pt x="814" y="683" on="0"/>
        <pt x="822" y="681" on="0"/>
        <pt x="824" y="676" on="1"/>
        <pt x="825" y="675" on="0"/>
        <pt x="825" y="672" on="1"/>
        <pt x="825" y="668" on="0"/>
        <pt x="818" y="643" on="0"/>
        <pt x="817" y="642" on="1"/>
        <pt x="814" y="637" on="0"/>
        <pt x="797" y="637" on="1"/>
        <pt x="739" y="634" on="0"/>
        <pt x="700" y="608" on="1"/>
        <pt x="684" y="597" on="0"/>
        <pt x="633" y="540" on="0"/>
        <pt x="505" y="389" on="1"/>
        <pt x="501" y="384" on="1"/>
        <pt x="557" y="222" on="1"/>
        <pt x="612" y="61" on="0"/>
        <pt x="616" y="57" on="1"/>
        <pt x="625" y="47" on="0"/>
        <pt x="671" y="46" on="1"/>
        <pt x="700" y="46" on="0"/>
        <pt x="704" y="39" on="1"/>
        <pt x="705" y="36" on="0"/>
        <pt x="702" y="23" on="1"/>
        <pt x="697" y="3" on="0"/>
        <pt x="693" y="1" on="1"/>
        <pt x="690" y="0" on="0"/>
        <pt x="662" y="1" on="1"/>
        <pt x="645" y="2" on="0"/>
        <pt x="569" y="2" on="1"/>
        <pt x="542" y="2" on="0"/>
        <pt x="464" y="1" on="0"/>
        <pt x="449" y="1" on="1"/>
        <pt x="436" y="1" on="0"/>
        <pt x="434" y="6" on="1"/>
        <pt x="432" y="9" on="0"/>
        <pt x="435" y="25" on="1"/>
        <pt x="439" y="40" on="0"/>
        <pt x="445" y="45" on="0"/>
        <pt x="457" y="46" on="1"/>
        <pt x="460" y="46" on="0"/>
        <pt x="474" y="48" on="0"/>
        <pt x="476" y="49" on="1"/>
        <pt x="506" y="58" on="0"/>
        <pt x="506" y="64" on="1"/>
        <pt x="506" y="65" on="0"/>
        <pt x="427" y="294" on="0"/>
        <pt x="426" y="295" on="1"/>
        <pt x="382" y="244" on="1"/>
        <pt x="339" y="194" on="0"/>
        <pt x="251" y="89" on="0"/>
        <pt x="249" y="86" on="1"/>
        <pt x="245" y="79" on="0"/>
        <pt x="245" y="72" on="1"/>
        <pt x="245" y="48" on="0"/>
        <pt x="279" y="46" on="1"/>
        <pt x="293" y="46" on="0"/>
        <pt x="293" y="36" on="1"/>
        <pt x="293" y="31" on="0"/>
        <pt x="290" y="19" on="1"/>
        <pt x="286" y="6" on="0"/>
        <pt x="280" y="0" on="1"/>
        <pt x="268" y="0" on="1"/>
        <pt x="206" y="2" on="0"/>
        <pt x="151" y="2" on="1"/>
        <pt x="113" y="2" on="1"/>
        <pt x="71" y="2" on="0"/>
      </contour>
    </TTGlyph>
    <TTGlyph name="Xi" xMin="74" yMin="0" xMax="754" yMax="677">
      <contour>
        <pt x="243" y="668" on="1"/>
        <pt x="243" y="670" on="0"/>
        <pt x="250" y="677" on="1"/>
        <pt x="640" y="677" on="1"/>
        <pt x="752" y="677" on="0"/>
        <pt x="753" y="672" on="1"/>
        <pt x="753" y="671" on="1"/>
        <pt x="754" y="670" on="0"/>
        <pt x="754" y="667" on="1"/>
        <pt x="754" y="660" on="0"/>
        <pt x="726" y="529" on="0"/>
        <pt x="726" y="522" on="1"/>
        <pt x="724" y="520" on="0"/>
        <pt x="721" y="515" on="0"/>
        <pt x="719" y="515" on="0"/>
        <pt x="712" y="514" on="0"/>
        <pt x="704" y="514" on="1"/>
        <pt x="688" y="514" on="0"/>
        <pt x="685" y="516" on="1"/>
        <pt x="679" y="520" on="0"/>
        <pt x="683" y="543" on="1"/>
        <pt x="690" y="578" on="0"/>
        <pt x="690" y="590" on="1"/>
        <pt x="690" y="597" on="1"/>
        <pt x="686" y="597" on="1"/>
        <pt x="670" y="600" on="0"/>
        <pt x="468" y="600" on="1"/>
        <pt x="282" y="599" on="0"/>
        <pt x="275" y="596" on="1"/>
        <pt x="267" y="591" on="0"/>
        <pt x="251" y="539" on="1"/>
        <pt x="246" y="521" on="0"/>
        <pt x="240" y="514" on="0"/>
        <pt x="228" y="514" on="1"/>
        <pt x="224" y="514" on="1"/>
        <pt x="208" y="514" on="0"/>
        <pt x="206" y="516" on="1"/>
        <pt x="200" y="518" on="0"/>
        <pt x="200" y="525" on="1"/>
        <pt x="200" y="526" on="0"/>
        <pt x="241" y="663" on="0"/>
      </contour>
      <contour>
        <pt x="611" y="438" on="1"/>
        <pt x="612" y="437" on="0"/>
        <pt x="617" y="431" on="0"/>
        <pt x="618" y="430" on="1"/>
        <pt x="618" y="423" on="0"/>
        <pt x="599" y="352" on="1"/>
        <pt x="581" y="278" on="0"/>
        <pt x="579" y="273" on="1"/>
        <pt x="577" y="267" on="0"/>
        <pt x="558" y="267" on="1"/>
        <pt x="538" y="267" on="0"/>
        <pt x="536" y="274" on="1"/>
        <pt x="534" y="277" on="0"/>
        <pt x="542" y="311" on="0"/>
        <pt x="543" y="312" on="1"/>
        <pt x="543" y="314" on="0"/>
        <pt x="411" y="314" on="1"/>
        <pt x="278" y="314" on="1"/>
        <pt x="277" y="310" on="1"/>
        <pt x="277" y="307" on="0"/>
        <pt x="267" y="273" on="0"/>
        <pt x="266" y="272" on="1"/>
        <pt x="264" y="267" on="0"/>
        <pt x="245" y="267" on="1"/>
        <pt x="228" y="267" on="0"/>
        <pt x="224" y="274" on="1"/>
        <pt x="223" y="276" on="0"/>
        <pt x="222" y="277" on="1"/>
        <pt x="241" y="354" on="1"/>
        <pt x="261" y="431" on="0"/>
        <pt x="263" y="434" on="1"/>
        <pt x="264" y="435" on="0"/>
        <pt x="267" y="438" on="1"/>
        <pt x="299" y="438" on="1"/>
        <pt x="306" y="431" on="0"/>
        <pt x="306" y="428" on="1"/>
        <pt x="306" y="426" on="0"/>
        <pt x="305" y="421" on="0"/>
        <pt x="303" y="413" on="0"/>
        <pt x="302" y="409" on="1"/>
        <pt x="297" y="391" on="1"/>
        <pt x="430" y="391" on="1"/>
        <pt x="562" y="392" on="1"/>
        <pt x="567" y="412" on="1"/>
        <pt x="572" y="431" on="0"/>
        <pt x="579" y="438" on="1"/>
      </contour>
      <contour>
        <pt x="81" y="0" on="1"/>
        <pt x="74" y="7" on="0"/>
        <pt x="74" y="11" on="1"/>
        <pt x="74" y="14" on="0"/>
        <pt x="105" y="165" on="0"/>
        <pt x="106" y="168" on="1"/>
        <pt x="107" y="169" on="0"/>
        <pt x="108" y="170" on="1"/>
        <pt x="112" y="174" on="0"/>
        <pt x="127" y="174" on="1"/>
        <pt x="143" y="174" on="0"/>
        <pt x="146" y="172" on="1"/>
        <pt x="150" y="169" on="0"/>
        <pt x="151" y="161" on="0"/>
        <pt x="147" y="143" on="1"/>
        <pt x="140" y="101" on="0"/>
        <pt x="139" y="92" on="1"/>
        <pt x="139" y="81" on="0"/>
        <pt x="140" y="81" on="1"/>
        <pt x="142" y="80" on="1"/>
        <pt x="145" y="80" on="0"/>
        <pt x="152" y="79" on="0"/>
        <pt x="155" y="79" on="1"/>
        <pt x="165" y="78" on="0"/>
        <pt x="349" y="78" on="1"/>
        <pt x="547" y="78" on="0"/>
        <pt x="561" y="81" on="1"/>
        <pt x="564" y="82" on="0"/>
        <pt x="570" y="91" on="1"/>
        <pt x="575" y="103" on="0"/>
        <pt x="589" y="145" on="1"/>
        <pt x="595" y="166" on="0"/>
        <pt x="601" y="174" on="0"/>
        <pt x="611" y="174" on="1"/>
        <pt x="617" y="174" on="1"/>
        <pt x="633" y="174" on="0"/>
        <pt x="635" y="172" on="1"/>
        <pt x="641" y="170" on="0"/>
        <pt x="641" y="163" on="1"/>
        <pt x="641" y="162" on="0"/>
        <pt x="596" y="10" on="0"/>
        <pt x="595" y="7" on="1"/>
        <pt x="594" y="5" on="0"/>
        <pt x="591" y="2" on="1"/>
        <pt x="588" y="0" on="0"/>
        <pt x="334" y="0" on="1"/>
      </contour>
    </TTGlyph>
    <TTGlyph name="Y" xMin="198" yMin="0" xMax="875" yMax="683">
      <contour>
        <pt x="754" y="680" on="0"/>
        <pt x="798" y="680" on="0"/>
        <pt x="852" y="683" on="0"/>
        <pt x="862" y="683" on="1"/>
        <pt x="875" y="683" on="0"/>
        <pt x="875" y="673" on="1"/>
        <pt x="875" y="670" on="0"/>
        <pt x="868" y="644" on="0"/>
        <pt x="867" y="643" on="1"/>
        <pt x="865" y="637" on="0"/>
        <pt x="848" y="637" on="1"/>
        <pt x="788" y="634" on="0"/>
        <pt x="749" y="597" on="1"/>
        <pt x="733" y="581" on="0"/>
        <pt x="608" y="424" on="1"/>
        <pt x="487" y="273" on="1"/>
        <pt x="461" y="170" on="1"/>
        <pt x="454" y="145" on="0"/>
        <pt x="441" y="91" on="0"/>
        <pt x="434" y="61" on="0"/>
        <pt x="434" y="60" on="1"/>
        <pt x="434" y="51" on="0"/>
        <pt x="443" y="49" on="1"/>
        <pt x="455" y="46" on="0"/>
        <pt x="496" y="46" on="1"/>
        <pt x="514" y="46" on="1"/>
        <pt x="520" y="41" on="0"/>
        <pt x="522" y="34" on="0"/>
        <pt x="518" y="19" on="1"/>
        <pt x="514" y="6" on="0"/>
        <pt x="508" y="0" on="1"/>
        <pt x="495" y="0" on="1"/>
        <pt x="427" y="2" on="0"/>
        <pt x="364" y="2" on="1"/>
        <pt x="315" y="2" on="1"/>
        <pt x="258" y="2" on="0"/>
        <pt x="250" y="0" on="1"/>
        <pt x="241" y="0" on="1"/>
        <pt x="234" y="7" on="0"/>
        <pt x="234" y="11" on="1"/>
        <pt x="234" y="27" on="0"/>
        <pt x="241" y="41" on="1"/>
        <pt x="245" y="46" on="0"/>
        <pt x="275" y="46" on="1"/>
        <pt x="312" y="47" on="0"/>
        <pt x="335" y="53" on="0"/>
        <pt x="340" y="64" on="1"/>
        <pt x="340" y="65" on="0"/>
        <pt x="348" y="93" on="0"/>
        <pt x="362" y="148" on="0"/>
        <pt x="368" y="171" on="1"/>
        <pt x="393" y="274" on="1"/>
        <pt x="341" y="448" on="1"/>
        <pt x="288" y="622" on="0"/>
        <pt x="286" y="626" on="1"/>
        <pt x="278" y="636" on="0"/>
        <pt x="232" y="637" on="1"/>
        <pt x="198" y="637" on="0"/>
        <pt x="198" y="647" on="1"/>
        <pt x="198" y="649" on="0"/>
        <pt x="201" y="661" on="1"/>
        <pt x="205" y="678" on="0"/>
        <pt x="209" y="683" on="0"/>
        <pt x="223" y="683" on="1"/>
        <pt x="269" y="680" on="0"/>
        <pt x="325" y="680" on="1"/>
        <pt x="438" y="680" on="0"/>
        <pt x="455" y="683" on="1"/>
        <pt x="465" y="683" on="1"/>
        <pt x="472" y="676" on="0"/>
        <pt x="472" y="672" on="1"/>
        <pt x="472" y="656" on="0"/>
        <pt x="465" y="642" on="1"/>
        <pt x="460" y="637" on="0"/>
        <pt x="441" y="637" on="1"/>
        <pt x="415" y="635" on="0"/>
        <pt x="405" y="631" on="1"/>
        <pt x="395" y="629" on="0"/>
        <pt x="395" y="623" on="1"/>
        <pt x="395" y="621" on="0"/>
        <pt x="481" y="334" on="0"/>
        <pt x="483" y="334" on="0"/>
        <pt x="684" y="586" on="0"/>
        <pt x="688" y="591" on="1"/>
        <pt x="689" y="593" on="0"/>
        <pt x="700" y="611" on="0"/>
        <pt x="700" y="617" on="1"/>
        <pt x="700" y="637" on="0"/>
        <pt x="668" y="637" on="1"/>
        <pt x="655" y="637" on="0"/>
        <pt x="655" y="647" on="1"/>
        <pt x="655" y="654" on="0"/>
        <pt x="658" y="664" on="1"/>
        <pt x="660" y="672" on="0"/>
        <pt x="661" y="675" on="0"/>
        <pt x="665" y="682" on="0"/>
        <pt x="671" y="683" on="0"/>
        <pt x="677" y="683" on="1"/>
        <pt x="690" y="683" on="0"/>
      </contour>
    </TTGlyph>
    <TTGlyph name="Z" xMin="80" yMin="0" xMax="704" yMax="683">
      <contour>
        <pt x="699" y="683" on="1"/>
        <pt x="704" y="678" on="0"/>
        <pt x="704" y="675" on="1"/>
        <pt x="704" y="663" on="0"/>
        <pt x="697" y="649" on="1"/>
        <pt x="697" y="647" on="0"/>
        <pt x="449" y="348" on="1"/>
        <pt x="201" y="50" on="1"/>
        <pt x="266" y="49" on="1"/>
        <pt x="362" y="49" on="0"/>
        <pt x="395" y="57" on="1"/>
        <pt x="461" y="73" on="0"/>
        <pt x="495" y="116" on="1"/>
        <pt x="525" y="155" on="0"/>
        <pt x="556" y="251" on="1"/>
        <pt x="563" y="274" on="0"/>
        <pt x="568" y="282" on="0"/>
        <pt x="579" y="282" on="1"/>
        <pt x="585" y="282" on="1"/>
        <pt x="601" y="282" on="0"/>
        <pt x="603" y="280" on="1"/>
        <pt x="609" y="278" on="0"/>
        <pt x="609" y="271" on="1"/>
        <pt x="609" y="267" on="0"/>
        <pt x="528" y="4" on="0"/>
        <pt x="524" y="2" on="1"/>
        <pt x="521" y="0" on="0"/>
        <pt x="85" y="0" on="0"/>
        <pt x="83" y="2" on="1"/>
        <pt x="80" y="5" on="0"/>
        <pt x="80" y="8" on="1"/>
        <pt x="80" y="14" on="0"/>
        <pt x="87" y="37" on="0"/>
        <pt x="89" y="39" on="1"/>
        <pt x="90" y="41" on="0"/>
        <pt x="318" y="316" on="0"/>
        <pt x="574" y="625" on="0"/>
        <pt x="575" y="626" on="1"/>
        <pt x="584" y="637" on="1"/>
        <pt x="512" y="637" on="1"/>
        <pt x="435" y="636" on="0"/>
        <pt x="428" y="635" on="1"/>
        <pt x="356" y="625" on="0"/>
        <pt x="316" y="583" on="1"/>
        <pt x="278" y="545" on="0"/>
        <pt x="254" y="467" on="1"/>
        <pt x="247" y="446" on="0"/>
        <pt x="244" y="444" on="1"/>
        <pt x="240" y="442" on="0"/>
        <pt x="226" y="442" on="1"/>
        <pt x="203" y="442" on="0"/>
        <pt x="203" y="452" on="1"/>
        <pt x="203" y="455" on="0"/>
        <pt x="204" y="457" on="1"/>
        <pt x="266" y="673" on="0"/>
        <pt x="270" y="677" on="1"/>
        <pt x="270" y="681" on="0"/>
        <pt x="274" y="681" on="1"/>
        <pt x="276" y="683" on="0"/>
        <pt x="488" y="683" on="1"/>
      </contour>
    </TTGlyph>
    <TTGlyph name="a" xMin="101" yMin="-11" xMax="543" yMax="442">
      <contour>
        <pt x="461" y="422" on="1"/>
        <pt x="473" y="422" on="0"/>
        <pt x="494" y="406" on="0"/>
        <pt x="494" y="384" on="0"/>
        <pt x="423" y="103" on="0"/>
        <pt x="420" y="88" on="1"/>
        <pt x="418" y="80" on="0"/>
        <pt x="418" y="58" on="1"/>
        <pt x="418" y="29" on="0"/>
        <pt x="431" y="27" on="1"/>
        <pt x="444" y="23" on="0"/>
        <pt x="456" y="36" on="1"/>
        <pt x="475" y="56" on="0"/>
        <pt x="494" y="131" on="1"/>
        <pt x="500" y="151" on="0"/>
        <pt x="504" y="152" on="1"/>
        <pt x="507" y="153" on="0"/>
        <pt x="516" y="153" on="1"/>
        <pt x="521" y="153" on="1"/>
        <pt x="538" y="153" on="0"/>
        <pt x="540" y="151" on="1"/>
        <pt x="543" y="148" on="0"/>
        <pt x="543" y="144" on="1"/>
        <pt x="543" y="143" on="0"/>
        <pt x="541" y="129" on="1"/>
        <pt x="517" y="43" on="0"/>
        <pt x="486" y="12" on="1"/>
        <pt x="463" y="-11" on="0"/>
        <pt x="434" y="-11" on="1"/>
        <pt x="386" y="-11" on="0"/>
        <pt x="361" y="22" on="1"/>
        <pt x="347" y="39" on="0"/>
        <pt x="347" y="48" on="1"/>
        <pt x="346" y="48" on="1"/>
        <pt x="345" y="47" on="0"/>
        <pt x="339" y="42" on="0"/>
        <pt x="337" y="40" on="1"/>
        <pt x="282" y="-11" on="0"/>
        <pt x="228" y="-11" on="1"/>
        <pt x="210" y="-11" on="0"/>
        <pt x="192" y="-5" on="1"/>
        <pt x="151" y="9" on="0"/>
        <pt x="101" y="89" on="0"/>
        <pt x="101" y="146" on="1"/>
        <pt x="101" y="176" on="0"/>
        <pt x="111" y="219" on="1"/>
        <pt x="128" y="286" on="0"/>
        <pt x="211" y="397" on="0"/>
        <pt x="265" y="423" on="1"/>
        <pt x="305" y="442" on="0"/>
        <pt x="333" y="442" on="1"/>
        <pt x="370" y="442" on="0"/>
        <pt x="394" y="424" on="1"/>
        <pt x="403" y="417" on="0"/>
        <pt x="419" y="396" on="1"/>
        <pt x="422" y="406" on="0"/>
        <pt x="447" y="422" on="0"/>
      </contour>
      <contour>
        <pt x="388" y="361" on="1"/>
        <pt x="372" y="405" on="0"/>
        <pt x="333" y="405" on="1"/>
        <pt x="302" y="405" on="0"/>
        <pt x="271" y="372" on="1"/>
        <pt x="249" y="349" on="0"/>
        <pt x="220" y="283" on="0"/>
        <pt x="203" y="215" on="1"/>
        <pt x="184" y="135" on="0"/>
        <pt x="184" y="108" on="1"/>
        <pt x="184" y="100" on="1"/>
        <pt x="184" y="53" on="0"/>
        <pt x="207" y="35" on="1"/>
        <pt x="218" y="26" on="0"/>
        <pt x="235" y="26" on="1"/>
        <pt x="254" y="26" on="0"/>
        <pt x="274" y="38" on="1"/>
        <pt x="303" y="55" on="0"/>
        <pt x="330" y="91" on="1"/>
        <pt x="343" y="109" on="0"/>
        <pt x="350" y="128" on="0"/>
        <pt x="372" y="217" on="1"/>
        <pt x="397" y="317" on="0"/>
        <pt x="397" y="323" on="1"/>
        <pt x="397" y="336" on="0"/>
      </contour>
    </TTGlyph>
    <TTGlyph name="acutecomb" xMin="-173" yMin="500" xMax="39" yMax="697">
      <contour>
        <pt x="-148" y="500" on="1"/>
        <pt x="-153" y="500" on="0"/>
        <pt x="-173" y="521" on="0"/>
        <pt x="-173" y="528" on="1"/>
        <pt x="-173" y="529" on="0"/>
        <pt x="-172" y="530" on="1"/>
        <pt x="-172" y="532" on="1"/>
        <pt x="-170" y="534" on="0"/>
        <pt x="-24" y="686" on="0"/>
        <pt x="-21" y="688" on="1"/>
        <pt x="-7" y="697" on="0"/>
        <pt x="4" y="697" on="1"/>
        <pt x="20" y="697" on="0"/>
        <pt x="39" y="678" on="0"/>
        <pt x="39" y="648" on="0"/>
        <pt x="30" y="638" on="1"/>
        <pt x="26" y="631" on="0"/>
        <pt x="-50" y="573" on="1"/>
        <pt x="-68" y="559" on="0"/>
        <pt x="-109" y="527" on="0"/>
        <pt x="-133" y="509" on="0"/>
        <pt x="-135" y="507" on="1"/>
        <pt x="-144" y="500" on="0"/>
      </contour>
    </TTGlyph>
    <TTGlyph name="ae" xMin="85" yMin="-11" xMax="726" yMax="442">
      <contour>
        <pt x="450" y="223" on="1"/>
        <pt x="438" y="163" on="0"/>
        <pt x="438" y="133" on="1"/>
        <pt x="438" y="76" on="0"/>
        <pt x="465" y="47" on="1"/>
        <pt x="478" y="36" on="0"/>
        <pt x="493" y="29" on="1"/>
        <pt x="501" y="27" on="0"/>
        <pt x="516" y="27" on="1"/>
        <pt x="533" y="27" on="0"/>
        <pt x="539" y="28" on="1"/>
        <pt x="609" y="43" on="0"/>
        <pt x="659" y="111" on="1"/>
        <pt x="666" y="121" on="0"/>
        <pt x="673" y="121" on="1"/>
        <pt x="675" y="121" on="0"/>
        <pt x="696" y="99" on="0"/>
        <pt x="697" y="97" on="1"/>
        <pt x="698" y="93" on="0"/>
        <pt x="696" y="90" on="1"/>
        <pt x="686" y="70" on="0"/>
        <pt x="653" y="43" on="1"/>
        <pt x="588" y="-11" on="0"/>
        <pt x="513" y="-11" on="1"/>
        <pt x="453" y="-11" on="0"/>
        <pt x="409" y="40" on="1"/>
        <pt x="406" y="45" on="1"/>
        <pt x="402" y="31" on="1"/>
        <pt x="392" y="-11" on="0"/>
        <pt x="358" y="-11" on="1"/>
        <pt x="345" y="-11" on="0"/>
        <pt x="328" y="4" on="0"/>
        <pt x="328" y="16" on="1"/>
        <pt x="328" y="19" on="0"/>
        <pt x="332" y="37" on="0"/>
        <pt x="332" y="38" on="1"/>
        <pt x="328" y="35" on="0"/>
        <pt x="323" y="30" on="1"/>
        <pt x="274" y="-11" on="0"/>
        <pt x="229" y="-11" on="1"/>
        <pt x="133" y="-11" on="0"/>
        <pt x="94" y="60" on="1"/>
        <pt x="86" y="78" on="0"/>
        <pt x="85" y="100" on="1"/>
        <pt x="85" y="115" on="0"/>
        <pt x="87" y="124" on="1"/>
        <pt x="97" y="173" on="0"/>
        <pt x="129" y="218" on="1"/>
        <pt x="207" y="330" on="0"/>
        <pt x="422" y="411" on="1"/>
        <pt x="424" y="412" on="0"/>
        <pt x="429" y="418" on="1"/>
        <pt x="441" y="442" on="0"/>
        <pt x="466" y="442" on="1"/>
        <pt x="479" y="442" on="0"/>
        <pt x="497" y="426" on="0"/>
        <pt x="497" y="414" on="1"/>
        <pt x="497" y="412" on="0"/>
        <pt x="494" y="400" on="1"/>
        <pt x="504" y="406" on="1"/>
        <pt x="558" y="442" on="0"/>
        <pt x="618" y="442" on="1"/>
        <pt x="663" y="442" on="0"/>
        <pt x="726" y="396" on="0"/>
        <pt x="726" y="355" on="1"/>
        <pt x="726" y="310" on="0"/>
        <pt x="692" y="276" on="1"/>
        <pt x="659" y="245" on="0"/>
        <pt x="568" y="226" on="0"/>
        <pt x="484" y="223" on="1"/>
      </contour>
      <contour>
        <pt x="672" y="352" on="1"/>
        <pt x="672" y="376" on="0"/>
        <pt x="641" y="405" on="0"/>
        <pt x="613" y="405" on="1"/>
        <pt x="597" y="405" on="0"/>
        <pt x="579" y="400" on="1"/>
        <pt x="506" y="377" on="0"/>
        <pt x="472" y="294" on="1"/>
        <pt x="460" y="267" on="0"/>
        <pt x="460" y="261" on="1"/>
        <pt x="460" y="260" on="0"/>
        <pt x="473" y="260" on="1"/>
        <pt x="514" y="260" on="0"/>
        <pt x="572" y="265" on="0"/>
        <pt x="633" y="281" on="0"/>
        <pt x="668" y="317" on="0"/>
        <pt x="672" y="344" on="1"/>
      </contour>
      <contour>
        <pt x="172" y="75" on="1"/>
        <pt x="172" y="27" on="0"/>
        <pt x="234" y="27" on="1"/>
        <pt x="248" y="27" on="0"/>
        <pt x="258" y="30" on="1"/>
        <pt x="308" y="47" on="0"/>
        <pt x="350" y="122" on="1"/>
        <pt x="354" y="128" on="0"/>
        <pt x="386" y="252" on="0"/>
        <pt x="415" y="368" on="0"/>
        <pt x="415" y="370" on="0"/>
        <pt x="414" y="370" on="1"/>
        <pt x="394" y="360" on="1"/>
        <pt x="313" y="319" on="0"/>
        <pt x="196" y="193" on="0"/>
        <pt x="178" y="113" on="1"/>
        <pt x="172" y="89" on="0"/>
      </contour>
    </TTGlyph>
    <TTGlyph name="ampersand" xMin="127" yMin="-22" xMax="802" yMax="716">
      <contour>
        <pt x="626" y="300" on="1"/>
        <pt x="626" y="276" on="0"/>
        <pt x="590" y="242" on="0"/>
        <pt x="563" y="242" on="1"/>
        <pt x="530" y="244" on="0"/>
        <pt x="491" y="285" on="0"/>
        <pt x="491" y="320" on="1"/>
        <pt x="495" y="365" on="0"/>
        <pt x="531" y="403" on="1"/>
        <pt x="556" y="428" on="0"/>
        <pt x="613" y="466" on="1"/>
        <pt x="657" y="496" on="0"/>
        <pt x="712" y="551" on="0"/>
        <pt x="732" y="590" on="1"/>
        <pt x="738" y="601" on="1"/>
        <pt x="738" y="602" on="0"/>
        <pt x="736" y="602" on="1"/>
        <pt x="724" y="602" on="0"/>
        <pt x="707" y="624" on="0"/>
        <pt x="707" y="638" on="1"/>
        <pt x="707" y="661" on="0"/>
        <pt x="741" y="694" on="0"/>
        <pt x="764" y="694" on="1"/>
        <pt x="799" y="694" on="0"/>
        <pt x="802" y="660" on="1"/>
        <pt x="802" y="649" on="0"/>
        <pt x="799" y="638" on="1"/>
        <pt x="770" y="539" on="0"/>
        <pt x="692" y="470" on="1"/>
        <pt x="688" y="467" on="1"/>
        <pt x="735" y="396" on="0"/>
        <pt x="735" y="327" on="1"/>
        <pt x="735" y="300" on="0"/>
        <pt x="733" y="282" on="1"/>
        <pt x="711" y="142" on="0"/>
        <pt x="526" y="-22" on="0"/>
        <pt x="375" y="-22" on="1"/>
        <pt x="301" y="-22" on="0"/>
        <pt x="188" y="33" on="0"/>
        <pt x="157" y="80" on="1"/>
        <pt x="127" y="125" on="0"/>
        <pt x="127" y="181" on="1"/>
        <pt x="127" y="211" on="0"/>
        <pt x="141" y="253" on="1"/>
        <pt x="163" y="320" on="0"/>
        <pt x="207" y="374" on="1"/>
        <pt x="216" y="386" on="1"/>
        <pt x="209" y="421" on="0"/>
        <pt x="209" y="444" on="1"/>
        <pt x="209" y="468" on="0"/>
        <pt x="211" y="479" on="1"/>
        <pt x="225" y="566" on="0"/>
        <pt x="337" y="703" on="0"/>
        <pt x="405" y="714" on="1"/>
        <pt x="415" y="716" on="0"/>
        <pt x="424" y="716" on="1"/>
        <pt x="473" y="716" on="0"/>
        <pt x="530" y="651" on="0"/>
        <pt x="530" y="601" on="1"/>
        <pt x="530" y="563" on="0"/>
        <pt x="498" y="515" on="0"/>
        <pt x="467" y="515" on="1"/>
        <pt x="450" y="515" on="0"/>
        <pt x="427" y="536" on="0"/>
        <pt x="427" y="553" on="1"/>
        <pt x="427" y="573" on="0"/>
        <pt x="454" y="603" on="0"/>
        <pt x="472" y="608" on="1"/>
        <pt x="478" y="610" on="0"/>
        <pt x="481" y="610" on="1"/>
        <pt x="483" y="610" on="1"/>
        <pt x="483" y="617" on="1"/>
        <pt x="480" y="644" on="0"/>
        <pt x="446" y="679" on="0"/>
        <pt x="392" y="679" on="0"/>
        <pt x="344" y="633" on="0"/>
        <pt x="328" y="603" on="1"/>
        <pt x="311" y="568" on="0"/>
        <pt x="294" y="499" on="1"/>
        <pt x="291" y="488" on="0"/>
        <pt x="285" y="461" on="0"/>
        <pt x="284" y="452" on="1"/>
        <pt x="282" y="443" on="1"/>
        <pt x="316" y="458" on="0"/>
        <pt x="319" y="459" on="1"/>
        <pt x="347" y="469" on="0"/>
        <pt x="371" y="469" on="1"/>
        <pt x="398" y="469" on="0"/>
        <pt x="430" y="431" on="0"/>
        <pt x="430" y="404" on="1"/>
        <pt x="430" y="362" on="0"/>
        <pt x="396" y="324" on="1"/>
        <pt x="365" y="295" on="0"/>
        <pt x="331" y="295" on="1"/>
        <pt x="292" y="295" on="0"/>
        <pt x="256" y="322" on="1"/>
        <pt x="252" y="322" on="0"/>
        <pt x="230" y="239" on="1"/>
        <pt x="217" y="190" on="0"/>
        <pt x="217" y="158" on="1"/>
        <pt x="217" y="86" on="0"/>
        <pt x="309" y="15" on="0"/>
        <pt x="387" y="15" on="1"/>
        <pt x="453" y="15" on="0"/>
        <pt x="507" y="34" on="1"/>
        <pt x="629" y="79" on="0"/>
        <pt x="673" y="223" on="1"/>
        <pt x="688" y="272" on="0"/>
        <pt x="688" y="317" on="1"/>
        <pt x="688" y="361" on="0"/>
        <pt x="672" y="397" on="1"/>
        <pt x="667" y="408" on="0"/>
        <pt x="649" y="437" on="0"/>
        <pt x="647" y="437" on="1"/>
        <pt x="640" y="437" on="0"/>
        <pt x="592" y="401" on="1"/>
        <pt x="545" y="366" on="0"/>
        <pt x="538" y="332" on="1"/>
        <pt x="536" y="310" on="0"/>
        <pt x="541" y="310" on="1"/>
        <pt x="554" y="335" on="0"/>
        <pt x="587" y="335" on="1"/>
        <pt x="604" y="335" on="0"/>
        <pt x="626" y="316" on="0"/>
      </contour>
      <contour>
        <pt x="335" y="332" on="1"/>
        <pt x="359" y="332" on="0"/>
        <pt x="386" y="381" on="0"/>
        <pt x="386" y="412" on="1"/>
        <pt x="386" y="432" on="0"/>
        <pt x="366" y="432" on="1"/>
        <pt x="336" y="432" on="0"/>
        <pt x="306" y="402" on="1"/>
        <pt x="284" y="380" on="0"/>
        <pt x="284" y="375" on="1"/>
        <pt x="284" y="374" on="1"/>
        <pt x="285" y="372" on="0"/>
        <pt x="287" y="368" on="0"/>
        <pt x="287" y="366" on="1"/>
        <pt x="303" y="332" on="0"/>
      </contour>
    </TTGlyph>
    <TTGlyph name="asciicircum" xMin="260" yMin="527" xMax="528" yMax="694">
      <contour>
        <pt x="528" y="555" on="1"/>
        <pt x="528" y="550" on="0"/>
        <pt x="501" y="527" on="0"/>
        <pt x="496" y="527" on="1"/>
        <pt x="492" y="527" on="0"/>
        <pt x="488" y="531" on="1"/>
        <pt x="487" y="532" on="0"/>
        <pt x="449" y="580" on="1"/>
        <pt x="414" y="625" on="1"/>
        <pt x="353" y="578" on="1"/>
        <pt x="339" y="567" on="0"/>
        <pt x="307" y="542" on="0"/>
        <pt x="298" y="536" on="1"/>
        <pt x="290" y="529" on="1"/>
        <pt x="284" y="525" on="0"/>
        <pt x="278" y="529" on="1"/>
        <pt x="276" y="530" on="0"/>
        <pt x="261" y="551" on="0"/>
        <pt x="260" y="553" on="1"/>
        <pt x="260" y="559" on="0"/>
        <pt x="263" y="562" on="1"/>
        <pt x="265" y="564" on="0"/>
        <pt x="420" y="692" on="0"/>
        <pt x="422" y="694" on="0"/>
        <pt x="425" y="694" on="1"/>
        <pt x="430" y="694" on="0"/>
        <pt x="433" y="691" on="1"/>
        <pt x="435" y="689" on="0"/>
        <pt x="521" y="569" on="0"/>
        <pt x="526" y="561" on="1"/>
        <pt x="528" y="557" on="0"/>
      </contour>
    </TTGlyph>
    <TTGlyph name="asciitilde" xMin="247" yMin="208" xMax="571" yMax="318">
      <contour>
        <pt x="266" y="208" on="1"/>
        <pt x="262" y="208" on="0"/>
        <pt x="247" y="223" on="0"/>
        <pt x="247" y="233" on="0"/>
        <pt x="253" y="240" on="0"/>
        <pt x="274" y="259" on="1"/>
        <pt x="324" y="308" on="0"/>
        <pt x="355" y="316" on="1"/>
        <pt x="363" y="318" on="0"/>
        <pt x="375" y="318" on="0"/>
        <pt x="383" y="316" on="1"/>
        <pt x="400" y="312" on="0"/>
        <pt x="424" y="288" on="1"/>
        <pt x="448" y="265" on="0"/>
        <pt x="464" y="265" on="1"/>
        <pt x="487" y="265" on="0"/>
        <pt x="538" y="310" on="1"/>
        <pt x="546" y="318" on="0"/>
        <pt x="550" y="318" on="1"/>
        <pt x="557" y="318" on="0"/>
        <pt x="571" y="301" on="0"/>
        <pt x="571" y="297" on="1"/>
        <pt x="570" y="293" on="0"/>
        <pt x="548" y="271" on="1"/>
        <pt x="516" y="239" on="0"/>
        <pt x="495" y="226" on="1"/>
        <pt x="471" y="209" on="0"/>
        <pt x="451" y="209" on="1"/>
        <pt x="447" y="209" on="1"/>
        <pt x="435" y="209" on="0"/>
        <pt x="429" y="211" on="1"/>
        <pt x="414" y="218" on="0"/>
        <pt x="397" y="235" on="1"/>
        <pt x="377" y="254" on="0"/>
        <pt x="368" y="259" on="1"/>
        <pt x="364" y="261" on="0"/>
        <pt x="355" y="261" on="1"/>
        <pt x="328" y="261" on="0"/>
        <pt x="285" y="221" on="1"/>
        <pt x="271" y="208" on="0"/>
      </contour>
    </TTGlyph>
    <TTGlyph name="asterisk" xMin="195" yMin="320" xMax="584" yMax="750">
      <contour>
        <pt x="239" y="616" on="1"/>
        <pt x="239" y="631" on="0"/>
        <pt x="266" y="658" on="0"/>
        <pt x="282" y="658" on="1"/>
        <pt x="283" y="658" on="0"/>
        <pt x="287" y="657" on="0"/>
        <pt x="288" y="657" on="1"/>
        <pt x="293" y="656" on="0"/>
        <pt x="335" y="615" on="1"/>
        <pt x="378" y="573" on="1"/>
        <pt x="384" y="606" on="0"/>
        <pt x="391" y="647" on="1"/>
        <pt x="401" y="708" on="0"/>
        <pt x="406" y="730" on="0"/>
        <pt x="413" y="737" on="1"/>
        <pt x="421" y="745" on="0"/>
        <pt x="434" y="749" on="1"/>
        <pt x="435" y="749" on="0"/>
        <pt x="443" y="750" on="0"/>
        <pt x="445" y="750" on="1"/>
        <pt x="467" y="748" on="0"/>
        <pt x="469" y="728" on="1"/>
        <pt x="469" y="723" on="0"/>
        <pt x="444" y="646" on="0"/>
        <pt x="432" y="610" on="1"/>
        <pt x="420" y="573" on="1"/>
        <pt x="450" y="593" on="1"/>
        <pt x="480" y="613" on="0"/>
        <pt x="543" y="654" on="0"/>
        <pt x="546" y="655" on="1"/>
        <pt x="552" y="658" on="0"/>
        <pt x="558" y="658" on="1"/>
        <pt x="568" y="658" on="0"/>
        <pt x="584" y="642" on="0"/>
        <pt x="584" y="631" on="1"/>
        <pt x="584" y="609" on="0"/>
        <pt x="562" y="598" on="1"/>
        <pt x="555" y="595" on="0"/>
        <pt x="430" y="536" on="0"/>
        <pt x="428" y="536" on="1"/>
        <pt x="427" y="535" on="0"/>
        <pt x="439" y="526" on="0"/>
        <pt x="479" y="502" on="1"/>
        <pt x="530" y="472" on="0"/>
        <pt x="534" y="468" on="1"/>
        <pt x="539" y="463" on="0"/>
        <pt x="539" y="450" on="1"/>
        <pt x="538" y="435" on="0"/>
        <pt x="511" y="412" on="0"/>
        <pt x="497" y="412" on="1"/>
        <pt x="489" y="412" on="0"/>
        <pt x="486" y="414" on="1"/>
        <pt x="482" y="416" on="0"/>
        <pt x="442" y="456" on="1"/>
        <pt x="400" y="497" on="0"/>
        <pt x="400" y="494" on="1"/>
        <pt x="387" y="420" on="1"/>
        <pt x="377" y="361" on="0"/>
        <pt x="372" y="339" on="0"/>
        <pt x="365" y="332" on="1"/>
        <pt x="353" y="320" on="0"/>
        <pt x="336" y="320" on="1"/>
        <pt x="331" y="320" on="1"/>
        <pt x="322" y="320" on="0"/>
        <pt x="309" y="334" on="0"/>
        <pt x="309" y="343" on="1"/>
        <pt x="359" y="496" on="1"/>
        <pt x="234" y="414" on="1"/>
        <pt x="228" y="411" on="0"/>
        <pt x="221" y="411" on="1"/>
        <pt x="195" y="411" on="0"/>
        <pt x="195" y="439" on="1"/>
        <pt x="197" y="450" on="0"/>
        <pt x="199" y="454" on="1"/>
        <pt x="204" y="463" on="0"/>
        <pt x="226" y="476" on="0"/>
        <pt x="283" y="502" on="1"/>
        <pt x="353" y="534" on="1"/>
        <pt x="329" y="549" on="0"/>
        <pt x="300" y="566" on="1"/>
        <pt x="248" y="598" on="0"/>
        <pt x="244" y="602" on="1"/>
        <pt x="239" y="609" on="0"/>
      </contour>
    </TTGlyph>
    <TTGlyph name="at" xMin="152" yMin="-11" xMax="789" yMax="705">
      <contour>
        <pt x="617" y="185" on="1"/>
        <pt x="616" y="171" on="0"/>
        <pt x="620" y="162" on="0"/>
        <pt x="628" y="162" on="1"/>
        <pt x="640" y="162" on="0"/>
        <pt x="653" y="170" on="1"/>
        <pt x="686" y="191" on="0"/>
        <pt x="712" y="278" on="1"/>
        <pt x="737" y="361" on="0"/>
        <pt x="742" y="416" on="1"/>
        <pt x="743" y="423" on="0"/>
        <pt x="743" y="442" on="1"/>
        <pt x="743" y="534" on="0"/>
        <pt x="658" y="653" on="0"/>
        <pt x="586" y="665" on="1"/>
        <pt x="570" y="668" on="0"/>
        <pt x="553" y="668" on="1"/>
        <pt x="504" y="668" on="0"/>
        <pt x="450" y="645" on="1"/>
        <pt x="350" y="601" on="0"/>
        <pt x="198" y="380" on="0"/>
        <pt x="198" y="250" on="1"/>
        <pt x="198" y="169" on="0"/>
        <pt x="267" y="57" on="0"/>
        <pt x="326" y="36" on="1"/>
        <pt x="355" y="26" on="0"/>
        <pt x="394" y="26" on="1"/>
        <pt x="423" y="26" on="0"/>
        <pt x="454" y="30" on="1"/>
        <pt x="547" y="41" on="0"/>
        <pt x="640" y="80" on="1"/>
        <pt x="650" y="84" on="1"/>
        <pt x="675" y="84" on="1"/>
        <pt x="697" y="84" on="0"/>
        <pt x="707" y="82" on="0"/>
        <pt x="708" y="78" on="1"/>
        <pt x="711" y="69" on="0"/>
        <pt x="700" y="64" on="1"/>
        <pt x="697" y="63" on="0"/>
        <pt x="695" y="62" on="1"/>
        <pt x="588" y="11" on="0"/>
        <pt x="468" y="-5" on="1"/>
        <pt x="429" y="-11" on="0"/>
        <pt x="383" y="-11" on="1"/>
        <pt x="242" y="-11" on="0"/>
        <pt x="181" y="115" on="1"/>
        <pt x="152" y="167" on="0"/>
        <pt x="152" y="248" on="1"/>
        <pt x="152" y="281" on="0"/>
        <pt x="153" y="291" on="1"/>
        <pt x="171" y="434" on="0"/>
        <pt x="268" y="552" on="1"/>
        <pt x="303" y="590" on="0"/>
        <pt x="324" y="608" on="1"/>
        <pt x="422" y="692" on="0"/>
        <pt x="529" y="704" on="1"/>
        <pt x="531" y="704" on="0"/>
        <pt x="546" y="705" on="0"/>
        <pt x="551" y="705" on="1"/>
        <pt x="669" y="705" on="0"/>
        <pt x="736" y="620" on="1"/>
        <pt x="789" y="549" on="0"/>
        <pt x="789" y="454" on="1"/>
        <pt x="789" y="429" on="0"/>
        <pt x="787" y="407" on="1"/>
        <pt x="782" y="356" on="0"/>
        <pt x="741" y="226" on="0"/>
        <pt x="720" y="192" on="1"/>
        <pt x="677" y="125" on="0"/>
        <pt x="617" y="125" on="1"/>
        <pt x="566" y="125" on="0"/>
        <pt x="546" y="164" on="1"/>
        <pt x="541" y="174" on="0"/>
        <pt x="541" y="178" on="0"/>
        <pt x="540" y="178" on="1"/>
        <pt x="540" y="179" on="0"/>
        <pt x="535" y="175" on="0"/>
        <pt x="531" y="172" on="1"/>
        <pt x="474" y="125" on="0"/>
        <pt x="417" y="125" on="1"/>
        <pt x="354" y="125" on="0"/>
        <pt x="279" y="216" on="0"/>
        <pt x="279" y="284" on="1"/>
        <pt x="279" y="394" on="0"/>
        <pt x="434" y="569" on="0"/>
        <pt x="523" y="569" on="1"/>
        <pt x="569" y="569" on="0"/>
        <pt x="603" y="537" on="1"/>
        <pt x="623" y="515" on="0"/>
        <pt x="632" y="490" on="1"/>
        <pt x="637" y="480" on="1"/>
        <pt x="657" y="479" on="1"/>
        <pt x="665" y="479" on="1"/>
        <pt x="684" y="479" on="0"/>
        <pt x="684" y="470" on="1"/>
        <pt x="684" y="465" on="0"/>
        <pt x="650" y="333" on="1"/>
        <pt x="617" y="199" on="1"/>
      </contour>
      <contour>
        <pt x="568" y="511" on="1"/>
        <pt x="547" y="532" on="0"/>
        <pt x="518" y="532" on="1"/>
        <pt x="509" y="532" on="0"/>
        <pt x="506" y="531" on="1"/>
        <pt x="476" y="524" on="0"/>
        <pt x="415" y="463" on="0"/>
        <pt x="393" y="419" on="1"/>
        <pt x="356" y="345" on="0"/>
        <pt x="356" y="271" on="1"/>
        <pt x="356" y="192" on="0"/>
        <pt x="396" y="169" on="1"/>
        <pt x="406" y="162" on="0"/>
        <pt x="423" y="162" on="1"/>
        <pt x="446" y="162" on="0"/>
        <pt x="475" y="178" on="1"/>
        <pt x="509" y="198" on="0"/>
        <pt x="552" y="255" on="1"/>
        <pt x="575" y="348" on="1"/>
        <pt x="598" y="440" on="0"/>
        <pt x="598" y="445" on="1"/>
        <pt x="598" y="461" on="0"/>
        <pt x="579" y="500" on="0"/>
      </contour>
    </TTGlyph>
    <TTGlyph name="b" xMin="108" yMin="-11" xMax="467" yMax="694">
      <contour>
        <pt x="158" y="683" on="1"/>
        <pt x="159" y="683" on="0"/>
        <pt x="230" y="688" on="1"/>
        <pt x="300" y="694" on="1"/>
        <pt x="312" y="694" on="0"/>
        <pt x="312" y="676" on="0"/>
        <pt x="279" y="544" on="1"/>
        <pt x="243" y="405" on="0"/>
        <pt x="243" y="401" on="0"/>
        <pt x="249" y="407" on="1"/>
        <pt x="295" y="442" on="0"/>
        <pt x="338" y="442" on="1"/>
        <pt x="397" y="442" on="0"/>
        <pt x="467" y="351" on="0"/>
        <pt x="467" y="284" on="1"/>
        <pt x="467" y="200" on="0"/>
        <pt x="418" y="118" on="1"/>
        <pt x="381" y="56" on="0"/>
        <pt x="324" y="19" on="1"/>
        <pt x="275" y="-11" on="0"/>
        <pt x="229" y="-11" on="1"/>
        <pt x="177" y="-11" on="0"/>
        <pt x="108" y="74" on="0"/>
        <pt x="108" y="142" on="1"/>
        <pt x="108" y="168" on="0"/>
        <pt x="110" y="184" on="1"/>
        <pt x="216" y="616" on="1"/>
        <pt x="216" y="628" on="0"/>
        <pt x="210" y="632" on="1"/>
        <pt x="199" y="636" on="0"/>
        <pt x="170" y="637" on="1"/>
        <pt x="149" y="637" on="1"/>
        <pt x="143" y="643" on="0"/>
        <pt x="142" y="647" on="0"/>
        <pt x="145" y="664" on="1"/>
        <pt x="150" y="683" on="0"/>
      </contour>
      <contour>
        <pt x="178" y="109" on="1"/>
        <pt x="178" y="27" on="0"/>
        <pt x="234" y="27" on="1"/>
        <pt x="247" y="27" on="0"/>
        <pt x="254" y="29" on="1"/>
        <pt x="295" y="44" on="0"/>
        <pt x="323" y="94" on="1"/>
        <pt x="343" y="129" on="0"/>
        <pt x="366" y="220" on="1"/>
        <pt x="384" y="293" on="0"/>
        <pt x="384" y="332" on="1"/>
        <pt x="384" y="354" on="0"/>
        <pt x="382" y="361" on="1"/>
        <pt x="371" y="405" on="0"/>
        <pt x="332" y="405" on="1"/>
        <pt x="323" y="405" on="0"/>
        <pt x="308" y="400" on="1"/>
        <pt x="267" y="384" on="0"/>
        <pt x="228" y="326" on="1"/>
        <pt x="222" y="317" on="1"/>
        <pt x="205" y="250" on="1"/>
        <pt x="178" y="142" on="0"/>
      </contour>
    </TTGlyph>
    <TTGlyph name="bracketleft" xMin="73" yMin="-250" xMax="446" yMax="750">
      <contour>
        <pt x="349" y="706" on="1"/>
        <pt x="349" y="704" on="0"/>
        <pt x="121" y="-207" on="0"/>
        <pt x="120" y="-208" on="1"/>
        <pt x="120" y="-210" on="0"/>
        <pt x="159" y="-210" on="1"/>
        <pt x="190" y="-210" on="1"/>
        <pt x="202" y="-210" on="0"/>
        <pt x="207" y="-219" on="0"/>
        <pt x="204" y="-232" on="1"/>
        <pt x="200" y="-244" on="0"/>
        <pt x="194" y="-250" on="1"/>
        <pt x="137" y="-250" on="1"/>
        <pt x="80" y="-250" on="0"/>
        <pt x="77" y="-248" on="1"/>
        <pt x="73" y="-244" on="0"/>
        <pt x="73" y="-242" on="1"/>
        <pt x="73" y="-232" on="0"/>
        <pt x="316" y="743" on="0"/>
        <pt x="321" y="747" on="1"/>
        <pt x="324" y="750" on="1"/>
        <pt x="381" y="750" on="1"/>
        <pt x="438" y="750" on="0"/>
        <pt x="441" y="748" on="1"/>
        <pt x="446" y="743" on="0"/>
        <pt x="446" y="739" on="1"/>
        <pt x="446" y="722" on="0"/>
        <pt x="434" y="710" on="1"/>
        <pt x="350" y="710" on="1"/>
      </contour>
    </TTGlyph>
    <TTGlyph name="bracketright" xMin="-14" yMin="-250" xMax="359" yMax="750">
      <contour>
        <pt x="83" y="-206" on="1"/>
        <pt x="83" y="-204" on="0"/>
        <pt x="311" y="707" on="0"/>
        <pt x="312" y="708" on="1"/>
        <pt x="312" y="710" on="0"/>
        <pt x="273" y="710" on="1"/>
        <pt x="242" y="710" on="1"/>
        <pt x="230" y="710" on="0"/>
        <pt x="225" y="719" on="0"/>
        <pt x="228" y="732" on="1"/>
        <pt x="232" y="744" on="0"/>
        <pt x="238" y="750" on="1"/>
        <pt x="295" y="750" on="1"/>
        <pt x="352" y="750" on="0"/>
        <pt x="355" y="748" on="1"/>
        <pt x="359" y="744" on="0"/>
        <pt x="359" y="742" on="1"/>
        <pt x="359" y="732" on="0"/>
        <pt x="116" y="-243" on="0"/>
        <pt x="111" y="-247" on="1"/>
        <pt x="108" y="-250" on="1"/>
        <pt x="51" y="-250" on="1"/>
        <pt x="-6" y="-250" on="0"/>
        <pt x="-9" y="-248" on="1"/>
        <pt x="-14" y="-243" on="0"/>
        <pt x="-14" y="-239" on="1"/>
        <pt x="-14" y="-222" on="0"/>
        <pt x="-2" y="-210" on="1"/>
        <pt x="82" y="-210" on="1"/>
      </contour>
    </TTGlyph>
    <TTGlyph name="c" xMin="103" yMin="-10" xMax="469" yMax="441">
      <contour>
        <pt x="414" y="383" on="1"/>
        <pt x="390" y="402" on="0"/>
        <pt x="365" y="405" on="1"/>
        <pt x="344" y="405" on="0"/>
        <pt x="328" y="399" on="1"/>
        <pt x="261" y="377" on="0"/>
        <pt x="227" y="294" on="1"/>
        <pt x="203" y="236" on="0"/>
        <pt x="188" y="146" on="1"/>
        <pt x="187" y="138" on="0"/>
        <pt x="187" y="119" on="1"/>
        <pt x="187" y="46" on="0"/>
        <pt x="238" y="29" on="1"/>
        <pt x="245" y="27" on="0"/>
        <pt x="263" y="27" on="1"/>
        <pt x="299" y="27" on="0"/>
        <pt x="330" y="40" on="1"/>
        <pt x="385" y="60" on="0"/>
        <pt x="426" y="109" on="1"/>
        <pt x="436" y="121" on="0"/>
        <pt x="444" y="121" on="0"/>
        <pt x="464" y="101" on="0"/>
        <pt x="466" y="97" on="1"/>
        <pt x="469" y="92" on="0"/>
        <pt x="455" y="77" on="1"/>
        <pt x="401" y="14" on="0"/>
        <pt x="313" y="-5" on="1"/>
        <pt x="288" y="-10" on="0"/>
        <pt x="257" y="-10" on="1"/>
        <pt x="233" y="-10" on="0"/>
        <pt x="224" y="-8" on="1"/>
        <pt x="168" y="3" on="0"/>
        <pt x="103" y="89" on="0"/>
        <pt x="103" y="155" on="1"/>
        <pt x="103" y="182" on="0"/>
        <pt x="108" y="206" on="1"/>
        <pt x="123" y="281" on="0"/>
        <pt x="222" y="402" on="0"/>
        <pt x="290" y="427" on="1"/>
        <pt x="324" y="441" on="0"/>
        <pt x="348" y="441" on="1"/>
        <pt x="358" y="441" on="1"/>
        <pt x="449" y="441" on="0"/>
        <pt x="467" y="376" on="1"/>
        <pt x="469" y="371" on="0"/>
        <pt x="469" y="356" on="1"/>
        <pt x="469" y="327" on="0"/>
        <pt x="436" y="289" on="0"/>
        <pt x="410" y="289" on="1"/>
        <pt x="393" y="289" on="0"/>
        <pt x="370" y="308" on="0"/>
        <pt x="370" y="325" on="1"/>
        <pt x="370" y="362" on="0"/>
        <pt x="404" y="378" on="1"/>
      </contour>
    </TTGlyph>
    <TTGlyph name="colon" xMin="107" yMin="0" xMax="308" yMax="431">
      <contour>
        <pt x="233" y="310" on="1"/>
        <pt x="212" y="310" on="0"/>
        <pt x="184" y="338" on="0"/>
        <pt x="184" y="358" on="1"/>
        <pt x="184" y="387" on="0"/>
        <pt x="229" y="431" on="0"/>
        <pt x="258" y="431" on="1"/>
        <pt x="279" y="431" on="0"/>
        <pt x="308" y="404" on="0"/>
        <pt x="308" y="383" on="1"/>
        <pt x="308" y="354" on="0"/>
        <pt x="262" y="310" on="0"/>
      </contour>
      <contour>
        <pt x="156" y="0" on="1"/>
        <pt x="135" y="0" on="0"/>
        <pt x="107" y="27" on="0"/>
        <pt x="107" y="50" on="1"/>
        <pt x="107" y="68" on="0"/>
        <pt x="122" y="91" on="1"/>
        <pt x="148" y="121" on="0"/>
        <pt x="181" y="121" on="1"/>
        <pt x="202" y="121" on="0"/>
        <pt x="231" y="94" on="0"/>
        <pt x="231" y="72" on="1"/>
        <pt x="231" y="43" on="0"/>
        <pt x="186" y="0" on="0"/>
      </contour>
    </TTGlyph>
    <TTGlyph name="comma" xMin="69" yMin="-194" xMax="232" yMax="121">
      <contour>
        <pt x="180" y="121" on="1"/>
        <pt x="232" y="121" on="0"/>
        <pt x="232" y="54" on="1"/>
        <pt x="232" y="36" on="0"/>
        <pt x="230" y="24" on="1"/>
        <pt x="210" y="-70" on="0"/>
        <pt x="147" y="-141" on="1"/>
        <pt x="132" y="-159" on="0"/>
        <pt x="94" y="-194" on="0"/>
        <pt x="88" y="-194" on="1"/>
        <pt x="84" y="-194" on="0"/>
        <pt x="69" y="-174" on="0"/>
        <pt x="69" y="-171" on="1"/>
        <pt x="69" y="-167" on="0"/>
        <pt x="80" y="-158" on="1"/>
        <pt x="98" y="-145" on="0"/>
        <pt x="124" y="-114" on="1"/>
        <pt x="165" y="-66" on="0"/>
        <pt x="184" y="-6" on="1"/>
        <pt x="188" y="6" on="0"/>
        <pt x="188" y="7" on="1"/>
        <pt x="186" y="7" on="0"/>
        <pt x="183" y="5" on="1"/>
        <pt x="168" y="0" on="0"/>
        <pt x="156" y="0" on="1"/>
        <pt x="133" y="0" on="0"/>
        <pt x="106" y="24" on="0"/>
        <pt x="106" y="46" on="1"/>
        <pt x="106" y="74" on="0"/>
        <pt x="142" y="114" on="0"/>
        <pt x="167" y="120" on="1"/>
        <pt x="168" y="120" on="0"/>
        <pt x="178" y="121" on="0"/>
      </contour>
    </TTGlyph>
    <TTGlyph name="d" xMin="101" yMin="-11" xMax="567" yMax="694">
      <contour>
        <pt x="413" y="683" on="1"/>
        <pt x="414" y="683" on="0"/>
        <pt x="484" y="688" on="1"/>
        <pt x="555" y="694" on="1"/>
        <pt x="567" y="694" on="0"/>
        <pt x="567" y="678" on="0"/>
        <pt x="419" y="86" on="1"/>
        <pt x="418" y="80" on="0"/>
        <pt x="418" y="61" on="1"/>
        <pt x="418" y="30" on="0"/>
        <pt x="431" y="27" on="1"/>
        <pt x="444" y="23" on="0"/>
        <pt x="456" y="36" on="1"/>
        <pt x="475" y="56" on="0"/>
        <pt x="494" y="131" on="1"/>
        <pt x="500" y="151" on="0"/>
        <pt x="504" y="152" on="1"/>
        <pt x="507" y="153" on="0"/>
        <pt x="516" y="153" on="1"/>
        <pt x="521" y="153" on="1"/>
        <pt x="538" y="153" on="0"/>
        <pt x="540" y="151" on="1"/>
        <pt x="545" y="147" on="0"/>
        <pt x="541" y="129" on="1"/>
        <pt x="517" y="43" on="0"/>
        <pt x="486" y="12" on="1"/>
        <pt x="463" y="-11" on="0"/>
        <pt x="434" y="-11" on="1"/>
        <pt x="386" y="-11" on="0"/>
        <pt x="361" y="22" on="1"/>
        <pt x="347" y="39" on="0"/>
        <pt x="347" y="48" on="1"/>
        <pt x="346" y="48" on="1"/>
        <pt x="345" y="47" on="0"/>
        <pt x="339" y="42" on="0"/>
        <pt x="337" y="40" on="1"/>
        <pt x="282" y="-11" on="0"/>
        <pt x="228" y="-11" on="1"/>
        <pt x="210" y="-11" on="0"/>
        <pt x="192" y="-5" on="1"/>
        <pt x="151" y="9" on="0"/>
        <pt x="101" y="89" on="0"/>
        <pt x="101" y="146" on="1"/>
        <pt x="101" y="176" on="0"/>
        <pt x="111" y="219" on="1"/>
        <pt x="131" y="301" on="0"/>
        <pt x="243" y="425" on="0"/>
        <pt x="310" y="439" on="1"/>
        <pt x="318" y="441" on="0"/>
        <pt x="337" y="441" on="1"/>
        <pt x="366" y="441" on="0"/>
        <pt x="399" y="421" on="0"/>
        <pt x="417" y="400" on="1"/>
        <pt x="419" y="405" on="0"/>
        <pt x="470" y="610" on="0"/>
        <pt x="471" y="616" on="1"/>
        <pt x="471" y="628" on="0"/>
        <pt x="465" y="632" on="1"/>
        <pt x="454" y="636" on="0"/>
        <pt x="425" y="637" on="1"/>
        <pt x="404" y="637" on="1"/>
        <pt x="398" y="643" on="0"/>
        <pt x="397" y="647" on="0"/>
        <pt x="400" y="664" on="1"/>
        <pt x="405" y="683" on="0"/>
      </contour>
      <contour>
        <pt x="388" y="361" on="1"/>
        <pt x="372" y="405" on="0"/>
        <pt x="333" y="405" on="1"/>
        <pt x="302" y="405" on="0"/>
        <pt x="271" y="372" on="1"/>
        <pt x="249" y="349" on="0"/>
        <pt x="220" y="283" on="0"/>
        <pt x="203" y="215" on="1"/>
        <pt x="184" y="135" on="0"/>
        <pt x="184" y="108" on="1"/>
        <pt x="184" y="100" on="1"/>
        <pt x="184" y="71" on="0"/>
        <pt x="191" y="56" on="1"/>
        <pt x="204" y="26" on="0"/>
        <pt x="235" y="26" on="1"/>
        <pt x="248" y="26" on="0"/>
        <pt x="261" y="32" on="1"/>
        <pt x="281" y="40" on="0"/>
        <pt x="334" y="92" on="0"/>
        <pt x="344" y="112" on="1"/>
        <pt x="347" y="117" on="0"/>
        <pt x="397" y="318" on="0"/>
        <pt x="397" y="323" on="1"/>
        <pt x="397" y="336" on="0"/>
      </contour>
    </TTGlyph>
    <TTGlyph name="dotlessi" xMin="75" yMin="-10" xMax="340" yMax="441">
      <contour>
        <pt x="214" y="441" on="1"/>
        <pt x="250" y="441" on="0"/>
        <pt x="293" y="395" on="0"/>
        <pt x="293" y="357" on="1"/>
        <pt x="291" y="338" on="0"/>
        <pt x="290" y="333" on="1"/>
        <pt x="289" y="330" on="0"/>
        <pt x="200" y="85" on="0"/>
        <pt x="199" y="82" on="1"/>
        <pt x="193" y="62" on="0"/>
        <pt x="193" y="46" on="1"/>
        <pt x="193" y="26" on="0"/>
        <pt x="209" y="26" on="1"/>
        <pt x="228" y="26" on="0"/>
        <pt x="247" y="43" on="1"/>
        <pt x="273" y="71" on="0"/>
        <pt x="292" y="136" on="1"/>
        <pt x="295" y="148" on="0"/>
        <pt x="300" y="153" on="0"/>
        <pt x="311" y="153" on="1"/>
        <pt x="317" y="153" on="1"/>
        <pt x="334" y="153" on="0"/>
        <pt x="336" y="151" on="1"/>
        <pt x="340" y="147" on="0"/>
        <pt x="340" y="139" on="0"/>
        <pt x="337" y="130" on="1"/>
        <pt x="303" y="16" on="0"/>
        <pt x="228" y="-8" on="1"/>
        <pt x="220" y="-10" on="0"/>
        <pt x="204" y="-10" on="1"/>
        <pt x="166" y="-10" on="0"/>
        <pt x="122" y="36" on="0"/>
        <pt x="122" y="71" on="1"/>
        <pt x="122" y="84" on="0"/>
        <pt x="125" y="98" on="1"/>
        <pt x="126" y="101" on="0"/>
        <pt x="215" y="346" on="0"/>
        <pt x="215" y="347" on="1"/>
        <pt x="221" y="368" on="0"/>
        <pt x="221" y="384" on="1"/>
        <pt x="221" y="396" on="0"/>
        <pt x="214" y="405" on="0"/>
        <pt x="203" y="405" on="1"/>
        <pt x="184" y="404" on="0"/>
        <pt x="166" y="386" on="1"/>
        <pt x="141" y="358" on="0"/>
        <pt x="124" y="298" on="1"/>
        <pt x="120" y="282" on="0"/>
        <pt x="116" y="279" on="1"/>
        <pt x="115" y="278" on="0"/>
        <pt x="97" y="278" on="1"/>
        <pt x="81" y="278" on="1"/>
        <pt x="75" y="284" on="0"/>
        <pt x="75" y="287" on="1"/>
        <pt x="75" y="291" on="0"/>
        <pt x="79" y="302" on="1"/>
        <pt x="103" y="387" on="0"/>
        <pt x="155" y="424" on="1"/>
        <pt x="176" y="438" on="0"/>
        <pt x="196" y="441" on="1"/>
      </contour>
    </TTGlyph>
    <TTGlyph name="e" xMin="107" yMin="-10" xMax="470" yMax="442">
      <contour>
        <pt x="205" y="223" on="1"/>
        <pt x="189" y="159" on="0"/>
        <pt x="189" y="125" on="1"/>
        <pt x="189" y="46" on="0"/>
        <pt x="242" y="28" on="1"/>
        <pt x="246" y="27" on="0"/>
        <pt x="261" y="27" on="1"/>
        <pt x="282" y="27" on="0"/>
        <pt x="291" y="29" on="1"/>
        <pt x="373" y="43" on="0"/>
        <pt x="426" y="109" on="1"/>
        <pt x="436" y="121" on="0"/>
        <pt x="444" y="121" on="0"/>
        <pt x="464" y="101" on="0"/>
        <pt x="466" y="97" on="1"/>
        <pt x="469" y="92" on="0"/>
        <pt x="455" y="77" on="1"/>
        <pt x="394" y="6" on="0"/>
        <pt x="292" y="-9" on="1"/>
        <pt x="283" y="-10" on="0"/>
        <pt x="258" y="-10" on="1"/>
        <pt x="196" y="-10" on="0"/>
        <pt x="157" y="29" on="1"/>
        <pt x="107" y="79" on="0"/>
        <pt x="107" y="166" on="1"/>
        <pt x="107" y="203" on="0"/>
        <pt x="115" y="235" on="1"/>
        <pt x="129" y="299" on="0"/>
        <pt x="219" y="401" on="0"/>
        <pt x="283" y="426" on="1"/>
        <pt x="315" y="439" on="0"/>
        <pt x="345" y="441" on="1"/>
        <pt x="346" y="441" on="0"/>
        <pt x="358" y="442" on="0"/>
        <pt x="361" y="442" on="1"/>
        <pt x="364" y="442" on="1"/>
        <pt x="403" y="442" on="0"/>
        <pt x="458" y="406" on="0"/>
        <pt x="467" y="375" on="1"/>
        <pt x="470" y="368" on="0"/>
        <pt x="470" y="355" on="1"/>
        <pt x="470" y="324" on="0"/>
        <pt x="450" y="293" on="1"/>
        <pt x="402" y="223" on="0"/>
        <pt x="218" y="223" on="1"/>
      </contour>
      <contour>
        <pt x="416" y="354" on="1"/>
        <pt x="416" y="376" on="0"/>
        <pt x="384" y="405" on="0"/>
        <pt x="360" y="405" on="1"/>
        <pt x="342" y="405" on="0"/>
        <pt x="324" y="399" on="1"/>
        <pt x="257" y="376" on="0"/>
        <pt x="227" y="298" on="1"/>
        <pt x="215" y="271" on="0"/>
        <pt x="215" y="261" on="1"/>
        <pt x="215" y="260" on="0"/>
        <pt x="240" y="260" on="1"/>
        <pt x="332" y="263" on="0"/>
        <pt x="369" y="282" on="1"/>
        <pt x="416" y="305" on="0"/>
      </contour>
    </TTGlyph>
    <TTGlyph name="eight" xMin="99" yMin="-21" xMax="553" yMax="666">
      <contour>
        <pt x="416" y="666" on="1"/>
        <pt x="477" y="666" on="0"/>
        <pt x="553" y="602" on="0"/>
        <pt x="553" y="546" on="1"/>
        <pt x="553" y="452" on="0"/>
        <pt x="449" y="384" on="1"/>
        <pt x="423" y="365" on="0"/>
        <pt x="411" y="361" on="1"/>
        <pt x="410" y="360" on="1"/>
        <pt x="449" y="327" on="0"/>
        <pt x="457" y="318" on="1"/>
        <pt x="495" y="278" on="0"/>
        <pt x="495" y="211" on="1"/>
        <pt x="494" y="185" on="0"/>
        <pt x="492" y="178" on="1"/>
        <pt x="477" y="113" on="0"/>
        <pt x="385" y="12" on="0"/>
        <pt x="322" y="-10" on="1"/>
        <pt x="289" y="-21" on="0"/>
        <pt x="253" y="-21" on="1"/>
        <pt x="197" y="-21" on="0"/>
        <pt x="120" y="29" on="0"/>
        <pt x="106" y="72" on="1"/>
        <pt x="99" y="93" on="0"/>
        <pt x="99" y="117" on="1"/>
        <pt x="99" y="153" on="0"/>
        <pt x="111" y="182" on="1"/>
        <pt x="149" y="275" on="0"/>
        <pt x="259" y="331" on="1"/>
        <pt x="272" y="338" on="1"/>
        <pt x="259" y="349" on="1"/>
        <pt x="211" y="390" on="0"/>
        <pt x="209" y="449" on="1"/>
        <pt x="209" y="475" on="0"/>
        <pt x="214" y="499" on="1"/>
        <pt x="230" y="559" on="0"/>
        <pt x="334" y="655" on="0"/>
        <pt x="397" y="665" on="1"/>
        <pt x="402" y="666" on="0"/>
      </contour>
      <contour>
        <pt x="415" y="625" on="1"/>
        <pt x="364" y="625" on="0"/>
        <pt x="279" y="552" on="0"/>
        <pt x="279" y="505" on="1"/>
        <pt x="279" y="492" on="0"/>
        <pt x="286" y="474" on="1"/>
        <pt x="291" y="461" on="0"/>
        <pt x="337" y="422" on="1"/>
        <pt x="346" y="414" on="0"/>
        <pt x="368" y="396" on="0"/>
        <pt x="374" y="391" on="1"/>
        <pt x="379" y="386" on="1"/>
        <pt x="382" y="385" on="0"/>
        <pt x="388" y="389" on="1"/>
        <pt x="439" y="419" on="0"/>
        <pt x="472" y="471" on="1"/>
        <pt x="492" y="513" on="0"/>
        <pt x="492" y="542" on="1"/>
        <pt x="492" y="581" on="0"/>
        <pt x="452" y="625" on="0"/>
      </contour>
      <contour>
        <pt x="163" y="118" on="1"/>
        <pt x="163" y="75" on="0"/>
        <pt x="217" y="21" on="0"/>
        <pt x="258" y="21" on="1"/>
        <pt x="316" y="21" on="0"/>
        <pt x="407" y="97" on="0"/>
        <pt x="419" y="148" on="1"/>
        <pt x="420" y="154" on="0"/>
        <pt x="420" y="170" on="1"/>
        <pt x="420" y="193" on="0"/>
        <pt x="412" y="210" on="1"/>
        <pt x="406" y="221" on="0"/>
        <pt x="388" y="239" on="0"/>
        <pt x="350" y="271" on="1"/>
        <pt x="302" y="312" on="1"/>
        <pt x="298" y="312" on="0"/>
        <pt x="272" y="294" on="1"/>
        <pt x="198" y="244" on="0"/>
        <pt x="172" y="169" on="1"/>
        <pt x="163" y="142" on="0"/>
      </contour>
    </TTGlyph>
    <TTGlyph name="emdash" xMin="117" yMin="248" xMax="1038" yMax="285">
      <contour>
        <pt x="124" y="248" on="1"/>
        <pt x="117" y="253" on="0"/>
        <pt x="117" y="265" on="0"/>
        <pt x="124" y="282" on="0"/>
        <pt x="126" y="284" on="1"/>
        <pt x="128" y="285" on="0"/>
        <pt x="1030" y="285" on="0"/>
        <pt x="1033" y="284" on="1"/>
        <pt x="1037" y="280" on="0"/>
        <pt x="1037" y="278" on="1"/>
        <pt x="1038" y="276" on="0"/>
        <pt x="1038" y="274" on="1"/>
        <pt x="1038" y="267" on="0"/>
        <pt x="1031" y="251" on="0"/>
        <pt x="1029" y="250" on="1"/>
        <pt x="1026" y="248" on="0"/>
        <pt x="575" y="248" on="1"/>
      </contour>
    </TTGlyph>
    <TTGlyph name="endash" xMin="91" yMin="248" xMax="554" yMax="285">
      <contour>
        <pt x="98" y="248" on="1"/>
        <pt x="91" y="253" on="0"/>
        <pt x="91" y="265" on="0"/>
        <pt x="98" y="282" on="0"/>
        <pt x="100" y="284" on="1"/>
        <pt x="102" y="285" on="0"/>
        <pt x="324" y="285" on="1"/>
        <pt x="442" y="285" on="1"/>
        <pt x="551" y="285" on="0"/>
        <pt x="552" y="280" on="1"/>
        <pt x="552" y="279" on="0"/>
        <pt x="552" y="278" on="1"/>
        <pt x="554" y="274" on="0"/>
        <pt x="554" y="274" on="1"/>
        <pt x="554" y="260" on="0"/>
        <pt x="548" y="254" on="1"/>
        <pt x="546" y="250" on="0"/>
        <pt x="538" y="249" on="1"/>
        <pt x="520" y="248" on="0"/>
        <pt x="319" y="248" on="1"/>
      </contour>
    </TTGlyph>
    <TTGlyph name="equal" xMin="116" yMin="133" xMax="776" yMax="367">
      <contour>
        <pt x="776" y="358" on="0"/>
        <pt x="776" y="336" on="0"/>
        <pt x="761" y="327" on="1"/>
        <pt x="470" y="327" on="1"/>
        <pt x="180" y="327" on="0"/>
        <pt x="176" y="329" on="1"/>
        <pt x="164" y="334" on="0"/>
        <pt x="164" y="347" on="1"/>
        <pt x="164" y="359" on="0"/>
        <pt x="176" y="365" on="1"/>
        <pt x="179" y="367" on="0"/>
        <pt x="470" y="367" on="1"/>
        <pt x="761" y="367" on="1"/>
      </contour>
      <contour>
        <pt x="116" y="142" on="0"/>
        <pt x="116" y="164" on="0"/>
        <pt x="131" y="173" on="1"/>
        <pt x="422" y="173" on="1"/>
        <pt x="713" y="173" on="0"/>
        <pt x="717" y="171" on="1"/>
        <pt x="728" y="166" on="0"/>
        <pt x="728" y="140" on="0"/>
        <pt x="717" y="135" on="1"/>
        <pt x="713" y="133" on="0"/>
        <pt x="422" y="133" on="1"/>
        <pt x="131" y="133" on="1"/>
      </contour>
    </TTGlyph>
    <TTGlyph name="exclam" xMin="107" yMin="0" xMax="380" yMax="716">
      <contour>
        <pt x="330" y="716" on="1"/>
        <pt x="351" y="716" on="0"/>
        <pt x="380" y="692" on="0"/>
        <pt x="380" y="670" on="1"/>
        <pt x="380" y="659" on="1"/>
        <pt x="304" y="433" on="1"/>
        <pt x="230" y="207" on="0"/>
        <pt x="227" y="204" on="1"/>
        <pt x="225" y="198" on="0"/>
        <pt x="205" y="198" on="1"/>
        <pt x="184" y="198" on="0"/>
        <pt x="184" y="216" on="0"/>
        <pt x="257" y="662" on="0"/>
        <pt x="260" y="669" on="1"/>
        <pt x="270" y="694" on="0"/>
        <pt x="297" y="708" on="1"/>
        <pt x="300" y="709" on="0"/>
        <pt x="308" y="712" on="0"/>
        <pt x="314" y="714" on="0"/>
        <pt x="316" y="714" on="1"/>
        <pt x="324" y="716" on="0"/>
      </contour>
      <contour>
        <pt x="156" y="0" on="1"/>
        <pt x="135" y="0" on="0"/>
        <pt x="107" y="27" on="0"/>
        <pt x="107" y="51" on="1"/>
        <pt x="110" y="80" on="0"/>
        <pt x="151" y="121" on="0"/>
        <pt x="179" y="121" on="1"/>
        <pt x="202" y="121" on="0"/>
        <pt x="231" y="94" on="0"/>
        <pt x="231" y="72" on="1"/>
        <pt x="231" y="46" on="0"/>
        <pt x="185" y="0" on="0"/>
      </contour>
    </TTGlyph>
    <TTGlyph name="f" xMin="-23" yMin="-204" xMax="450" yMax="705">
      <contour>
        <pt x="351" y="608" on="1"/>
        <pt x="351" y="638" on="0"/>
        <pt x="389" y="661" on="1"/>
        <pt x="370" y="668" on="0"/>
        <pt x="365" y="668" on="1"/>
        <pt x="349" y="668" on="0"/>
        <pt x="336" y="645" on="1"/>
        <pt x="332" y="636" on="0"/>
        <pt x="318" y="571" on="1"/>
        <pt x="291" y="432" on="1"/>
        <pt x="291" y="431" on="0"/>
        <pt x="343" y="431" on="1"/>
        <pt x="394" y="431" on="1"/>
        <pt x="400" y="426" on="0"/>
        <pt x="402" y="419" on="0"/>
        <pt x="398" y="404" on="1"/>
        <pt x="394" y="390" on="0"/>
        <pt x="389" y="386" on="1"/>
        <pt x="335" y="385" on="1"/>
        <pt x="282" y="385" on="1"/>
        <pt x="255" y="246" on="1"/>
        <pt x="219" y="60" on="0"/>
        <pt x="205" y="4" on="1"/>
        <pt x="181" y="-94" on="0"/>
        <pt x="149" y="-143" on="1"/>
        <pt x="118" y="-190" on="0"/>
        <pt x="79" y="-202" on="1"/>
        <pt x="74" y="-204" on="0"/>
        <pt x="58" y="-204" on="1"/>
        <pt x="23" y="-204" on="0"/>
        <pt x="-23" y="-166" on="0"/>
        <pt x="-23" y="-134" on="1"/>
        <pt x="-23" y="-107" on="0"/>
        <pt x="9" y="-69" on="0"/>
        <pt x="37" y="-69" on="1"/>
        <pt x="54" y="-69" on="0"/>
        <pt x="76" y="-90" on="0"/>
        <pt x="76" y="-108" on="1"/>
        <pt x="76" y="-115" on="0"/>
        <pt x="75" y="-119" on="1"/>
        <pt x="67" y="-145" on="0"/>
        <pt x="39" y="-161" on="1"/>
        <pt x="39" y="-163" on="0"/>
        <pt x="57" y="-168" on="0"/>
        <pt x="62" y="-168" on="1"/>
        <pt x="76" y="-168" on="0"/>
        <pt x="91" y="-145" on="1"/>
        <pt x="98" y="-129" on="0"/>
        <pt x="108" y="-90" on="0"/>
        <pt x="122" y="-16" on="0"/>
        <pt x="125" y="-1" on="1"/>
        <pt x="145" y="90" on="0"/>
        <pt x="146" y="98" on="1"/>
        <pt x="149" y="109" on="0"/>
        <pt x="177" y="251" on="0"/>
        <pt x="202" y="383" on="0"/>
        <pt x="202" y="385" on="0"/>
        <pt x="158" y="385" on="1"/>
        <pt x="114" y="385" on="1"/>
        <pt x="108" y="390" on="0"/>
        <pt x="106" y="397" on="0"/>
        <pt x="110" y="412" on="1"/>
        <pt x="113" y="424" on="0"/>
        <pt x="120" y="431" on="1"/>
        <pt x="165" y="431" on="1"/>
        <pt x="211" y="431" on="0"/>
        <pt x="211" y="433" on="1"/>
        <pt x="212" y="438" on="1"/>
        <pt x="214" y="444" on="0"/>
        <pt x="218" y="466" on="0"/>
        <pt x="220" y="475" on="1"/>
        <pt x="243" y="599" on="0"/>
        <pt x="266" y="639" on="1"/>
        <pt x="295" y="691" on="0"/>
        <pt x="350" y="703" on="1"/>
        <pt x="360" y="705" on="0"/>
        <pt x="367" y="705" on="1"/>
        <pt x="402" y="705" on="0"/>
        <pt x="450" y="667" on="0"/>
        <pt x="450" y="635" on="1"/>
        <pt x="450" y="606" on="0"/>
        <pt x="417" y="569" on="0"/>
        <pt x="390" y="569" on="1"/>
        <pt x="373" y="569" on="0"/>
        <pt x="351" y="590" on="0"/>
      </contour>
    </TTGlyph>
</ttFont>
